<svg width="338" height="516" viewBox="0 0 338 516" fill="none" xmlns="http://www.w3.org/2000/svg">
<g opacity="0.23">
<mask id="path-1-inside-1_2_3031" fill="white">
<path d="M102.442 332.203V498.485C102.442 503.314 102.514 508.144 102.442 512.973C102.442 515.279 103.24 516 105.491 516C124.075 516 142.732 515.928 161.316 516C164.365 516 164.511 514.486 164.511 512.18V273.1C164.511 269.929 165.527 267.694 167.777 265.532C186.071 247.513 204.22 229.349 222.441 211.186C223.458 210.177 224.547 209.312 226.289 207.726C226.507 209.961 226.725 211.402 226.725 212.844V512.252C226.725 514.919 227.305 516 230.282 516C248.576 515.856 266.942 515.856 285.236 516C288.068 516 289.084 515.207 288.939 512.396C288.793 509.441 288.939 506.414 288.939 503.387V212.627C288.939 211.33 289.084 210.033 289.229 207.942C290.608 209.024 291.552 209.6 292.278 210.321C311.08 228.989 329.81 247.657 348.684 266.253C350.499 268.055 351.153 269.929 351.153 272.451V512.18C351.153 514.703 352.459 516 355.073 516C373.222 516 391.298 515.928 409.447 516C412.496 516 413.222 515.063 413.222 512.18C413.222 453.653 413.222 395.127 413.222 336.6C413.222 335.086 413.367 333.645 413.439 332.131L414.311 331.699C415.545 332.78 416.851 333.861 418.013 335.014C436.089 352.962 454.238 370.981 472.314 389C474.419 391.09 476.452 391.09 478.557 389C490.245 377.396 501.933 365.791 513.621 354.115C515.46 352.289 515.46 350.463 513.621 348.637C497.94 333.068 482.187 317.5 466.506 301.931C435.218 270.794 403.857 239.728 372.568 208.591C350.572 186.752 328.503 164.84 306.434 143.001C291.189 127.865 276.017 112.801 260.772 97.6645C258.787 95.6944 256.755 95.7424 254.674 97.8086C219.465 132.838 184.184 167.796 148.975 202.825C118.34 233.242 87.7048 263.658 57.0697 294.075C38.7757 312.238 20.4091 330.401 2.11511 348.637C-0.643494 351.376 -0.716064 351.448 1.96997 354.115C13.9482 366.008 25.9989 377.9 37.9045 389.793C39.6469 391.595 40.7357 391.667 42.5506 389.793C60.9172 371.413 79.429 353.178 97.8681 334.87C98.9571 333.789 100.119 332.852 101.28 331.843C101.716 331.915 102.151 332.059 102.514 332.131M408.575 209.961C432.967 209.961 452.859 190.067 452.713 165.922C452.568 141.415 432.822 122.243 407.632 122.315C384.184 122.315 364.365 142.28 364.292 165.994C364.147 189.995 384.329 209.961 408.575 209.961ZM63.1677 166.066C63.1677 190.284 82.7684 209.961 107.015 209.961C131.262 209.961 151.226 190.5 151.298 166.138C151.298 141.704 131.697 122.387 106.797 122.315C82.7683 122.315 63.2403 141.92 63.1677 166.066ZM213.585 43.7508C213.585 67.9687 233.186 87.6458 257.432 87.6458C281.679 87.6458 301.643 68.1849 301.715 43.8229C301.715 19.3887 282.187 0 257.215 0C232.242 0 213.657 19.605 213.585 43.7508Z"/>
</mask>
<path d="M102.442 512.973H101.442V512.965L101.442 512.958L102.442 512.973ZM161.316 516V517H161.312L161.316 516ZM167.777 265.532L168.479 266.245L168.47 266.253L167.777 265.532ZM222.441 211.186L221.735 210.478L221.737 210.476L222.441 211.186ZM226.289 207.726L225.616 206.987L227.091 205.644L227.284 207.629L226.289 207.726ZM230.282 516L230.29 517H230.282V516ZM285.236 516V517L285.228 517L285.236 516ZM288.939 512.396L287.94 512.448L287.94 512.445L288.939 512.396ZM289.229 207.942L288.231 207.873L288.362 205.992L289.846 207.155L289.229 207.942ZM292.278 210.321L291.573 211.031L292.278 210.321ZM348.684 266.253L349.386 265.54L349.389 265.543L348.684 266.253ZM409.447 516V517H409.443L409.447 516ZM413.439 332.131L412.441 332.083L412.469 331.497L412.995 331.236L413.439 332.131ZM414.311 331.699L413.866 330.803L414.466 330.505L414.969 330.947L414.311 331.699ZM418.013 335.014L418.717 334.305L418.013 335.014ZM472.314 389L471.609 389.71L471.608 389.708L472.314 389ZM478.557 389L479.262 389.71L478.557 389ZM513.621 354.115L512.914 353.407L512.916 353.405L513.621 354.115ZM466.506 301.931L465.802 302.641L465.801 302.64L466.506 301.931ZM372.568 208.591L373.273 207.882L373.274 207.882L372.568 208.591ZM306.434 143.001L305.731 143.712L305.73 143.711L306.434 143.001ZM260.772 97.6645L261.476 96.9548L260.772 97.6645ZM254.674 97.8086L253.968 97.0997L253.969 97.099L254.674 97.8086ZM148.975 202.825L149.68 203.534L149.68 203.535L148.975 202.825ZM2.11511 348.637L2.82111 349.345L2.8197 349.347L2.11511 348.637ZM37.9045 389.793L38.6113 389.086L38.6174 389.092L38.6234 389.098L37.9045 389.793ZM42.5506 389.793L41.8323 389.097L41.8377 389.092L41.8433 389.086L42.5506 389.793ZM97.8681 334.87L97.1636 334.161L97.8681 334.87ZM101.28 331.843L100.624 331.088L100.979 330.78L101.443 330.856L101.28 331.843ZM452.713 165.922L451.713 165.928V165.927L452.713 165.922ZM407.632 122.315L407.635 123.315H407.632V122.315ZM364.292 165.994L365.292 165.997L365.292 166L364.292 165.994ZM63.1677 166.066H62.1677V166.063L63.1677 166.066ZM151.298 166.138H152.298V166.141L151.298 166.138ZM106.797 122.315V121.315L106.8 121.315L106.797 122.315ZM213.585 43.7508H212.585V43.7478L213.585 43.7508ZM301.715 43.8229H302.715L302.715 43.8259L301.715 43.8229ZM103.442 332.203V498.485H101.442V332.203H103.442ZM103.442 498.485C103.442 503.293 103.514 508.15 103.442 512.988L101.442 512.958C101.514 508.137 101.442 503.336 101.442 498.485H103.442ZM103.442 512.973C103.442 514.064 103.643 514.462 103.82 514.635C104.004 514.814 104.415 515 105.491 515V517C104.316 517 103.203 516.826 102.424 516.068C101.64 515.303 101.442 514.188 101.442 512.973H103.442ZM105.491 515C124.07 515 142.734 514.928 161.32 515L161.312 517C142.73 516.928 124.081 517 105.491 517V515ZM161.316 515C162.705 515 163.063 514.658 163.209 514.424C163.312 514.26 163.397 514.012 163.449 513.62C163.501 513.225 163.511 512.757 163.511 512.18H165.511C165.511 512.756 165.502 513.342 165.432 513.88C165.361 514.42 165.219 514.983 164.904 515.486C164.216 516.585 162.977 517 161.316 517V515ZM163.511 512.18V273.1H165.511V512.18H163.511ZM163.511 273.1C163.511 269.643 164.648 267.152 167.084 264.811L168.47 266.253C166.406 268.236 165.511 270.214 165.511 273.1H163.511ZM167.076 264.82C185.367 246.803 203.512 228.643 221.735 210.478L223.147 211.894C204.928 230.056 186.776 248.222 168.479 266.245L167.076 264.82ZM221.737 210.476C222.766 209.455 223.941 208.511 225.616 206.987L226.962 208.466C225.153 210.112 224.15 210.899 223.146 211.896L221.737 210.476ZM227.284 207.629C227.495 209.793 227.725 211.337 227.725 212.844H225.725C225.725 211.467 225.518 210.128 225.294 207.823L227.284 207.629ZM227.725 212.844V512.252H225.725V212.844H227.725ZM227.725 512.252C227.725 513.593 227.892 514.179 228.146 514.475C228.362 514.727 228.854 515 230.282 515V517C228.733 517 227.446 516.732 226.628 515.777C225.847 514.866 225.725 513.578 225.725 512.252H227.725ZM230.274 515C248.573 514.856 266.945 514.856 285.244 515L285.228 517C266.94 516.856 248.578 516.856 230.29 517L230.274 515ZM285.236 515C286.632 515 287.237 514.786 287.522 514.521C287.771 514.289 288.009 513.787 287.94 512.448L289.937 512.345C290.013 513.817 289.816 515.117 288.885 515.984C287.991 516.817 286.672 517 285.236 517V515ZM287.94 512.445C287.793 509.461 287.939 506.345 287.939 503.387H289.939C289.939 506.483 289.794 509.421 289.937 512.347L287.94 512.445ZM287.939 503.387V212.627H289.939V503.387H287.939ZM287.939 212.627C287.939 211.284 288.09 209.908 288.231 207.873L290.227 208.012C290.078 210.157 289.939 211.376 289.939 212.627H287.939ZM289.846 207.155C290.521 207.685 291.079 208.082 291.593 208.463C292.097 208.835 292.564 209.196 292.983 209.611L291.573 211.031C291.266 210.725 290.899 210.437 290.404 210.071C289.92 209.713 289.316 209.281 288.612 208.729L289.846 207.155ZM292.983 209.611C311.787 228.281 330.513 246.946 349.386 265.54L347.983 266.965C329.106 248.367 310.374 229.697 291.573 211.031L292.983 209.611ZM349.389 265.543C351.418 267.558 352.153 269.7 352.153 272.451H350.153C350.153 270.157 349.58 268.551 347.98 266.962L349.389 265.543ZM352.153 272.451V512.18H350.153V272.451H352.153ZM352.153 512.18C352.153 513.278 352.435 513.933 352.832 514.321C353.233 514.714 353.919 515 355.073 515V517C353.614 517 352.339 516.637 351.433 515.75C350.523 514.86 350.153 513.604 350.153 512.18H352.153ZM355.073 515C373.216 515 391.299 514.928 409.451 515L409.443 517C391.296 516.928 373.227 517 355.073 517V515ZM409.447 515C410.942 515 411.497 514.752 411.751 514.484C412.019 514.2 412.222 513.618 412.222 512.18H414.222C414.222 513.625 414.061 514.953 413.204 515.858C412.332 516.779 411 517 409.447 517V515ZM412.222 512.18C412.222 512.066 412.222 511.951 412.222 511.837C412.222 511.723 412.222 511.608 412.222 511.494C412.222 511.38 412.222 511.265 412.222 511.151C412.222 511.037 412.222 510.922 412.222 510.808C412.222 510.694 412.222 510.58 412.222 510.465C412.222 510.351 412.222 510.237 412.222 510.122C412.222 510.008 412.222 509.894 412.222 509.779C412.222 509.665 412.222 509.551 412.222 509.436C412.222 509.322 412.222 509.208 412.222 509.094C412.222 508.979 412.222 508.865 412.222 508.751C412.222 508.636 412.222 508.522 412.222 508.408C412.222 508.293 412.222 508.179 412.222 508.065C412.222 507.95 412.222 507.836 412.222 507.722C412.222 507.608 412.222 507.493 412.222 507.379C412.222 507.265 412.222 507.15 412.222 507.036C412.222 506.922 412.222 506.807 412.222 506.693C412.222 506.579 412.222 506.464 412.222 506.35C412.222 506.236 412.222 506.121 412.222 506.007C412.222 505.893 412.222 505.779 412.222 505.664C412.222 505.55 412.222 505.436 412.222 505.321C412.222 505.207 412.222 505.093 412.222 504.978C412.222 504.864 412.222 504.75 412.222 504.635C412.222 504.521 412.222 504.407 412.222 504.293C412.222 504.178 412.222 504.064 412.222 503.95C412.222 503.835 412.222 503.721 412.222 503.607C412.222 503.492 412.222 503.378 412.222 503.264C412.222 503.149 412.222 503.035 412.222 502.921C412.222 502.807 412.222 502.692 412.222 502.578C412.222 502.464 412.222 502.349 412.222 502.235C412.222 502.121 412.222 502.006 412.222 501.892C412.222 501.778 412.222 501.663 412.222 501.549C412.222 501.435 412.222 501.32 412.222 501.206C412.222 501.092 412.222 500.978 412.222 500.863C412.222 500.749 412.222 500.635 412.222 500.52C412.222 500.406 412.222 500.292 412.222 500.177C412.222 500.063 412.222 499.949 412.222 499.834C412.222 499.72 412.222 499.606 412.222 499.492C412.222 499.377 412.222 499.263 412.222 499.149C412.222 499.034 412.222 498.92 412.222 498.806C412.222 498.691 412.222 498.577 412.222 498.463C412.222 498.348 412.222 498.234 412.222 498.12C412.222 498.005 412.222 497.891 412.222 497.777C412.222 497.663 412.222 497.548 412.222 497.434C412.222 497.32 412.222 497.205 412.222 497.091C412.222 496.977 412.222 496.862 412.222 496.748C412.222 496.634 412.222 496.519 412.222 496.405C412.222 496.291 412.222 496.177 412.222 496.062C412.222 495.948 412.222 495.834 412.222 495.719C412.222 495.605 412.222 495.491 412.222 495.376C412.222 495.262 412.222 495.148 412.222 495.033C412.222 494.919 412.222 494.805 412.222 494.691C412.222 494.576 412.222 494.462 412.222 494.348C412.222 494.233 412.222 494.119 412.222 494.005C412.222 493.89 412.222 493.776 412.222 493.662C412.222 493.547 412.222 493.433 412.222 493.319C412.222 493.204 412.222 493.09 412.222 492.976C412.222 492.862 412.222 492.747 412.222 492.633C412.222 492.519 412.222 492.404 412.222 492.29C412.222 492.176 412.222 492.061 412.222 491.947C412.222 491.833 412.222 491.718 412.222 491.604C412.222 491.49 412.222 491.376 412.222 491.261C412.222 491.147 412.222 491.033 412.222 490.918C412.222 490.804 412.222 490.69 412.222 490.575C412.222 490.461 412.222 490.347 412.222 490.232C412.222 490.118 412.222 490.004 412.222 489.889C412.222 489.775 412.222 489.661 412.222 489.547C412.222 489.432 412.222 489.318 412.222 489.204C412.222 489.089 412.222 488.975 412.222 488.861C412.222 488.746 412.222 488.632 412.222 488.518C412.222 488.403 412.222 488.289 412.222 488.175C412.222 488.061 412.222 487.946 412.222 487.832C412.222 487.718 412.222 487.603 412.222 487.489C412.222 487.375 412.222 487.26 412.222 487.146C412.222 487.032 412.222 486.917 412.222 486.803C412.222 486.689 412.222 486.575 412.222 486.46C412.222 486.346 412.222 486.232 412.222 486.117C412.222 486.003 412.222 485.889 412.222 485.774C412.222 485.66 412.222 485.546 412.222 485.431C412.222 485.317 412.222 485.203 412.222 485.089C412.222 484.974 412.222 484.86 412.222 484.746C412.222 484.631 412.222 484.517 412.222 484.403C412.222 484.288 412.222 484.174 412.222 484.06C412.222 483.945 412.222 483.831 412.222 483.717C412.222 483.602 412.222 483.488 412.222 483.374C412.222 483.26 412.222 483.145 412.222 483.031C412.222 482.917 412.222 482.802 412.222 482.688C412.222 482.574 412.222 482.459 412.222 482.345C412.222 482.231 412.222 482.116 412.222 482.002C412.222 481.888 412.222 481.773 412.222 481.659C412.222 481.545 412.222 481.431 412.222 481.316C412.222 481.202 412.222 481.088 412.222 480.973C412.222 480.859 412.222 480.745 412.222 480.63C412.222 480.516 412.222 480.402 412.222 480.287C412.222 480.173 412.222 480.059 412.222 479.945C412.222 479.83 412.222 479.716 412.222 479.602C412.222 479.487 412.222 479.373 412.222 479.259C412.222 479.144 412.222 479.03 412.222 478.916C412.222 478.801 412.222 478.687 412.222 478.573C412.222 478.459 412.222 478.344 412.222 478.23C412.222 478.116 412.222 478.001 412.222 477.887C412.222 477.773 412.222 477.658 412.222 477.544C412.222 477.43 412.222 477.315 412.222 477.201C412.222 477.087 412.222 476.973 412.222 476.858C412.222 476.744 412.222 476.63 412.222 476.515C412.222 476.401 412.222 476.287 412.222 476.172C412.222 476.058 412.222 475.944 412.222 475.829C412.222 475.715 412.222 475.601 412.222 475.486C412.222 475.372 412.222 475.258 412.222 475.144C412.222 475.029 412.222 474.915 412.222 474.801C412.222 474.686 412.222 474.572 412.222 474.458C412.222 474.343 412.222 474.229 412.222 474.115C412.222 474 412.222 473.886 412.222 473.772C412.222 473.658 412.222 473.543 412.222 473.429C412.222 473.315 412.222 473.2 412.222 473.086C412.222 472.972 412.222 472.857 412.222 472.743C412.222 472.629 412.222 472.514 412.222 472.4C412.222 472.286 412.222 472.171 412.222 472.057C412.222 471.943 412.222 471.829 412.222 471.714C412.222 471.6 412.222 471.486 412.222 471.371C412.222 471.257 412.222 471.143 412.222 471.028C412.222 470.914 412.222 470.8 412.222 470.685C412.222 470.571 412.222 470.457 412.222 470.343C412.222 470.228 412.222 470.114 412.222 470C412.222 469.885 412.222 469.771 412.222 469.657C412.222 469.542 412.222 469.428 412.222 469.314C412.222 469.199 412.222 469.085 412.222 468.971C412.222 468.857 412.222 468.742 412.222 468.628C412.222 468.514 412.222 468.399 412.222 468.285C412.222 468.171 412.222 468.056 412.222 467.942C412.222 467.828 412.222 467.713 412.222 467.599C412.222 467.485 412.222 467.37 412.222 467.256C412.222 467.142 412.222 467.028 412.222 466.913C412.222 466.799 412.222 466.685 412.222 466.57C412.222 466.456 412.222 466.342 412.222 466.227C412.222 466.113 412.222 465.999 412.222 465.884C412.222 465.77 412.222 465.656 412.222 465.542C412.222 465.427 412.222 465.313 412.222 465.199C412.222 465.084 412.222 464.97 412.222 464.856C412.222 464.741 412.222 464.627 412.222 464.513C412.222 464.398 412.222 464.284 412.222 464.17C412.222 464.055 412.222 463.941 412.222 463.827C412.222 463.713 412.222 463.598 412.222 463.484C412.222 463.37 412.222 463.255 412.222 463.141C412.222 463.027 412.222 462.912 412.222 462.798C412.222 462.684 412.222 462.569 412.222 462.455C412.222 462.341 412.222 462.227 412.222 462.112C412.222 461.998 412.222 461.884 412.222 461.769C412.222 461.655 412.222 461.541 412.222 461.426C412.222 461.312 412.222 461.198 412.222 461.083C412.222 460.969 412.222 460.855 412.222 460.741C412.222 460.626 412.222 460.512 412.222 460.398C412.222 460.283 412.222 460.169 412.222 460.055C412.222 459.94 412.222 459.826 412.222 459.712C412.222 459.597 412.222 459.483 412.222 459.369C412.222 459.254 412.222 459.14 412.222 459.026C412.222 458.912 412.222 458.797 412.222 458.683C412.222 458.569 412.222 458.454 412.222 458.34C412.222 458.226 412.222 458.111 412.222 457.997C412.222 457.883 412.222 457.768 412.222 457.654C412.222 457.54 412.222 457.426 412.222 457.311C412.222 457.197 412.222 457.083 412.222 456.968C412.222 456.854 412.222 456.74 412.222 456.625C412.222 456.511 412.222 456.397 412.222 456.282C412.222 456.168 412.222 456.054 412.222 455.939C412.222 455.825 412.222 455.711 412.222 455.597C412.222 455.482 412.222 455.368 412.222 455.254C412.222 455.139 412.222 455.025 412.222 454.911C412.222 454.796 412.222 454.682 412.222 454.568C412.222 454.453 412.222 454.339 412.222 454.225C412.222 454.111 412.222 453.996 412.222 453.882C412.222 453.768 412.222 453.653 412.222 453.539C412.222 453.425 412.222 453.31 412.222 453.196C412.222 453.082 412.222 452.967 412.222 452.853C412.222 452.739 412.222 452.625 412.222 452.51C412.222 452.396 412.222 452.282 412.222 452.167C412.222 452.053 412.222 451.939 412.222 451.824C412.222 451.71 412.222 451.596 412.222 451.481C412.222 451.367 412.222 451.253 412.222 451.138C412.222 451.024 412.222 450.91 412.222 450.796C412.222 450.681 412.222 450.567 412.222 450.453C412.222 450.338 412.222 450.224 412.222 450.11C412.222 449.995 412.222 449.881 412.222 449.767C412.222 449.652 412.222 449.538 412.222 449.424C412.222 449.31 412.222 449.195 412.222 449.081C412.222 448.967 412.222 448.852 412.222 448.738C412.222 448.624 412.222 448.509 412.222 448.395C412.222 448.281 412.222 448.166 412.222 448.052C412.222 447.938 412.222 447.824 412.222 447.709C412.222 447.595 412.222 447.481 412.222 447.366C412.222 447.252 412.222 447.138 412.222 447.023C412.222 446.909 412.222 446.795 412.222 446.68C412.222 446.566 412.222 446.452 412.222 446.337C412.222 446.223 412.222 446.109 412.222 445.995C412.222 445.88 412.222 445.766 412.222 445.652C412.222 445.537 412.222 445.423 412.222 445.309C412.222 445.194 412.222 445.08 412.222 444.966C412.222 444.851 412.222 444.737 412.222 444.623C412.222 444.509 412.222 444.394 412.222 444.28C412.222 444.166 412.222 444.051 412.222 443.937C412.222 443.823 412.222 443.708 412.222 443.594C412.222 443.48 412.222 443.365 412.222 443.251C412.222 443.137 412.222 443.022 412.222 442.908C412.222 442.794 412.222 442.68 412.222 442.565C412.222 442.451 412.222 442.337 412.222 442.222C412.222 442.108 412.222 441.994 412.222 441.879C412.222 441.765 412.222 441.651 412.222 441.536C412.222 441.422 412.222 441.308 412.222 441.194C412.222 441.079 412.222 440.965 412.222 440.851C412.222 440.736 412.222 440.622 412.222 440.508C412.222 440.393 412.222 440.279 412.222 440.165C412.222 440.05 412.222 439.936 412.222 439.822C412.222 439.708 412.222 439.593 412.222 439.479C412.222 439.365 412.222 439.25 412.222 439.136C412.222 439.022 412.222 438.907 412.222 438.793C412.222 438.679 412.222 438.564 412.222 438.45C412.222 438.336 412.222 438.221 412.222 438.107C412.222 437.993 412.222 437.879 412.222 437.764C412.222 437.65 412.222 437.536 412.222 437.421C412.222 437.307 412.222 437.193 412.222 437.078C412.222 436.964 412.222 436.85 412.222 436.735C412.222 436.621 412.222 436.507 412.222 436.393C412.222 436.278 412.222 436.164 412.222 436.05C412.222 435.935 412.222 435.821 412.222 435.707C412.222 435.592 412.222 435.478 412.222 435.364C412.222 435.249 412.222 435.135 412.222 435.021C412.222 434.906 412.222 434.792 412.222 434.678C412.222 434.564 412.222 434.449 412.222 434.335C412.222 434.221 412.222 434.106 412.222 433.992C412.222 433.878 412.222 433.763 412.222 433.649C412.222 433.535 412.222 433.42 412.222 433.306C412.222 433.192 412.222 433.078 412.222 432.963C412.222 432.849 412.222 432.735 412.222 432.62C412.222 432.506 412.222 432.392 412.222 432.277C412.222 432.163 412.222 432.049 412.222 431.934C412.222 431.82 412.222 431.706 412.222 431.592C412.222 431.477 412.222 431.363 412.222 431.249C412.222 431.134 412.222 431.02 412.222 430.906C412.222 430.791 412.222 430.677 412.222 430.563C412.222 430.448 412.222 430.334 412.222 430.22C412.222 430.105 412.222 429.991 412.222 429.877C412.222 429.763 412.222 429.648 412.222 429.534C412.222 429.42 412.222 429.305 412.222 429.191C412.222 429.077 412.222 428.962 412.222 428.848C412.222 428.734 412.222 428.619 412.222 428.505C412.222 428.391 412.222 428.277 412.222 428.162C412.222 428.048 412.222 427.934 412.222 427.819C412.222 427.705 412.222 427.591 412.222 427.476C412.222 427.362 412.222 427.248 412.222 427.133C412.222 427.019 412.222 426.905 412.222 426.79C412.222 426.676 412.222 426.562 412.222 426.448C412.222 426.333 412.222 426.219 412.222 426.105C412.222 425.99 412.222 425.876 412.222 425.762C412.222 425.647 412.222 425.533 412.222 425.419C412.222 425.304 412.222 425.19 412.222 425.076C412.222 424.962 412.222 424.847 412.222 424.733C412.222 424.619 412.222 424.504 412.222 424.39C412.222 424.276 412.222 424.161 412.222 424.047C412.222 423.933 412.222 423.818 412.222 423.704C412.222 423.59 412.222 423.476 412.222 423.361C412.222 423.247 412.222 423.133 412.222 423.018C412.222 422.904 412.222 422.79 412.222 422.675C412.222 422.561 412.222 422.447 412.222 422.332C412.222 422.218 412.222 422.104 412.222 421.99C412.222 421.875 412.222 421.761 412.222 421.647C412.222 421.532 412.222 421.418 412.222 421.304C412.222 421.189 412.222 421.075 412.222 420.961C412.222 420.846 412.222 420.732 412.222 420.618C412.222 420.503 412.222 420.389 412.222 420.275C412.222 420.161 412.222 420.046 412.222 419.932C412.222 419.818 412.222 419.703 412.222 419.589C412.222 419.475 412.222 419.36 412.222 419.246C412.222 419.132 412.222 419.017 412.222 418.903C412.222 418.789 412.222 418.674 412.222 418.56C412.222 418.446 412.222 418.332 412.222 418.217C412.222 418.103 412.222 417.989 412.222 417.874C412.222 417.76 412.222 417.646 412.222 417.531C412.222 417.417 412.222 417.303 412.222 417.188C412.222 417.074 412.222 416.96 412.222 416.846C412.222 416.731 412.222 416.617 412.222 416.503C412.222 416.388 412.222 416.274 412.222 416.16C412.222 416.045 412.222 415.931 412.222 415.817C412.222 415.702 412.222 415.588 412.222 415.474C412.222 415.36 412.222 415.245 412.222 415.131C412.222 415.017 412.222 414.902 412.222 414.788C412.222 414.674 412.222 414.559 412.222 414.445C412.222 414.331 412.222 414.216 412.222 414.102C412.222 413.988 412.222 413.874 412.222 413.759C412.222 413.645 412.222 413.531 412.222 413.416C412.222 413.302 412.222 413.188 412.222 413.073C412.222 412.959 412.222 412.845 412.222 412.73C412.222 412.616 412.222 412.502 412.222 412.387C412.222 412.273 412.222 412.159 412.222 412.045C412.222 411.93 412.222 411.816 412.222 411.702C412.222 411.587 412.222 411.473 412.222 411.359C412.222 411.244 412.222 411.13 412.222 411.016C412.222 410.901 412.222 410.787 412.222 410.673C412.222 410.559 412.222 410.444 412.222 410.33C412.222 410.216 412.222 410.101 412.222 409.987C412.222 409.873 412.222 409.758 412.222 409.644C412.222 409.53 412.222 409.415 412.222 409.301C412.222 409.187 412.222 409.072 412.222 408.958C412.222 408.844 412.222 408.73 412.222 408.615C412.222 408.501 412.222 408.387 412.222 408.272C412.222 408.158 412.222 408.044 412.222 407.929C412.222 407.815 412.222 407.701 412.222 407.586C412.222 407.472 412.222 407.358 412.222 407.244C412.222 407.129 412.222 407.015 412.222 406.901C412.222 406.786 412.222 406.672 412.222 406.558C412.222 406.443 412.222 406.329 412.222 406.215C412.222 406.1 412.222 405.986 412.222 405.872C412.222 405.758 412.222 405.643 412.222 405.529C412.222 405.415 412.222 405.3 412.222 405.186C412.222 405.072 412.222 404.957 412.222 404.843C412.222 404.729 412.222 404.614 412.222 404.5C412.222 404.386 412.222 404.271 412.222 404.157C412.222 404.043 412.222 403.929 412.222 403.814C412.222 403.7 412.222 403.586 412.222 403.471C412.222 403.357 412.222 403.243 412.222 403.128C412.222 403.014 412.222 402.9 412.222 402.785C412.222 402.671 412.222 402.557 412.222 402.443C412.222 402.328 412.222 402.214 412.222 402.1C412.222 401.985 412.222 401.871 412.222 401.757C412.222 401.642 412.222 401.528 412.222 401.414C412.222 401.299 412.222 401.185 412.222 401.071C412.222 400.957 412.222 400.842 412.222 400.728C412.222 400.614 412.222 400.499 412.222 400.385C412.222 400.271 412.222 400.156 412.222 400.042C412.222 399.928 412.222 399.813 412.222 399.699C412.222 399.585 412.222 399.47 412.222 399.356C412.222 399.242 412.222 399.128 412.222 399.013C412.222 398.899 412.222 398.785 412.222 398.67C412.222 398.556 412.222 398.442 412.222 398.327C412.222 398.213 412.222 398.099 412.222 397.984C412.222 397.87 412.222 397.756 412.222 397.642C412.222 397.527 412.222 397.413 412.222 397.299C412.222 397.184 412.222 397.07 412.222 396.956C412.222 396.841 412.222 396.727 412.222 396.613C412.222 396.498 412.222 396.384 412.222 396.27C412.222 396.155 412.222 396.041 412.222 395.927C412.222 395.813 412.222 395.698 412.222 395.584C412.222 395.47 412.222 395.355 412.222 395.241C412.222 395.127 412.222 395.012 412.222 394.898C412.222 394.784 412.222 394.669 412.222 394.555C412.222 394.441 412.222 394.327 412.222 394.212C412.222 394.098 412.222 393.984 412.222 393.869C412.222 393.755 412.222 393.641 412.222 393.526C412.222 393.412 412.222 393.298 412.222 393.183C412.222 393.069 412.222 392.955 412.222 392.841C412.222 392.726 412.222 392.612 412.222 392.498C412.222 392.383 412.222 392.269 412.222 392.155C412.222 392.04 412.222 391.926 412.222 391.812C412.222 391.697 412.222 391.583 412.222 391.469C412.222 391.354 412.222 391.24 412.222 391.126C412.222 391.012 412.222 390.897 412.222 390.783C412.222 390.669 412.222 390.554 412.222 390.44C412.222 390.326 412.222 390.211 412.222 390.097C412.222 389.983 412.222 389.868 412.222 389.754C412.222 389.64 412.222 389.526 412.222 389.411C412.222 389.297 412.222 389.183 412.222 389.068C412.222 388.954 412.222 388.84 412.222 388.725C412.222 388.611 412.222 388.497 412.222 388.382C412.222 388.268 412.222 388.154 412.222 388.039C412.222 387.925 412.222 387.811 412.222 387.697C412.222 387.582 412.222 387.468 412.222 387.354C412.222 387.239 412.222 387.125 412.222 387.011C412.222 386.896 412.222 386.782 412.222 386.668C412.222 386.553 412.222 386.439 412.222 386.325C412.222 386.211 412.222 386.096 412.222 385.982C412.222 385.868 412.222 385.753 412.222 385.639C412.222 385.525 412.222 385.41 412.222 385.296C412.222 385.182 412.222 385.067 412.222 384.953C412.222 384.839 412.222 384.725 412.222 384.61C412.222 384.496 412.222 384.382 412.222 384.267C412.222 384.153 412.222 384.039 412.222 383.924C412.222 383.81 412.222 383.696 412.222 383.581C412.222 383.467 412.222 383.353 412.222 383.238C412.222 383.124 412.222 383.01 412.222 382.896C412.222 382.781 412.222 382.667 412.222 382.553C412.222 382.438 412.222 382.324 412.222 382.21C412.222 382.095 412.222 381.981 412.222 381.867C412.222 381.752 412.222 381.638 412.222 381.524C412.222 381.41 412.222 381.295 412.222 381.181C412.222 381.067 412.222 380.952 412.222 380.838C412.222 380.724 412.222 380.609 412.222 380.495C412.222 380.381 412.222 380.266 412.222 380.152C412.222 380.038 412.222 379.923 412.222 379.809C412.222 379.695 412.222 379.581 412.222 379.466C412.222 379.352 412.222 379.238 412.222 379.123C412.222 379.009 412.222 378.895 412.222 378.78C412.222 378.666 412.222 378.552 412.222 378.437C412.222 378.323 412.222 378.209 412.222 378.095C412.222 377.98 412.222 377.866 412.222 377.752C412.222 377.637 412.222 377.523 412.222 377.409C412.222 377.294 412.222 377.18 412.222 377.066C412.222 376.951 412.222 376.837 412.222 376.723C412.222 376.609 412.222 376.494 412.222 376.38C412.222 376.266 412.222 376.151 412.222 376.037C412.222 375.923 412.222 375.808 412.222 375.694C412.222 375.58 412.222 375.465 412.222 375.351C412.222 375.237 412.222 375.122 412.222 375.008C412.222 374.894 412.222 374.78 412.222 374.665C412.222 374.551 412.222 374.437 412.222 374.322C412.222 374.208 412.222 374.094 412.222 373.979C412.222 373.865 412.222 373.751 412.222 373.636C412.222 373.522 412.222 373.408 412.222 373.294C412.222 373.179 412.222 373.065 412.222 372.951C412.222 372.836 412.222 372.722 412.222 372.608C412.222 372.493 412.222 372.379 412.222 372.265C412.222 372.15 412.222 372.036 412.222 371.922C412.222 371.807 412.222 371.693 412.222 371.579C412.222 371.465 412.222 371.35 412.222 371.236C412.222 371.122 412.222 371.007 412.222 370.893C412.222 370.779 412.222 370.664 412.222 370.55C412.222 370.436 412.222 370.321 412.222 370.207C412.222 370.093 412.222 369.979 412.222 369.864C412.222 369.75 412.222 369.636 412.222 369.521C412.222 369.407 412.222 369.293 412.222 369.178C412.222 369.064 412.222 368.95 412.222 368.835C412.222 368.721 412.222 368.607 412.222 368.493C412.222 368.378 412.222 368.264 412.222 368.15C412.222 368.035 412.222 367.921 412.222 367.807C412.222 367.692 412.222 367.578 412.222 367.464C412.222 367.349 412.222 367.235 412.222 367.121C412.222 367.007 412.222 366.892 412.222 366.778C412.222 366.664 412.222 366.549 412.222 366.435C412.222 366.321 412.222 366.206 412.222 366.092C412.222 365.978 412.222 365.863 412.222 365.749C412.222 365.635 412.222 365.52 412.222 365.406C412.222 365.292 412.222 365.178 412.222 365.063C412.222 364.949 412.222 364.835 412.222 364.72C412.222 364.606 412.222 364.492 412.222 364.377C412.222 364.263 412.222 364.149 412.222 364.034C412.222 363.92 412.222 363.806 412.222 363.692C412.222 363.577 412.222 363.463 412.222 363.349C412.222 363.234 412.222 363.12 412.222 363.006C412.222 362.891 412.222 362.777 412.222 362.663C412.222 362.548 412.222 362.434 412.222 362.32C412.222 362.205 412.222 362.091 412.222 361.977C412.222 361.863 412.222 361.748 412.222 361.634C412.222 361.52 412.222 361.405 412.222 361.291C412.222 361.177 412.222 361.062 412.222 360.948C412.222 360.834 412.222 360.719 412.222 360.605C412.222 360.491 412.222 360.377 412.222 360.262C412.222 360.148 412.222 360.034 412.222 359.919C412.222 359.805 412.222 359.691 412.222 359.576C412.222 359.462 412.222 359.348 412.222 359.233C412.222 359.119 412.222 359.005 412.222 358.891C412.222 358.776 412.222 358.662 412.222 358.548C412.222 358.433 412.222 358.319 412.222 358.205C412.222 358.09 412.222 357.976 412.222 357.862C412.222 357.747 412.222 357.633 412.222 357.519C412.222 357.404 412.222 357.29 412.222 357.176C412.222 357.062 412.222 356.947 412.222 356.833C412.222 356.719 412.222 356.604 412.222 356.49C412.222 356.376 412.222 356.261 412.222 356.147C412.222 356.033 412.222 355.918 412.222 355.804C412.222 355.69 412.222 355.576 412.222 355.461C412.222 355.347 412.222 355.233 412.222 355.118C412.222 355.004 412.222 354.89 412.222 354.775C412.222 354.661 412.222 354.547 412.222 354.432C412.222 354.318 412.222 354.204 412.222 354.09C412.222 353.975 412.222 353.861 412.222 353.747C412.222 353.632 412.222 353.518 412.222 353.404C412.222 353.289 412.222 353.175 412.222 353.061C412.222 352.946 412.222 352.832 412.222 352.718C412.222 352.603 412.222 352.489 412.222 352.375C412.222 352.261 412.222 352.146 412.222 352.032C412.222 351.918 412.222 351.803 412.222 351.689C412.222 351.575 412.222 351.46 412.222 351.346C412.222 351.232 412.222 351.117 412.222 351.003C412.222 350.889 412.222 350.775 412.222 350.66C412.222 350.546 412.222 350.432 412.222 350.317C412.222 350.203 412.222 350.089 412.222 349.974C412.222 349.86 412.222 349.746 412.222 349.631C412.222 349.517 412.222 349.403 412.222 349.288C412.222 349.174 412.222 349.06 412.222 348.946C412.222 348.831 412.222 348.717 412.222 348.603C412.222 348.488 412.222 348.374 412.222 348.26C412.222 348.145 412.222 348.031 412.222 347.917C412.222 347.802 412.222 347.688 412.222 347.574C412.222 347.46 412.222 347.345 412.222 347.231C412.222 347.117 412.222 347.002 412.222 346.888C412.222 346.774 412.222 346.659 412.222 346.545C412.222 346.431 412.222 346.316 412.222 346.202C412.222 346.088 412.222 345.974 412.222 345.859C412.222 345.745 412.222 345.631 412.222 345.516C412.222 345.402 412.222 345.288 412.222 345.173C412.222 345.059 412.222 344.945 412.222 344.83C412.222 344.716 412.222 344.602 412.222 344.487C412.222 344.373 412.222 344.259 412.222 344.145C412.222 344.03 412.222 343.916 412.222 343.802C412.222 343.687 412.222 343.573 412.222 343.459C412.222 343.344 412.222 343.23 412.222 343.116C412.222 343.001 412.222 342.887 412.222 342.773C412.222 342.659 412.222 342.544 412.222 342.43C412.222 342.316 412.222 342.201 412.222 342.087C412.222 341.973 412.222 341.858 412.222 341.744C412.222 341.63 412.222 341.515 412.222 341.401C412.222 341.287 412.222 341.172 412.222 341.058C412.222 340.944 412.222 340.83 412.222 340.715C412.222 340.601 412.222 340.487 412.222 340.372C412.222 340.258 412.222 340.144 412.222 340.029C412.222 339.915 412.222 339.801 412.222 339.686C412.222 339.572 412.222 339.458 412.222 339.344C412.222 339.229 412.222 339.115 412.222 339.001C412.222 338.886 412.222 338.772 412.222 338.658C412.222 338.543 412.222 338.429 412.222 338.315C412.222 338.2 412.222 338.086 412.222 337.972C412.222 337.858 412.222 337.743 412.222 337.629C412.222 337.515 412.222 337.4 412.222 337.286C412.222 337.172 412.222 337.057 412.222 336.943C412.222 336.829 412.222 336.714 412.222 336.6H414.222C414.222 336.714 414.222 336.829 414.222 336.943C414.222 337.057 414.222 337.172 414.222 337.286C414.222 337.4 414.222 337.515 414.222 337.629C414.222 337.743 414.222 337.858 414.222 337.972C414.222 338.086 414.222 338.2 414.222 338.315C414.222 338.429 414.222 338.543 414.222 338.658C414.222 338.772 414.222 338.886 414.222 339.001C414.222 339.115 414.222 339.229 414.222 339.344C414.222 339.458 414.222 339.572 414.222 339.686C414.222 339.801 414.222 339.915 414.222 340.029C414.222 340.144 414.222 340.258 414.222 340.372C414.222 340.487 414.222 340.601 414.222 340.715C414.222 340.83 414.222 340.944 414.222 341.058C414.222 341.172 414.222 341.287 414.222 341.401C414.222 341.515 414.222 341.63 414.222 341.744C414.222 341.858 414.222 341.973 414.222 342.087C414.222 342.201 414.222 342.316 414.222 342.43C414.222 342.544 414.222 342.659 414.222 342.773C414.222 342.887 414.222 343.001 414.222 343.116C414.222 343.23 414.222 343.344 414.222 343.459C414.222 343.573 414.222 343.687 414.222 343.802C414.222 343.916 414.222 344.03 414.222 344.145C414.222 344.259 414.222 344.373 414.222 344.487C414.222 344.602 414.222 344.716 414.222 344.83C414.222 344.945 414.222 345.059 414.222 345.173C414.222 345.288 414.222 345.402 414.222 345.516C414.222 345.631 414.222 345.745 414.222 345.859C414.222 345.974 414.222 346.088 414.222 346.202C414.222 346.316 414.222 346.431 414.222 346.545C414.222 346.659 414.222 346.774 414.222 346.888C414.222 347.002 414.222 347.117 414.222 347.231C414.222 347.345 414.222 347.46 414.222 347.574C414.222 347.688 414.222 347.802 414.222 347.917C414.222 348.031 414.222 348.145 414.222 348.26C414.222 348.374 414.222 348.488 414.222 348.603C414.222 348.717 414.222 348.831 414.222 348.946C414.222 349.06 414.222 349.174 414.222 349.288C414.222 349.403 414.222 349.517 414.222 349.631C414.222 349.746 414.222 349.86 414.222 349.974C414.222 350.089 414.222 350.203 414.222 350.317C414.222 350.432 414.222 350.546 414.222 350.66C414.222 350.775 414.222 350.889 414.222 351.003C414.222 351.117 414.222 351.232 414.222 351.346C414.222 351.46 414.222 351.575 414.222 351.689C414.222 351.803 414.222 351.918 414.222 352.032C414.222 352.146 414.222 352.261 414.222 352.375C414.222 352.489 414.222 352.603 414.222 352.718C414.222 352.832 414.222 352.946 414.222 353.061C414.222 353.175 414.222 353.289 414.222 353.404C414.222 353.518 414.222 353.632 414.222 353.747C414.222 353.861 414.222 353.975 414.222 354.09C414.222 354.204 414.222 354.318 414.222 354.432C414.222 354.547 414.222 354.661 414.222 354.775C414.222 354.89 414.222 355.004 414.222 355.118C414.222 355.233 414.222 355.347 414.222 355.461C414.222 355.576 414.222 355.69 414.222 355.804C414.222 355.918 414.222 356.033 414.222 356.147C414.222 356.261 414.222 356.376 414.222 356.49C414.222 356.604 414.222 356.719 414.222 356.833C414.222 356.947 414.222 357.062 414.222 357.176C414.222 357.29 414.222 357.404 414.222 357.519C414.222 357.633 414.222 357.747 414.222 357.862C414.222 357.976 414.222 358.09 414.222 358.205C414.222 358.319 414.222 358.433 414.222 358.548C414.222 358.662 414.222 358.776 414.222 358.891C414.222 359.005 414.222 359.119 414.222 359.233C414.222 359.348 414.222 359.462 414.222 359.576C414.222 359.691 414.222 359.805 414.222 359.919C414.222 360.034 414.222 360.148 414.222 360.262C414.222 360.377 414.222 360.491 414.222 360.605C414.222 360.719 414.222 360.834 414.222 360.948C414.222 361.062 414.222 361.177 414.222 361.291C414.222 361.405 414.222 361.52 414.222 361.634C414.222 361.748 414.222 361.863 414.222 361.977C414.222 362.091 414.222 362.205 414.222 362.32C414.222 362.434 414.222 362.548 414.222 362.663C414.222 362.777 414.222 362.891 414.222 363.006C414.222 363.12 414.222 363.234 414.222 363.349C414.222 363.463 414.222 363.577 414.222 363.692C414.222 363.806 414.222 363.92 414.222 364.034C414.222 364.149 414.222 364.263 414.222 364.377C414.222 364.492 414.222 364.606 414.222 364.72C414.222 364.835 414.222 364.949 414.222 365.063C414.222 365.178 414.222 365.292 414.222 365.406C414.222 365.52 414.222 365.635 414.222 365.749C414.222 365.863 414.222 365.978 414.222 366.092C414.222 366.206 414.222 366.321 414.222 366.435C414.222 366.549 414.222 366.664 414.222 366.778C414.222 366.892 414.222 367.007 414.222 367.121C414.222 367.235 414.222 367.349 414.222 367.464C414.222 367.578 414.222 367.692 414.222 367.807C414.222 367.921 414.222 368.035 414.222 368.15C414.222 368.264 414.222 368.378 414.222 368.493C414.222 368.607 414.222 368.721 414.222 368.835C414.222 368.95 414.222 369.064 414.222 369.178C414.222 369.293 414.222 369.407 414.222 369.521C414.222 369.636 414.222 369.75 414.222 369.864C414.222 369.979 414.222 370.093 414.222 370.207C414.222 370.321 414.222 370.436 414.222 370.55C414.222 370.664 414.222 370.779 414.222 370.893C414.222 371.007 414.222 371.122 414.222 371.236C414.222 371.35 414.222 371.465 414.222 371.579C414.222 371.693 414.222 371.807 414.222 371.922C414.222 372.036 414.222 372.15 414.222 372.265C414.222 372.379 414.222 372.493 414.222 372.608C414.222 372.722 414.222 372.836 414.222 372.951C414.222 373.065 414.222 373.179 414.222 373.294C414.222 373.408 414.222 373.522 414.222 373.636C414.222 373.751 414.222 373.865 414.222 373.979C414.222 374.094 414.222 374.208 414.222 374.322C414.222 374.437 414.222 374.551 414.222 374.665C414.222 374.78 414.222 374.894 414.222 375.008C414.222 375.122 414.222 375.237 414.222 375.351C414.222 375.465 414.222 375.58 414.222 375.694C414.222 375.808 414.222 375.923 414.222 376.037C414.222 376.151 414.222 376.266 414.222 376.38C414.222 376.494 414.222 376.609 414.222 376.723C414.222 376.837 414.222 376.951 414.222 377.066C414.222 377.18 414.222 377.294 414.222 377.409C414.222 377.523 414.222 377.637 414.222 377.752C414.222 377.866 414.222 377.98 414.222 378.095C414.222 378.209 414.222 378.323 414.222 378.437C414.222 378.552 414.222 378.666 414.222 378.78C414.222 378.895 414.222 379.009 414.222 379.123C414.222 379.238 414.222 379.352 414.222 379.466C414.222 379.581 414.222 379.695 414.222 379.809C414.222 379.923 414.222 380.038 414.222 380.152C414.222 380.266 414.222 380.381 414.222 380.495C414.222 380.609 414.222 380.724 414.222 380.838C414.222 380.952 414.222 381.067 414.222 381.181C414.222 381.295 414.222 381.41 414.222 381.524C414.222 381.638 414.222 381.752 414.222 381.867C414.222 381.981 414.222 382.095 414.222 382.21C414.222 382.324 414.222 382.438 414.222 382.553C414.222 382.667 414.222 382.781 414.222 382.896C414.222 383.01 414.222 383.124 414.222 383.238C414.222 383.353 414.222 383.467 414.222 383.581C414.222 383.696 414.222 383.81 414.222 383.924C414.222 384.039 414.222 384.153 414.222 384.267C414.222 384.382 414.222 384.496 414.222 384.61C414.222 384.725 414.222 384.839 414.222 384.953C414.222 385.067 414.222 385.182 414.222 385.296C414.222 385.41 414.222 385.525 414.222 385.639C414.222 385.753 414.222 385.868 414.222 385.982C414.222 386.096 414.222 386.211 414.222 386.325C414.222 386.439 414.222 386.553 414.222 386.668C414.222 386.782 414.222 386.896 414.222 387.011C414.222 387.125 414.222 387.239 414.222 387.354C414.222 387.468 414.222 387.582 414.222 387.697C414.222 387.811 414.222 387.925 414.222 388.039C414.222 388.154 414.222 388.268 414.222 388.382C414.222 388.497 414.222 388.611 414.222 388.725C414.222 388.84 414.222 388.954 414.222 389.068C414.222 389.183 414.222 389.297 414.222 389.411C414.222 389.526 414.222 389.64 414.222 389.754C414.222 389.868 414.222 389.983 414.222 390.097C414.222 390.211 414.222 390.326 414.222 390.44C414.222 390.554 414.222 390.669 414.222 390.783C414.222 390.897 414.222 391.012 414.222 391.126C414.222 391.24 414.222 391.354 414.222 391.469C414.222 391.583 414.222 391.697 414.222 391.812C414.222 391.926 414.222 392.04 414.222 392.155C414.222 392.269 414.222 392.383 414.222 392.498C414.222 392.612 414.222 392.726 414.222 392.841C414.222 392.955 414.222 393.069 414.222 393.183C414.222 393.298 414.222 393.412 414.222 393.526C414.222 393.641 414.222 393.755 414.222 393.869C414.222 393.984 414.222 394.098 414.222 394.212C414.222 394.327 414.222 394.441 414.222 394.555C414.222 394.669 414.222 394.784 414.222 394.898C414.222 395.012 414.222 395.127 414.222 395.241C414.222 395.355 414.222 395.47 414.222 395.584C414.222 395.698 414.222 395.813 414.222 395.927C414.222 396.041 414.222 396.155 414.222 396.27C414.222 396.384 414.222 396.498 414.222 396.613C414.222 396.727 414.222 396.841 414.222 396.956C414.222 397.07 414.222 397.184 414.222 397.299C414.222 397.413 414.222 397.527 414.222 397.642C414.222 397.756 414.222 397.87 414.222 397.984C414.222 398.099 414.222 398.213 414.222 398.327C414.222 398.442 414.222 398.556 414.222 398.67C414.222 398.785 414.222 398.899 414.222 399.013C414.222 399.128 414.222 399.242 414.222 399.356C414.222 399.47 414.222 399.585 414.222 399.699C414.222 399.813 414.222 399.928 414.222 400.042C414.222 400.156 414.222 400.271 414.222 400.385C414.222 400.499 414.222 400.614 414.222 400.728C414.222 400.842 414.222 400.957 414.222 401.071C414.222 401.185 414.222 401.299 414.222 401.414C414.222 401.528 414.222 401.642 414.222 401.757C414.222 401.871 414.222 401.985 414.222 402.1C414.222 402.214 414.222 402.328 414.222 402.443C414.222 402.557 414.222 402.671 414.222 402.785C414.222 402.9 414.222 403.014 414.222 403.128C414.222 403.243 414.222 403.357 414.222 403.471C414.222 403.586 414.222 403.7 414.222 403.814C414.222 403.929 414.222 404.043 414.222 404.157C414.222 404.271 414.222 404.386 414.222 404.5C414.222 404.614 414.222 404.729 414.222 404.843C414.222 404.957 414.222 405.072 414.222 405.186C414.222 405.3 414.222 405.415 414.222 405.529C414.222 405.643 414.222 405.758 414.222 405.872C414.222 405.986 414.222 406.1 414.222 406.215C414.222 406.329 414.222 406.443 414.222 406.558C414.222 406.672 414.222 406.786 414.222 406.901C414.222 407.015 414.222 407.129 414.222 407.244C414.222 407.358 414.222 407.472 414.222 407.586C414.222 407.701 414.222 407.815 414.222 407.929C414.222 408.044 414.222 408.158 414.222 408.272C414.222 408.387 414.222 408.501 414.222 408.615C414.222 408.73 414.222 408.844 414.222 408.958C414.222 409.072 414.222 409.187 414.222 409.301C414.222 409.415 414.222 409.53 414.222 409.644C414.222 409.758 414.222 409.873 414.222 409.987C414.222 410.101 414.222 410.216 414.222 410.33C414.222 410.444 414.222 410.559 414.222 410.673C414.222 410.787 414.222 410.901 414.222 411.016C414.222 411.13 414.222 411.244 414.222 411.359C414.222 411.473 414.222 411.587 414.222 411.702C414.222 411.816 414.222 411.93 414.222 412.045C414.222 412.159 414.222 412.273 414.222 412.387C414.222 412.502 414.222 412.616 414.222 412.73C414.222 412.845 414.222 412.959 414.222 413.073C414.222 413.188 414.222 413.302 414.222 413.416C414.222 413.531 414.222 413.645 414.222 413.759C414.222 413.874 414.222 413.988 414.222 414.102C414.222 414.216 414.222 414.331 414.222 414.445C414.222 414.559 414.222 414.674 414.222 414.788C414.222 414.902 414.222 415.017 414.222 415.131C414.222 415.245 414.222 415.36 414.222 415.474C414.222 415.588 414.222 415.702 414.222 415.817C414.222 415.931 414.222 416.045 414.222 416.16C414.222 416.274 414.222 416.388 414.222 416.503C414.222 416.617 414.222 416.731 414.222 416.846C414.222 416.96 414.222 417.074 414.222 417.188C414.222 417.303 414.222 417.417 414.222 417.531C414.222 417.646 414.222 417.76 414.222 417.874C414.222 417.989 414.222 418.103 414.222 418.217C414.222 418.332 414.222 418.446 414.222 418.56C414.222 418.674 414.222 418.789 414.222 418.903C414.222 419.017 414.222 419.132 414.222 419.246C414.222 419.36 414.222 419.475 414.222 419.589C414.222 419.703 414.222 419.818 414.222 419.932C414.222 420.046 414.222 420.161 414.222 420.275C414.222 420.389 414.222 420.503 414.222 420.618C414.222 420.732 414.222 420.846 414.222 420.961C414.222 421.075 414.222 421.189 414.222 421.304C414.222 421.418 414.222 421.532 414.222 421.647C414.222 421.761 414.222 421.875 414.222 421.99C414.222 422.104 414.222 422.218 414.222 422.332C414.222 422.447 414.222 422.561 414.222 422.675C414.222 422.79 414.222 422.904 414.222 423.018C414.222 423.133 414.222 423.247 414.222 423.361C414.222 423.476 414.222 423.59 414.222 423.704C414.222 423.818 414.222 423.933 414.222 424.047C414.222 424.161 414.222 424.276 414.222 424.39C414.222 424.504 414.222 424.619 414.222 424.733C414.222 424.847 414.222 424.962 414.222 425.076C414.222 425.19 414.222 425.304 414.222 425.419C414.222 425.533 414.222 425.647 414.222 425.762C414.222 425.876 414.222 425.99 414.222 426.105C414.222 426.219 414.222 426.333 414.222 426.448C414.222 426.562 414.222 426.676 414.222 426.79C414.222 426.905 414.222 427.019 414.222 427.133C414.222 427.248 414.222 427.362 414.222 427.476C414.222 427.591 414.222 427.705 414.222 427.819C414.222 427.934 414.222 428.048 414.222 428.162C414.222 428.277 414.222 428.391 414.222 428.505C414.222 428.619 414.222 428.734 414.222 428.848C414.222 428.962 414.222 429.077 414.222 429.191C414.222 429.305 414.222 429.42 414.222 429.534C414.222 429.648 414.222 429.763 414.222 429.877C414.222 429.991 414.222 430.105 414.222 430.22C414.222 430.334 414.222 430.448 414.222 430.563C414.222 430.677 414.222 430.791 414.222 430.906C414.222 431.02 414.222 431.134 414.222 431.249C414.222 431.363 414.222 431.477 414.222 431.592C414.222 431.706 414.222 431.82 414.222 431.934C414.222 432.049 414.222 432.163 414.222 432.277C414.222 432.392 414.222 432.506 414.222 432.62C414.222 432.735 414.222 432.849 414.222 432.963C414.222 433.078 414.222 433.192 414.222 433.306C414.222 433.42 414.222 433.535 414.222 433.649C414.222 433.763 414.222 433.878 414.222 433.992C414.222 434.106 414.222 434.221 414.222 434.335C414.222 434.449 414.222 434.564 414.222 434.678C414.222 434.792 414.222 434.906 414.222 435.021C414.222 435.135 414.222 435.249 414.222 435.364C414.222 435.478 414.222 435.592 414.222 435.707C414.222 435.821 414.222 435.935 414.222 436.05C414.222 436.164 414.222 436.278 414.222 436.393C414.222 436.507 414.222 436.621 414.222 436.735C414.222 436.85 414.222 436.964 414.222 437.078C414.222 437.193 414.222 437.307 414.222 437.421C414.222 437.536 414.222 437.65 414.222 437.764C414.222 437.879 414.222 437.993 414.222 438.107C414.222 438.221 414.222 438.336 414.222 438.45C414.222 438.564 414.222 438.679 414.222 438.793C414.222 438.907 414.222 439.022 414.222 439.136C414.222 439.25 414.222 439.365 414.222 439.479C414.222 439.593 414.222 439.708 414.222 439.822C414.222 439.936 414.222 440.05 414.222 440.165C414.222 440.279 414.222 440.393 414.222 440.508C414.222 440.622 414.222 440.736 414.222 440.851C414.222 440.965 414.222 441.079 414.222 441.194C414.222 441.308 414.222 441.422 414.222 441.536C414.222 441.651 414.222 441.765 414.222 441.879C414.222 441.994 414.222 442.108 414.222 442.222C414.222 442.337 414.222 442.451 414.222 442.565C414.222 442.68 414.222 442.794 414.222 442.908C414.222 443.022 414.222 443.137 414.222 443.251C414.222 443.365 414.222 443.48 414.222 443.594C414.222 443.708 414.222 443.823 414.222 443.937C414.222 444.051 414.222 444.166 414.222 444.28C414.222 444.394 414.222 444.509 414.222 444.623C414.222 444.737 414.222 444.851 414.222 444.966C414.222 445.08 414.222 445.194 414.222 445.309C414.222 445.423 414.222 445.537 414.222 445.652C414.222 445.766 414.222 445.88 414.222 445.995C414.222 446.109 414.222 446.223 414.222 446.337C414.222 446.452 414.222 446.566 414.222 446.68C414.222 446.795 414.222 446.909 414.222 447.023C414.222 447.138 414.222 447.252 414.222 447.366C414.222 447.481 414.222 447.595 414.222 447.709C414.222 447.824 414.222 447.938 414.222 448.052C414.222 448.166 414.222 448.281 414.222 448.395C414.222 448.509 414.222 448.624 414.222 448.738C414.222 448.852 414.222 448.967 414.222 449.081C414.222 449.195 414.222 449.31 414.222 449.424C414.222 449.538 414.222 449.652 414.222 449.767C414.222 449.881 414.222 449.995 414.222 450.11C414.222 450.224 414.222 450.338 414.222 450.453C414.222 450.567 414.222 450.681 414.222 450.796C414.222 450.91 414.222 451.024 414.222 451.138C414.222 451.253 414.222 451.367 414.222 451.481C414.222 451.596 414.222 451.71 414.222 451.824C414.222 451.939 414.222 452.053 414.222 452.167C414.222 452.282 414.222 452.396 414.222 452.51C414.222 452.625 414.222 452.739 414.222 452.853C414.222 452.967 414.222 453.082 414.222 453.196C414.222 453.31 414.222 453.425 414.222 453.539C414.222 453.653 414.222 453.768 414.222 453.882C414.222 453.996 414.222 454.111 414.222 454.225C414.222 454.339 414.222 454.453 414.222 454.568C414.222 454.682 414.222 454.796 414.222 454.911C414.222 455.025 414.222 455.139 414.222 455.254C414.222 455.368 414.222 455.482 414.222 455.597C414.222 455.711 414.222 455.825 414.222 455.939C414.222 456.054 414.222 456.168 414.222 456.282C414.222 456.397 414.222 456.511 414.222 456.625C414.222 456.74 414.222 456.854 414.222 456.968C414.222 457.083 414.222 457.197 414.222 457.311C414.222 457.426 414.222 457.54 414.222 457.654C414.222 457.768 414.222 457.883 414.222 457.997C414.222 458.111 414.222 458.226 414.222 458.34C414.222 458.454 414.222 458.569 414.222 458.683C414.222 458.797 414.222 458.912 414.222 459.026C414.222 459.14 414.222 459.254 414.222 459.369C414.222 459.483 414.222 459.597 414.222 459.712C414.222 459.826 414.222 459.94 414.222 460.055C414.222 460.169 414.222 460.283 414.222 460.398C414.222 460.512 414.222 460.626 414.222 460.741C414.222 460.855 414.222 460.969 414.222 461.083C414.222 461.198 414.222 461.312 414.222 461.426C414.222 461.541 414.222 461.655 414.222 461.769C414.222 461.884 414.222 461.998 414.222 462.112C414.222 462.227 414.222 462.341 414.222 462.455C414.222 462.569 414.222 462.684 414.222 462.798C414.222 462.912 414.222 463.027 414.222 463.141C414.222 463.255 414.222 463.37 414.222 463.484C414.222 463.598 414.222 463.713 414.222 463.827C414.222 463.941 414.222 464.055 414.222 464.17C414.222 464.284 414.222 464.398 414.222 464.513C414.222 464.627 414.222 464.741 414.222 464.856C414.222 464.97 414.222 465.084 414.222 465.199C414.222 465.313 414.222 465.427 414.222 465.542C414.222 465.656 414.222 465.77 414.222 465.884C414.222 465.999 414.222 466.113 414.222 466.227C414.222 466.342 414.222 466.456 414.222 466.57C414.222 466.685 414.222 466.799 414.222 466.913C414.222 467.028 414.222 467.142 414.222 467.256C414.222 467.37 414.222 467.485 414.222 467.599C414.222 467.713 414.222 467.828 414.222 467.942C414.222 468.056 414.222 468.171 414.222 468.285C414.222 468.399 414.222 468.514 414.222 468.628C414.222 468.742 414.222 468.857 414.222 468.971C414.222 469.085 414.222 469.199 414.222 469.314C414.222 469.428 414.222 469.542 414.222 469.657C414.222 469.771 414.222 469.885 414.222 470C414.222 470.114 414.222 470.228 414.222 470.343C414.222 470.457 414.222 470.571 414.222 470.685C414.222 470.8 414.222 470.914 414.222 471.028C414.222 471.143 414.222 471.257 414.222 471.371C414.222 471.486 414.222 471.6 414.222 471.714C414.222 471.829 414.222 471.943 414.222 472.057C414.222 472.171 414.222 472.286 414.222 472.4C414.222 472.514 414.222 472.629 414.222 472.743C414.222 472.857 414.222 472.972 414.222 473.086C414.222 473.2 414.222 473.315 414.222 473.429C414.222 473.543 414.222 473.658 414.222 473.772C414.222 473.886 414.222 474 414.222 474.115C414.222 474.229 414.222 474.343 414.222 474.458C414.222 474.572 414.222 474.686 414.222 474.801C414.222 474.915 414.222 475.029 414.222 475.144C414.222 475.258 414.222 475.372 414.222 475.486C414.222 475.601 414.222 475.715 414.222 475.829C414.222 475.944 414.222 476.058 414.222 476.172C414.222 476.287 414.222 476.401 414.222 476.515C414.222 476.63 414.222 476.744 414.222 476.858C414.222 476.973 414.222 477.087 414.222 477.201C414.222 477.315 414.222 477.43 414.222 477.544C414.222 477.658 414.222 477.773 414.222 477.887C414.222 478.001 414.222 478.116 414.222 478.23C414.222 478.344 414.222 478.459 414.222 478.573C414.222 478.687 414.222 478.801 414.222 478.916C414.222 479.03 414.222 479.144 414.222 479.259C414.222 479.373 414.222 479.487 414.222 479.602C414.222 479.716 414.222 479.83 414.222 479.945C414.222 480.059 414.222 480.173 414.222 480.287C414.222 480.402 414.222 480.516 414.222 480.63C414.222 480.745 414.222 480.859 414.222 480.973C414.222 481.088 414.222 481.202 414.222 481.316C414.222 481.431 414.222 481.545 414.222 481.659C414.222 481.773 414.222 481.888 414.222 482.002C414.222 482.116 414.222 482.231 414.222 482.345C414.222 482.459 414.222 482.574 414.222 482.688C414.222 482.802 414.222 482.917 414.222 483.031C414.222 483.145 414.222 483.26 414.222 483.374C414.222 483.488 414.222 483.602 414.222 483.717C414.222 483.831 414.222 483.945 414.222 484.06C414.222 484.174 414.222 484.288 414.222 484.403C414.222 484.517 414.222 484.631 414.222 484.746C414.222 484.86 414.222 484.974 414.222 485.089C414.222 485.203 414.222 485.317 414.222 485.431C414.222 485.546 414.222 485.66 414.222 485.774C414.222 485.889 414.222 486.003 414.222 486.117C414.222 486.232 414.222 486.346 414.222 486.46C414.222 486.575 414.222 486.689 414.222 486.803C414.222 486.917 414.222 487.032 414.222 487.146C414.222 487.26 414.222 487.375 414.222 487.489C414.222 487.603 414.222 487.718 414.222 487.832C414.222 487.946 414.222 488.061 414.222 488.175C414.222 488.289 414.222 488.403 414.222 488.518C414.222 488.632 414.222 488.746 414.222 488.861C414.222 488.975 414.222 489.089 414.222 489.204C414.222 489.318 414.222 489.432 414.222 489.547C414.222 489.661 414.222 489.775 414.222 489.889C414.222 490.004 414.222 490.118 414.222 490.232C414.222 490.347 414.222 490.461 414.222 490.575C414.222 490.69 414.222 490.804 414.222 490.918C414.222 491.033 414.222 491.147 414.222 491.261C414.222 491.376 414.222 491.49 414.222 491.604C414.222 491.718 414.222 491.833 414.222 491.947C414.222 492.061 414.222 492.176 414.222 492.29C414.222 492.404 414.222 492.519 414.222 492.633C414.222 492.747 414.222 492.862 414.222 492.976C414.222 493.09 414.222 493.204 414.222 493.319C414.222 493.433 414.222 493.547 414.222 493.662C414.222 493.776 414.222 493.89 414.222 494.005C414.222 494.119 414.222 494.233 414.222 494.348C414.222 494.462 414.222 494.576 414.222 494.691C414.222 494.805 414.222 494.919 414.222 495.033C414.222 495.148 414.222 495.262 414.222 495.376C414.222 495.491 414.222 495.605 414.222 495.719C414.222 495.834 414.222 495.948 414.222 496.062C414.222 496.177 414.222 496.291 414.222 496.405C414.222 496.519 414.222 496.634 414.222 496.748C414.222 496.862 414.222 496.977 414.222 497.091C414.222 497.205 414.222 497.32 414.222 497.434C414.222 497.548 414.222 497.663 414.222 497.777C414.222 497.891 414.222 498.005 414.222 498.12C414.222 498.234 414.222 498.348 414.222 498.463C414.222 498.577 414.222 498.691 414.222 498.806C414.222 498.92 414.222 499.034 414.222 499.149C414.222 499.263 414.222 499.377 414.222 499.492C414.222 499.606 414.222 499.72 414.222 499.834C414.222 499.949 414.222 500.063 414.222 500.177C414.222 500.292 414.222 500.406 414.222 500.52C414.222 500.635 414.222 500.749 414.222 500.863C414.222 500.978 414.222 501.092 414.222 501.206C414.222 501.32 414.222 501.435 414.222 501.549C414.222 501.663 414.222 501.778 414.222 501.892C414.222 502.006 414.222 502.121 414.222 502.235C414.222 502.349 414.222 502.464 414.222 502.578C414.222 502.692 414.222 502.807 414.222 502.921C414.222 503.035 414.222 503.149 414.222 503.264C414.222 503.378 414.222 503.492 414.222 503.607C414.222 503.721 414.222 503.835 414.222 503.95C414.222 504.064 414.222 504.178 414.222 504.293C414.222 504.407 414.222 504.521 414.222 504.635C414.222 504.75 414.222 504.864 414.222 504.978C414.222 505.093 414.222 505.207 414.222 505.321C414.222 505.436 414.222 505.55 414.222 505.664C414.222 505.779 414.222 505.893 414.222 506.007C414.222 506.121 414.222 506.236 414.222 506.35C414.222 506.464 414.222 506.579 414.222 506.693C414.222 506.807 414.222 506.922 414.222 507.036C414.222 507.15 414.222 507.265 414.222 507.379C414.222 507.493 414.222 507.608 414.222 507.722C414.222 507.836 414.222 507.95 414.222 508.065C414.222 508.179 414.222 508.293 414.222 508.408C414.222 508.522 414.222 508.636 414.222 508.751C414.222 508.865 414.222 508.979 414.222 509.094C414.222 509.208 414.222 509.322 414.222 509.436C414.222 509.551 414.222 509.665 414.222 509.779C414.222 509.894 414.222 510.008 414.222 510.122C414.222 510.237 414.222 510.351 414.222 510.465C414.222 510.58 414.222 510.694 414.222 510.808C414.222 510.922 414.222 511.037 414.222 511.151C414.222 511.265 414.222 511.38 414.222 511.494C414.222 511.608 414.222 511.723 414.222 511.837C414.222 511.951 414.222 512.066 414.222 512.18H412.222ZM412.222 336.6C412.222 335.06 412.371 333.524 412.441 332.083L414.438 332.179C414.362 333.765 414.222 335.113 414.222 336.6H412.222ZM412.995 331.236L413.866 330.803L414.755 332.595L413.884 333.027L412.995 331.236ZM414.969 330.947C416.174 332.002 417.526 333.122 418.717 334.305L417.308 335.724C416.176 334.6 414.915 333.558 413.652 332.451L414.969 330.947ZM418.717 334.305C436.794 352.252 454.943 370.272 473.02 388.292L471.608 389.708C453.533 371.69 435.385 353.671 417.308 335.724L418.717 334.305ZM473.019 388.291C473.968 389.233 474.763 389.568 475.436 389.568C476.108 389.568 476.904 389.233 477.853 388.291L479.262 389.71C478.106 390.858 476.832 391.568 475.436 391.568C474.039 391.568 472.766 390.858 471.609 389.71L473.019 388.291ZM477.853 388.291C489.541 376.686 501.227 365.083 512.914 353.407L514.327 354.822C502.638 366.5 490.949 378.106 479.262 389.71L477.853 388.291ZM512.916 353.405C513.727 352.6 514 351.927 514 351.376C514 350.824 513.727 350.151 512.916 349.347L514.325 347.927C515.354 348.948 516 350.102 516 351.376C516 352.65 515.354 353.803 514.325 354.824L512.916 353.405ZM512.916 349.347C505.076 341.563 497.218 333.779 489.36 325.994C481.501 318.21 473.643 310.425 465.802 302.641L467.211 301.221C475.051 309.005 482.909 316.789 490.767 324.574C498.626 332.358 506.485 340.143 514.325 347.927L512.916 349.347ZM465.801 302.64C450.157 287.072 434.495 271.521 418.833 255.971C403.17 240.42 387.508 224.869 371.863 209.3L373.274 207.882C388.917 223.451 404.579 239.001 420.242 254.551C435.904 270.102 451.567 285.653 467.212 301.222L465.801 302.64ZM371.864 209.301C349.867 187.461 327.799 165.55 305.731 143.712L307.137 142.29C329.207 164.13 351.277 186.042 373.273 207.882L371.864 209.301ZM305.73 143.711C298.107 136.143 290.503 128.592 282.898 121.042C275.294 113.492 267.69 105.942 260.067 98.3741L261.476 96.9548C269.099 104.523 276.703 112.073 284.307 119.623C291.912 127.173 299.516 134.723 307.139 142.291L305.73 143.711ZM260.067 98.3741C259.194 97.5069 258.437 97.2072 257.783 97.2227C257.116 97.2384 256.317 97.586 255.378 98.5183L253.969 97.099C255.111 95.965 256.369 95.2555 257.735 95.2232C259.113 95.1906 260.366 95.852 261.476 96.9548L260.067 98.3741ZM255.379 98.5175C237.774 116.033 220.151 133.53 202.529 151.026C184.906 168.523 167.284 186.02 149.68 203.534L148.27 202.116C165.875 184.601 183.497 167.104 201.12 149.607C218.742 132.11 236.365 114.614 253.968 97.0997L255.379 98.5175ZM149.68 203.535C149.62 203.594 149.56 203.653 149.5 203.713C149.44 203.772 149.381 203.832 149.321 203.891C149.261 203.95 149.201 204.01 149.141 204.069C149.081 204.129 149.022 204.188 148.962 204.247C148.902 204.307 148.842 204.366 148.782 204.426C148.722 204.485 148.663 204.545 148.603 204.604C148.513 204.693 148.334 204.871 148.244 204.96C148.184 205.02 148.124 205.079 148.064 205.139C148.004 205.198 147.945 205.257 147.885 205.317C147.825 205.376 147.765 205.436 147.705 205.495C147.645 205.554 147.586 205.614 147.526 205.673C147.466 205.733 147.406 205.792 147.346 205.852C147.286 205.911 147.227 205.97 147.167 206.03C147.107 206.089 147.047 206.149 146.987 206.208C146.927 206.267 146.868 206.327 146.808 206.386C146.748 206.446 146.688 206.505 146.628 206.564C146.568 206.624 146.509 206.683 146.449 206.743C146.389 206.802 146.329 206.861 146.269 206.921C146.209 206.98 146.15 207.04 146.09 207.099C146.03 207.158 145.97 207.218 145.91 207.277C145.85 207.337 145.79 207.396 145.731 207.455C145.671 207.515 145.611 207.574 145.551 207.634C145.491 207.693 145.431 207.753 145.372 207.812C145.227 207.956 145.158 208.024 145.013 208.168C144.953 208.228 144.893 208.287 144.833 208.347C144.773 208.406 144.713 208.465 144.654 208.525C144.594 208.584 144.534 208.644 144.474 208.703C144.414 208.762 144.354 208.822 144.295 208.881C144.235 208.941 144.175 209 144.115 209.059C144.055 209.119 143.995 209.178 143.936 209.238C143.467 209.703 142.968 210.198 142.5 210.663C142.379 210.783 142.261 210.9 142.141 211.02C142.081 211.079 142.021 211.139 141.961 211.198C141.901 211.258 141.841 211.317 141.782 211.376C141.722 211.436 141.662 211.495 141.602 211.555C141.542 211.614 141.482 211.673 141.423 211.733C141.363 211.792 141.303 211.852 141.243 211.911C141.183 211.97 141.123 212.03 141.064 212.089C141.004 212.149 140.944 212.208 140.884 212.267C140.824 212.327 140.764 212.386 140.705 212.446C140.645 212.505 140.585 212.565 140.525 212.624C140.465 212.683 140.405 212.743 140.346 212.802C140.226 212.921 140.106 213.04 139.987 213.159C139.927 213.218 139.867 213.277 139.807 213.337C139.747 213.396 139.687 213.456 139.628 213.515C139.568 213.574 139.508 213.634 139.448 213.693C139.388 213.753 139.328 213.812 139.269 213.871C139.209 213.931 139.149 213.99 139.089 214.05C139.029 214.109 138.969 214.169 138.91 214.228C138.85 214.287 138.79 214.347 138.73 214.406C138.67 214.466 138.61 214.525 138.551 214.584C138.491 214.644 138.431 214.703 138.371 214.763C138.311 214.822 138.251 214.881 138.192 214.941C138.132 215 138.072 215.06 138.012 215.119C137.952 215.178 137.892 215.238 137.833 215.297C137.773 215.357 137.713 215.416 137.653 215.475C137.593 215.535 137.533 215.594 137.474 215.654C137.414 215.713 137.354 215.773 137.294 215.832C137.234 215.891 137.174 215.951 137.115 216.01C137.055 216.07 136.995 216.129 136.935 216.188C136.875 216.248 136.815 216.307 136.756 216.367C136.526 216.594 136.267 216.852 136.038 217.079C135.978 217.139 135.918 217.198 135.858 217.258C135.798 217.317 135.738 217.377 135.678 217.436C135.619 217.495 135.559 217.555 135.499 217.614C135.439 217.674 135.379 217.733 135.319 217.792C135.26 217.852 135.2 217.911 135.14 217.971C135.08 218.03 135.02 218.089 134.96 218.149C134.901 218.208 134.841 218.268 134.781 218.327C134.721 218.386 134.661 218.446 134.601 218.505C134.316 218.789 134.169 218.935 133.883 219.218C133.824 219.278 133.764 219.337 133.704 219.396C133.644 219.456 133.584 219.515 133.524 219.575C133.465 219.634 133.405 219.693 133.345 219.753C133.285 219.812 133.225 219.872 133.165 219.931C133.106 219.99 133.046 220.05 132.986 220.109C132.926 220.169 132.866 220.228 132.806 220.287C132.747 220.347 132.687 220.406 132.627 220.466C132.567 220.525 132.507 220.585 132.447 220.644C132.388 220.703 132.328 220.763 132.268 220.822C132.208 220.882 132.148 220.941 132.088 221C132.029 221.06 131.969 221.119 131.909 221.179C131.849 221.238 131.789 221.297 131.729 221.357C131.573 221.512 131.527 221.558 131.37 221.713C131.213 221.87 131.169 221.913 131.011 222.07C130.952 222.129 130.892 222.189 130.832 222.248C130.772 222.307 130.712 222.367 130.652 222.426C130.527 222.551 130.419 222.658 130.293 222.783C130.234 222.842 130.174 222.901 130.114 222.961C130.054 223.02 129.994 223.08 129.934 223.139C129.875 223.198 129.815 223.258 129.755 223.317C129.695 223.377 129.635 223.436 129.575 223.495C129.516 223.555 129.456 223.614 129.396 223.674C129.336 223.733 129.276 223.792 129.216 223.852C129.157 223.911 129.097 223.971 129.037 224.03C128.977 224.09 128.917 224.149 128.857 224.208C128.798 224.268 128.738 224.327 128.678 224.387C128.618 224.446 128.558 224.505 128.498 224.565C128.439 224.624 128.379 224.684 128.319 224.743C128.259 224.802 128.199 224.862 128.139 224.921C128.08 224.981 128.02 225.04 127.96 225.099C127.9 225.159 127.84 225.218 127.78 225.278C127.721 225.337 127.661 225.396 127.601 225.456C127.541 225.515 127.481 225.575 127.421 225.634C127.362 225.694 127.302 225.753 127.242 225.812C127.182 225.872 127.122 225.931 127.062 225.991C127.003 226.05 126.943 226.109 126.883 226.169C126.823 226.228 126.763 226.288 126.703 226.347C126.644 226.406 126.584 226.466 126.524 226.525C126.464 226.585 126.404 226.644 126.344 226.703C126.285 226.763 126.225 226.822 126.165 226.882C126.105 226.941 126.045 227 125.985 227.06C125.926 227.119 125.866 227.179 125.806 227.238C125.746 227.298 125.686 227.357 125.626 227.416C125.566 227.476 125.507 227.535 125.447 227.595C125.387 227.654 125.327 227.713 125.267 227.773C125.207 227.832 125.148 227.892 125.088 227.951C125.028 228.01 124.968 228.07 124.908 228.129C124.848 228.189 124.789 228.248 124.729 228.307C124.669 228.367 124.609 228.426 124.549 228.486C124.489 228.545 124.43 228.604 124.37 228.664C124.31 228.723 124.25 228.783 124.19 228.842C124.13 228.902 124.071 228.961 124.011 229.02C123.951 229.08 123.891 229.139 123.831 229.199C123.771 229.258 123.712 229.317 123.652 229.377C123.592 229.436 123.532 229.496 123.472 229.555C123.412 229.614 123.353 229.674 123.293 229.733C123.233 229.793 123.173 229.852 123.113 229.911C123.053 229.971 122.994 230.03 122.934 230.09C122.874 230.149 122.814 230.208 122.754 230.268C122.694 230.327 122.635 230.387 122.575 230.446C122.515 230.506 122.455 230.565 122.395 230.624C122.335 230.684 122.276 230.743 122.216 230.803C122.156 230.862 122.096 230.921 122.036 230.981C121.917 231.1 121.797 231.218 121.677 231.337C121.617 231.397 121.558 231.456 121.498 231.515C121.438 231.575 121.378 231.634 121.318 231.694C121.258 231.753 121.199 231.812 121.139 231.872C121.079 231.931 121.019 231.991 120.959 232.05C120.899 232.11 120.84 232.169 120.78 232.228C120.72 232.288 120.66 232.347 120.6 232.407C120.54 232.466 120.481 232.525 120.421 232.585C120.361 232.644 120.301 232.704 120.241 232.763C120.181 232.822 120.122 232.882 120.062 232.941C120.002 233.001 119.942 233.06 119.882 233.119C119.822 233.179 119.763 233.238 119.703 233.298C119.643 233.357 119.583 233.416 119.523 233.476C119.463 233.535 119.404 233.595 119.344 233.654C119.284 233.714 119.224 233.773 119.164 233.832C119.104 233.892 119.045 233.951 118.985 234.011C118.925 234.07 118.865 234.129 118.805 234.189C118.745 234.248 118.686 234.308 118.626 234.367C118.566 234.426 118.506 234.486 118.446 234.545C118.386 234.605 118.327 234.664 118.267 234.723C118.207 234.783 118.147 234.842 118.087 234.902C117.922 235.065 117.893 235.095 117.728 235.258C117.668 235.318 117.609 235.377 117.549 235.436C117.489 235.496 117.429 235.555 117.369 235.615C117.309 235.674 117.25 235.733 117.19 235.793C117.13 235.852 117.07 235.912 117.01 235.971C116.95 236.03 116.891 236.09 116.831 236.149C116.771 236.209 116.711 236.268 116.651 236.327C116.591 236.387 116.532 236.446 116.472 236.506C116.412 236.565 116.352 236.624 116.292 236.684C116.232 236.743 116.173 236.803 116.113 236.862C116.053 236.922 115.993 236.981 115.933 237.04C115.873 237.1 115.814 237.159 115.754 237.219C115.694 237.278 115.634 237.337 115.574 237.397C115.514 237.456 115.454 237.516 115.395 237.575C115.335 237.634 115.275 237.694 115.215 237.753C115.155 237.813 115.095 237.872 115.036 237.931C114.976 237.991 114.916 238.05 114.856 238.11C114.796 238.169 114.736 238.228 114.677 238.288C114.617 238.347 114.557 238.407 114.497 238.466C114.437 238.526 114.378 238.585 114.318 238.644C114.258 238.704 114.198 238.763 114.138 238.823C114.078 238.882 114.018 238.941 113.959 239.001C113.899 239.06 113.839 239.12 113.779 239.179C113.719 239.238 113.659 239.298 113.6 239.357C113.54 239.417 113.48 239.476 113.42 239.535C113.36 239.595 113.3 239.654 113.241 239.714C113.181 239.773 113.121 239.832 113.061 239.892C112.779 240.172 112.626 240.324 112.343 240.605C112.283 240.664 112.223 240.724 112.164 240.783C112.104 240.842 112.044 240.902 111.984 240.961C111.924 241.021 111.864 241.08 111.805 241.139C111.745 241.199 111.685 241.258 111.625 241.318C111.565 241.377 111.505 241.436 111.446 241.496C111.386 241.555 111.326 241.615 111.266 241.674C111.206 241.734 111.146 241.793 111.087 241.852C111.027 241.912 110.967 241.971 110.907 242.031C110.847 242.09 110.787 242.149 110.728 242.209C110.668 242.268 110.608 242.328 110.548 242.387C110.488 242.446 110.428 242.506 110.369 242.565C110.309 242.625 110.249 242.684 110.189 242.743C110.129 242.803 110.069 242.862 110.01 242.922C109.95 242.981 109.89 243.04 109.83 243.1C109.77 243.159 109.71 243.219 109.651 243.278C109.591 243.338 109.531 243.397 109.471 243.456C109.234 243.691 108.99 243.934 108.753 244.169C108.693 244.229 108.633 244.288 108.574 244.347C108.514 244.407 108.454 244.466 108.394 244.526C108.334 244.585 108.274 244.644 108.215 244.704C108.155 244.763 108.095 244.823 108.035 244.882C107.964 244.952 107.747 245.168 107.676 245.239C107.616 245.298 107.556 245.357 107.497 245.417C107.437 245.476 107.377 245.536 107.317 245.595C107.257 245.654 107.197 245.714 107.138 245.773C107.078 245.833 107.018 245.892 106.958 245.951C106.898 246.011 106.838 246.07 106.779 246.13C106.719 246.189 106.659 246.248 106.599 246.308C106.539 246.367 106.479 246.427 106.42 246.486C106.36 246.546 106.3 246.605 106.24 246.664C106.18 246.724 106.12 246.783 106.061 246.843C106.001 246.902 105.941 246.961 105.881 247.021C105.821 247.08 105.761 247.14 105.702 247.199C105.642 247.258 105.582 247.318 105.522 247.377C105.462 247.437 105.402 247.496 105.342 247.555C105.283 247.615 105.223 247.674 105.163 247.734C105.103 247.793 105.043 247.852 104.983 247.912C104.924 247.971 104.864 248.031 104.804 248.09C104.744 248.149 104.684 248.209 104.625 248.268C104.565 248.328 104.505 248.387 104.445 248.447C104.343 248.548 104.188 248.701 104.086 248.803C104.026 248.862 103.966 248.922 103.906 248.981C103.847 249.041 103.787 249.1 103.727 249.159C99.9257 252.934 96.0401 256.791 92.2388 260.566C92.179 260.625 92.1191 260.684 92.0593 260.744C91.9995 260.803 91.9396 260.863 91.8798 260.922C91.7596 261.041 91.641 261.159 91.5208 261.279C91.4609 261.338 91.4011 261.397 91.3413 261.457C91.2815 261.516 91.2216 261.576 91.1618 261.635C91.102 261.694 91.0421 261.754 90.9823 261.813C90.9225 261.873 90.8626 261.932 90.8028 261.991C90.5607 262.232 90.3268 262.464 90.0848 262.704C90.0249 262.764 89.9651 262.823 89.9053 262.883C89.8454 262.942 89.7856 263.001 89.7258 263.061C89.6659 263.12 89.6061 263.18 89.5463 263.239C89.4864 263.298 89.4266 263.358 89.3668 263.417C89.3069 263.477 89.2471 263.536 89.1873 263.595C89.1274 263.655 89.0676 263.714 89.0078 263.774C88.9479 263.833 88.8881 263.892 88.8282 263.952C88.7684 264.011 88.7086 264.071 88.6487 264.13C88.5889 264.189 88.5291 264.249 88.4692 264.308C88.4094 264.368 88.3496 264.427 88.2897 264.487C88.2299 264.546 88.1701 264.605 88.1102 264.665C88.0504 264.724 87.9906 264.784 87.9307 264.843C87.8709 264.902 87.8111 264.962 87.7512 265.021C87.6914 265.081 87.6316 265.14 87.5717 265.199C87.5119 265.259 87.4521 265.318 87.3922 265.378C87.3324 265.437 87.2726 265.496 87.2127 265.556C87.1529 265.615 87.093 265.675 87.0332 265.734C86.9734 265.793 86.9135 265.853 86.8537 265.912C86.7939 265.972 86.734 266.031 86.6742 266.091C86.6144 266.15 86.5545 266.209 86.4947 266.269C86.4349 266.328 86.375 266.388 86.3152 266.447C86.2554 266.506 86.1955 266.566 86.1357 266.625C86.0759 266.685 86.016 266.744 85.9562 266.803C85.8964 266.863 85.8365 266.922 85.7767 266.982C85.7169 267.041 85.657 267.1 85.5972 267.16C85.5374 267.219 85.4775 267.279 85.4177 267.338C85.3578 267.397 85.298 267.457 85.2382 267.516C85.1783 267.576 85.1185 267.635 85.0587 267.694C84.9988 267.754 84.939 267.813 84.8792 267.873C84.8193 267.932 84.7595 267.992 84.6997 268.051C84.6398 268.11 84.58 268.17 84.5202 268.229C84.4603 268.289 84.4005 268.348 84.3407 268.407C84.2808 268.467 84.221 268.526 84.1612 268.586C84.1013 268.645 84.0415 268.704 83.9817 268.764C83.8921 268.853 83.7122 269.031 83.6227 269.12C83.1288 269.611 82.6805 270.056 82.1866 270.546C82.1268 270.605 82.067 270.665 82.0071 270.724C81.9473 270.784 81.8875 270.843 81.8276 270.902C81.7678 270.962 81.7079 271.021 81.6481 271.081C81.5883 271.14 81.5285 271.2 81.4686 271.259C81.4088 271.318 81.349 271.378 81.2891 271.437C81.2293 271.497 81.1695 271.556 81.1096 271.615C81.0498 271.675 80.99 271.734 80.9301 271.794C80.8703 271.853 80.8105 271.912 80.7506 271.972C80.6908 272.031 80.631 272.091 80.5711 272.15C80.5113 272.209 80.4514 272.269 80.3916 272.328C80.3318 272.388 80.2719 272.447 80.2121 272.507C80.1523 272.566 80.0924 272.625 80.0326 272.685C79.9728 272.744 79.9129 272.804 79.8531 272.863C79.7933 272.922 79.7334 272.982 79.6736 273.041C79.6138 273.101 79.5539 273.16 79.4941 273.219C79.4343 273.279 79.3744 273.338 79.3146 273.398C78.8142 273.894 78.3789 274.327 77.8786 274.823C77.8187 274.883 77.7589 274.942 77.6991 275.002C77.6392 275.061 77.5794 275.12 77.5196 275.18C77.4597 275.239 77.3999 275.299 77.3401 275.358C77.2802 275.417 77.2204 275.477 77.1606 275.536C77.1007 275.596 77.0409 275.655 76.981 275.714C76.9212 275.774 76.8614 275.833 76.8015 275.893C76.7417 275.952 76.6819 276.012 76.622 276.071C76.5622 276.13 76.5024 276.19 76.4425 276.249C76.2021 276.488 75.965 276.723 75.7245 276.962C75.4792 277.206 75.2519 277.431 75.0065 277.675C74.9026 277.778 74.7514 277.928 74.6475 278.031C74.5877 278.091 74.5278 278.15 74.468 278.21C74.4082 278.269 74.3483 278.328 74.2885 278.388C74.2287 278.447 74.1689 278.507 74.109 278.566C74.0492 278.625 73.9893 278.685 73.9295 278.744C73.8697 278.804 73.8098 278.863 73.75 278.922C73.6902 278.982 73.6303 279.041 73.5705 279.101C73.5107 279.16 73.4508 279.22 73.391 279.279C73.3311 279.338 73.2713 279.398 73.2115 279.457C73.1516 279.517 73.0918 279.576 73.032 279.635C72.9722 279.695 72.9123 279.754 72.8525 279.814C72.7304 279.935 72.6155 280.049 72.4935 280.17C72.4337 280.229 72.3738 280.289 72.314 280.348C72.2542 280.408 72.1943 280.467 72.1345 280.526C72.0746 280.586 72.0148 280.645 71.955 280.705C71.8951 280.764 71.8353 280.824 71.7755 280.883C71.7156 280.942 71.6558 281.002 71.596 281.061C71.5361 281.121 71.4763 281.18 71.4165 281.239C71.3566 281.299 71.2968 281.358 71.237 281.418C71.1771 281.477 71.1173 281.536 71.0575 281.596C70.9976 281.655 70.9378 281.715 70.878 281.774C70.8181 281.833 70.7583 281.893 70.6985 281.952C70.6386 282.012 70.5788 282.071 70.519 282.13C70.4591 282.19 70.3993 282.249 70.3394 282.309C70.2796 282.368 70.2198 282.428 70.1599 282.487C70.1001 282.546 70.0403 282.606 69.9804 282.665C69.9206 282.725 69.8608 282.784 69.8009 282.843C69.7411 282.903 69.6813 282.962 69.6214 283.022C69.5616 283.081 69.5018 283.14 69.4419 283.2C69.3821 283.259 69.3223 283.319 69.2624 283.378C69.1823 283.458 68.9836 283.655 68.9034 283.734C68.8436 283.794 68.7838 283.853 68.7239 283.913C68.6641 283.972 68.6042 284.031 68.5444 284.091C68.4602 284.174 68.2696 284.364 68.1854 284.447C68.1256 284.507 68.0657 284.566 68.0059 284.626C67.9461 284.685 67.8862 284.744 67.8264 284.804C67.7666 284.863 67.7067 284.923 67.6469 284.982C67.5871 285.041 67.5272 285.101 67.4674 285.16C67.3951 285.232 67.1807 285.445 67.1084 285.517C67.0486 285.576 66.9887 285.635 66.9289 285.695C66.869 285.754 66.8092 285.814 66.7494 285.873C66.6895 285.933 66.6297 285.992 66.5699 286.051C66.51 286.111 66.4502 286.17 66.3904 286.23C65.8943 286.722 65.4504 287.163 64.9543 287.655C64.7146 287.893 64.4761 288.13 64.2364 288.368C64.1765 288.428 64.1167 288.487 64.0569 288.546C63.997 288.606 63.9372 288.665 63.8773 288.725C63.8175 288.784 63.7577 288.844 63.6978 288.903C63.638 288.962 63.5782 289.022 63.5183 289.081C62.5608 290.032 61.6039 290.982 60.6463 291.933C60.5865 291.992 60.5266 292.051 60.4668 292.111C60.407 292.17 60.3471 292.23 60.2873 292.289C60.2274 292.349 60.1676 292.408 60.1078 292.467C60.0479 292.527 59.9881 292.586 59.9283 292.646C59.8684 292.705 59.8086 292.764 59.7488 292.824C59.6889 292.883 59.6291 292.943 59.5693 293.002C59.5094 293.061 59.4496 293.121 59.3898 293.18C59.3299 293.24 59.2701 293.299 59.2103 293.358C59.1504 293.418 59.0906 293.477 59.0308 293.537C58.9709 293.596 58.9111 293.655 58.8513 293.715C58.7914 293.774 58.7316 293.834 58.6718 293.893C58.6119 293.953 58.5521 294.012 58.4922 294.071C58.3684 294.194 58.257 294.305 58.1332 294.428C58.0734 294.487 58.0136 294.547 57.9537 294.606C57.8939 294.665 57.8341 294.725 57.7742 294.784L56.3651 293.365C56.4249 293.306 56.4848 293.246 56.5446 293.187C56.6044 293.127 56.6643 293.068 56.7241 293.009C56.7839 292.949 56.8438 292.89 56.9036 292.83C56.9634 292.771 57.0233 292.711 57.0831 292.652C57.1429 292.593 57.2028 292.533 57.2626 292.474C57.3224 292.414 57.3823 292.355 57.4421 292.296C57.502 292.236 57.5618 292.177 57.6216 292.117C57.6815 292.058 57.7413 291.999 57.8011 291.939C57.861 291.88 57.9208 291.82 57.9806 291.761C58.0405 291.702 58.1003 291.642 58.1601 291.583C58.22 291.523 58.2798 291.464 58.3396 291.405C58.3995 291.345 58.4593 291.286 58.5191 291.226C58.579 291.167 58.6388 291.107 58.6986 291.048C58.7585 290.989 58.8183 290.929 58.8781 290.87C58.938 290.81 58.9978 290.751 59.0576 290.692C59.1175 290.632 59.1773 290.573 59.2372 290.513C60.1947 289.563 61.1516 288.613 62.1092 287.662C62.3491 287.424 62.5873 287.187 62.8272 286.949C62.8871 286.89 62.9469 286.83 63.0067 286.771C63.0665 286.711 63.1264 286.652 63.1862 286.593C63.246 286.533 63.3059 286.474 63.3657 286.414C63.4255 286.355 63.4854 286.296 63.5452 286.236C64.0413 285.744 64.4852 285.303 64.9812 284.81C65.1708 284.622 65.5097 284.286 65.6992 284.097C65.7591 284.038 65.8189 283.979 65.8788 283.919C65.9386 283.86 65.9984 283.8 66.0583 283.741C66.1181 283.682 66.1779 283.622 66.2378 283.563C66.2976 283.503 66.3574 283.444 66.4173 283.385C66.4771 283.325 66.5369 283.266 66.5968 283.206C66.6566 283.147 66.7164 283.087 66.7763 283.028C66.8661 282.939 67.0454 282.761 67.1353 282.672C67.1951 282.612 67.2549 282.553 67.3148 282.493C67.3746 282.434 67.4344 282.375 67.4943 282.315C67.5541 282.256 67.614 282.196 67.6738 282.137C67.7336 282.078 67.7935 282.018 67.8533 281.959C67.9131 281.899 67.973 281.84 68.0328 281.781C68.0926 281.721 68.1525 281.662 68.2123 281.602C68.3004 281.515 68.4832 281.333 68.5713 281.246C68.6311 281.186 68.691 281.127 68.7508 281.068C68.8106 281.008 68.8705 280.949 68.9303 280.889C68.9901 280.83 69.05 280.771 69.1098 280.711C69.1696 280.652 69.2295 280.592 69.2893 280.533C69.3492 280.474 69.409 280.414 69.4688 280.355C69.5287 280.295 69.5885 280.236 69.6483 280.177C69.7082 280.117 69.768 280.058 69.8278 279.998C69.8877 279.939 69.9475 279.879 70.0073 279.82C70.0672 279.761 70.127 279.701 70.1868 279.642C70.2467 279.582 70.3065 279.523 70.3663 279.464C70.4261 279.404 70.486 279.345 70.5458 279.285C70.6057 279.226 70.6655 279.167 70.7253 279.107C70.7852 279.048 70.845 278.988 70.9048 278.929C70.9647 278.87 71.0245 278.81 71.0844 278.751C71.1442 278.691 71.204 278.632 71.2639 278.573C71.3237 278.513 71.3835 278.454 71.4434 278.394C71.5032 278.335 71.563 278.276 71.6228 278.216C71.6827 278.157 71.7425 278.097 71.8023 278.038C71.8622 277.978 71.922 277.919 71.9818 277.86C72.0417 277.8 72.1015 277.741 72.1613 277.681C72.2212 277.622 72.281 277.563 72.3409 277.503C72.4007 277.444 72.4605 277.384 72.5204 277.325C72.5802 277.266 72.64 277.206 72.6999 277.147C72.7597 277.087 72.8195 277.028 72.8794 276.969C72.9392 276.909 72.999 276.85 73.0589 276.79C73.1187 276.731 73.1785 276.672 73.2384 276.612C73.2982 276.553 73.358 276.493 73.4179 276.434C73.4777 276.374 73.5375 276.315 73.5974 276.256C73.6572 276.196 73.717 276.137 73.7769 276.077C73.8367 276.018 73.8965 275.959 73.9564 275.899C74.1209 275.736 74.1508 275.706 74.3154 275.543C74.5558 275.304 74.793 275.069 75.0334 274.83C75.5095 274.357 75.9933 273.877 76.4694 273.404C76.9698 272.907 77.4051 272.475 77.9055 271.978C77.9653 271.919 78.0251 271.86 78.085 271.8C78.1448 271.741 78.2046 271.681 78.2645 271.622C78.3243 271.562 78.3841 271.503 78.444 271.444C78.5038 271.384 78.5636 271.325 78.6235 271.265C78.6833 271.206 78.7431 271.147 78.8029 271.087C78.8628 271.028 78.9226 270.968 78.9825 270.909C79.0423 270.85 79.1021 270.79 79.162 270.731C79.2218 270.671 79.2816 270.612 79.3415 270.553C79.4013 270.493 79.4612 270.434 79.521 270.374C79.5808 270.315 79.6407 270.256 79.7005 270.196C79.7603 270.137 79.8202 270.077 79.88 270.018C79.9398 269.958 79.9997 269.899 80.0595 269.84C80.152 269.748 80.326 269.575 80.4185 269.483C80.4783 269.424 80.5381 269.364 80.598 269.305C80.6578 269.246 80.7177 269.186 80.7775 269.127C81.2714 268.636 81.7196 268.191 82.2135 267.701C82.2733 267.642 82.3332 267.582 82.393 267.523C82.4529 267.463 82.5127 267.404 82.5725 267.345C82.6324 267.285 82.6922 267.226 82.752 267.166C82.8119 267.107 82.8717 267.048 82.9315 266.988C82.9914 266.929 83.0512 266.869 83.111 266.81C83.1709 266.75 83.2307 266.691 83.2905 266.632C83.3504 266.572 83.4102 266.513 83.47 266.453C83.5299 266.394 83.5897 266.335 83.6495 266.275C83.7094 266.216 83.7692 266.156 83.829 266.097C83.8889 266.038 83.9487 265.978 84.0085 265.919C84.0684 265.859 84.1282 265.8 84.188 265.741C84.2479 265.681 84.3077 265.622 84.3676 265.562C84.6111 265.321 84.842 265.091 85.0856 264.849C86.9922 262.956 88.923 261.039 90.8297 259.146C90.8895 259.087 90.9493 259.028 91.0092 258.968C91.069 258.909 91.1288 258.849 91.1887 258.79C91.2485 258.73 91.3083 258.671 91.3682 258.612C91.428 258.552 91.4878 258.493 91.5477 258.433C91.6075 258.374 91.6673 258.315 91.7272 258.255C91.787 258.196 91.8468 258.136 91.9067 258.077C91.9665 258.018 92.0263 257.958 92.0862 257.899C92.146 257.839 92.2058 257.78 92.2657 257.721C92.3255 257.661 92.3853 257.602 92.4452 257.542C92.505 257.483 92.5648 257.424 92.6247 257.364C92.6845 257.305 92.7444 257.245 92.8042 257.186C92.864 257.126 92.9239 257.067 92.9837 257.008C93.0435 256.948 93.1034 256.889 93.1632 256.829C93.223 256.77 93.2829 256.711 93.3427 256.651C93.4025 256.592 93.4624 256.532 93.5222 256.473C93.582 256.414 93.6419 256.354 93.7017 256.295C93.7953 256.202 93.9671 256.031 94.0607 255.938C94.1524 255.847 94.328 255.673 94.4197 255.582C94.4796 255.523 94.5394 255.463 94.5992 255.404C94.6591 255.344 94.7189 255.285 94.7787 255.225C94.9273 255.078 94.9891 255.017 95.1377 254.869C95.1976 254.81 95.2574 254.75 95.3172 254.691C95.3771 254.631 95.4369 254.572 95.4967 254.513C95.5566 254.453 95.6164 254.394 95.6762 254.334C95.7361 254.275 95.7959 254.216 95.8557 254.156C95.9156 254.097 95.9754 254.037 96.0352 253.978C96.0951 253.919 96.1549 253.859 96.2148 253.8C96.2746 253.74 96.3344 253.681 96.3943 253.621C96.4541 253.562 96.5139 253.503 96.5738 253.443C96.8103 253.208 97.0552 252.965 97.2917 252.73C97.3516 252.671 97.4114 252.612 97.4713 252.552C97.5311 252.493 97.5909 252.433 97.6508 252.374C97.7106 252.315 97.7704 252.255 97.8303 252.196C97.8901 252.136 97.95 252.077 98.0098 252.017C98.0804 251.947 98.2981 251.731 98.3688 251.661C98.4286 251.602 98.4884 251.542 98.5483 251.483C98.6081 251.423 98.6679 251.364 98.7278 251.305C98.7876 251.245 98.8474 251.186 98.9073 251.126C98.9671 251.067 99.0269 251.008 99.0868 250.948C99.1466 250.889 99.2065 250.829 99.2663 250.77C99.3261 250.711 99.386 250.651 99.4458 250.592C99.5056 250.532 99.5655 250.473 99.6253 250.413C99.6851 250.354 99.745 250.295 99.8048 250.235C99.8646 250.176 99.9245 250.116 99.9843 250.057C100.044 249.998 100.104 249.938 100.164 249.879C100.224 249.819 100.283 249.76 100.343 249.701C100.403 249.641 100.463 249.582 100.523 249.522C100.583 249.463 100.642 249.404 100.702 249.344C100.762 249.285 100.822 249.225 100.882 249.166C100.942 249.107 101.001 249.047 101.061 248.988C101.121 248.928 101.181 248.869 101.241 248.809C101.301 248.75 101.361 248.691 101.42 248.631C101.48 248.572 101.54 248.512 101.6 248.453C101.702 248.351 101.856 248.198 101.959 248.097C102.019 248.037 102.078 247.978 102.138 247.918C102.198 247.859 102.258 247.8 102.318 247.74C102.378 247.681 102.438 247.621 102.497 247.562C102.557 247.503 102.617 247.443 102.677 247.384C102.784 247.277 102.928 247.134 103.036 247.027C103.096 246.968 103.156 246.908 103.215 246.849C103.275 246.79 103.335 246.73 103.395 246.671C103.455 246.611 103.515 246.552 103.574 246.493C103.634 246.433 103.694 246.374 103.754 246.314C103.814 246.255 103.874 246.196 103.933 246.136C103.993 246.077 104.053 246.017 104.113 245.958C104.173 245.899 104.233 245.839 104.292 245.78C104.352 245.72 104.412 245.661 104.472 245.601C104.532 245.542 104.592 245.483 104.651 245.423C104.711 245.364 104.771 245.304 104.831 245.245C104.891 245.186 104.951 245.126 105.01 245.067C105.07 245.007 105.13 244.948 105.19 244.889C105.432 244.649 105.666 244.416 105.908 244.176C105.968 244.116 106.028 244.057 106.087 243.997C106.147 243.938 106.207 243.879 106.267 243.819C106.327 243.76 106.387 243.7 106.446 243.641C106.506 243.582 106.566 243.522 106.626 243.463C106.686 243.403 106.746 243.344 106.805 243.285C106.865 243.225 106.925 243.166 106.985 243.106C107.045 243.047 107.105 242.988 107.164 242.928C107.224 242.869 107.284 242.809 107.344 242.75C107.404 242.691 107.464 242.631 107.523 242.572C107.583 242.512 107.643 242.453 107.703 242.393C107.763 242.334 107.823 242.275 107.882 242.215C107.942 242.156 108.002 242.096 108.062 242.037C108.122 241.978 108.182 241.918 108.241 241.859C108.301 241.799 108.361 241.74 108.421 241.681C108.481 241.621 108.541 241.562 108.6 241.502C108.66 241.443 108.72 241.384 108.78 241.324C108.84 241.265 108.9 241.205 108.959 241.146C109.019 241.087 109.079 241.027 109.139 240.968C109.199 240.908 109.259 240.849 109.318 240.789C109.378 240.73 109.438 240.671 109.498 240.611C109.558 240.552 109.618 240.492 109.677 240.433C109.737 240.374 109.797 240.314 109.857 240.255C109.917 240.195 109.977 240.136 110.036 240.077C110.096 240.017 110.156 239.958 110.216 239.898C110.334 239.781 110.457 239.659 110.575 239.542C110.635 239.483 110.695 239.423 110.754 239.364C110.814 239.304 110.874 239.245 110.934 239.186C111.222 238.9 111.364 238.758 111.652 238.473C111.712 238.413 111.772 238.354 111.831 238.294C111.891 238.235 111.951 238.176 112.011 238.116C112.071 238.057 112.131 237.997 112.19 237.938C112.25 237.879 112.31 237.819 112.37 237.76C112.43 237.7 112.49 237.641 112.549 237.581C112.609 237.522 112.669 237.463 112.729 237.403C112.797 237.335 113.02 237.115 113.088 237.047C113.148 236.987 113.208 236.928 113.268 236.869C113.327 236.809 113.387 236.75 113.447 236.69C113.507 236.631 113.567 236.572 113.627 236.512C113.686 236.453 113.746 236.393 113.806 236.334C113.866 236.275 113.926 236.215 113.986 236.156C114.045 236.096 114.105 236.037 114.165 235.978C114.225 235.918 114.285 235.859 114.345 235.799C114.404 235.74 114.464 235.68 114.524 235.621C114.584 235.562 114.644 235.502 114.704 235.443C114.763 235.383 114.823 235.324 114.883 235.265C114.943 235.205 115.003 235.146 115.063 235.086C115.122 235.027 115.182 234.968 115.242 234.908C115.302 234.849 115.362 234.789 115.422 234.73C115.481 234.671 115.541 234.611 115.601 234.552C115.661 234.492 115.721 234.433 115.781 234.374C115.84 234.314 115.9 234.255 115.96 234.195C116.02 234.136 116.08 234.076 116.14 234.017C116.199 233.958 116.259 233.898 116.319 233.839C116.379 233.779 116.439 233.72 116.499 233.661C116.558 233.601 116.618 233.542 116.678 233.482C116.738 233.423 116.798 233.364 116.858 233.304C116.917 233.245 116.977 233.185 117.037 233.126C117.097 233.067 117.157 233.007 117.217 232.948C117.276 232.888 117.336 232.829 117.396 232.77C117.456 232.71 117.516 232.651 117.576 232.591C117.635 232.532 117.695 232.472 117.755 232.413C117.815 232.354 117.875 232.294 117.935 232.235C117.994 232.175 118.054 232.116 118.114 232.057C118.174 231.997 118.234 231.938 118.294 231.878C118.353 231.819 118.413 231.76 118.473 231.7C118.533 231.641 118.593 231.581 118.653 231.522C118.712 231.463 118.772 231.403 118.832 231.344C118.892 231.284 118.952 231.225 119.012 231.166C119.071 231.106 119.131 231.047 119.191 230.987C119.251 230.928 119.311 230.868 119.371 230.809C119.43 230.75 119.49 230.69 119.55 230.631C119.61 230.571 119.67 230.512 119.73 230.453C119.789 230.393 119.849 230.334 119.909 230.274C119.969 230.215 120.029 230.156 120.089 230.096C120.148 230.037 120.208 229.977 120.268 229.918C120.388 229.799 120.507 229.68 120.627 229.562C120.687 229.502 120.747 229.443 120.807 229.383C120.866 229.324 120.926 229.264 120.986 229.205C121.046 229.146 121.106 229.086 121.166 229.027C121.225 228.967 121.285 228.908 121.345 228.849C121.405 228.789 121.465 228.73 121.525 228.67C121.584 228.611 121.644 228.552 121.704 228.492C121.764 228.433 121.824 228.373 121.884 228.314C121.943 228.255 122.003 228.195 122.063 228.136C122.123 228.076 122.183 228.017 122.243 227.958C122.302 227.898 122.362 227.839 122.422 227.779C122.482 227.72 122.542 227.66 122.602 227.601C122.661 227.542 122.721 227.482 122.781 227.423C122.841 227.363 122.901 227.304 122.961 227.245C123.021 227.185 123.08 227.126 123.14 227.066C123.2 227.007 123.26 226.948 123.32 226.888C123.38 226.829 123.439 226.769 123.499 226.71C123.559 226.651 123.619 226.591 123.679 226.532C123.739 226.472 123.798 226.413 123.858 226.354C123.918 226.294 123.978 226.235 124.038 226.175C124.098 226.116 124.157 226.056 124.217 225.997C124.277 225.938 124.337 225.878 124.397 225.819C124.457 225.759 124.516 225.7 124.576 225.641C124.636 225.581 124.696 225.522 124.756 225.462C124.816 225.403 124.875 225.344 124.935 225.284C124.995 225.225 125.055 225.165 125.115 225.106C125.175 225.047 125.234 224.987 125.294 224.928C125.354 224.868 125.414 224.809 125.474 224.75C125.534 224.69 125.593 224.631 125.653 224.571C125.713 224.512 125.773 224.452 125.833 224.393C125.893 224.334 125.952 224.274 126.012 224.215C126.072 224.155 126.132 224.096 126.192 224.037C126.252 223.977 126.311 223.918 126.371 223.858C126.431 223.799 126.491 223.74 126.551 223.68C126.611 223.621 126.67 223.561 126.73 223.502C126.79 223.443 126.85 223.383 126.91 223.324C126.97 223.264 127.029 223.205 127.089 223.146C127.149 223.086 127.209 223.027 127.269 222.967C127.329 222.908 127.388 222.848 127.448 222.789C127.508 222.73 127.568 222.67 127.628 222.611C127.688 222.551 127.747 222.492 127.807 222.433C127.867 222.373 127.927 222.314 127.987 222.254C128.047 222.195 128.106 222.136 128.166 222.076C128.226 222.017 128.286 221.957 128.346 221.898C128.406 221.839 128.465 221.779 128.525 221.72C128.585 221.66 128.645 221.601 128.705 221.542C128.765 221.482 128.824 221.423 128.884 221.363C128.944 221.304 129.004 221.244 129.064 221.185C129.124 221.126 129.183 221.066 129.243 221.007C129.303 220.947 129.363 220.888 129.423 220.829C129.483 220.769 129.542 220.71 129.602 220.65C129.662 220.591 129.722 220.532 129.782 220.472C129.842 220.413 129.901 220.353 129.961 220.294C130.021 220.235 130.081 220.175 130.141 220.116C130.201 220.056 130.26 219.997 130.32 219.938C130.485 219.774 130.515 219.744 130.679 219.581C130.739 219.522 130.799 219.462 130.859 219.403C130.919 219.343 130.978 219.284 131.038 219.225C131.098 219.165 131.158 219.106 131.218 219.046C131.278 218.987 131.337 218.928 131.397 218.868C131.457 218.809 131.517 218.749 131.577 218.69C131.637 218.631 131.696 218.571 131.756 218.512C131.816 218.452 131.876 218.393 131.936 218.334C131.996 218.274 132.055 218.215 132.115 218.155C132.207 218.064 132.383 217.89 132.474 217.799C132.534 217.739 132.594 217.68 132.654 217.621C132.714 217.561 132.773 217.502 132.833 217.442C132.893 217.383 132.953 217.324 133.013 217.264C133.073 217.205 133.133 217.145 133.192 217.086C133.252 217.027 133.312 216.967 133.372 216.908C133.432 216.848 133.492 216.789 133.551 216.73C133.611 216.67 133.671 216.611 133.731 216.551C133.791 216.492 133.851 216.432 133.91 216.373C133.97 216.314 134.03 216.254 134.09 216.195C134.15 216.135 134.21 216.076 134.269 216.017C134.384 215.902 134.513 215.774 134.628 215.66C134.688 215.601 134.748 215.541 134.808 215.482C134.868 215.423 134.928 215.363 134.987 215.304C135.047 215.244 135.107 215.185 135.167 215.126C135.227 215.066 135.287 215.007 135.346 214.947C135.406 214.888 135.466 214.829 135.526 214.769C135.586 214.71 135.646 214.65 135.705 214.591C135.765 214.531 135.825 214.472 135.885 214.413C135.945 214.353 136.005 214.294 136.064 214.234C136.214 214.086 136.274 214.026 136.423 213.878C136.483 213.819 136.543 213.759 136.603 213.7C136.663 213.64 136.723 213.581 136.782 213.522C136.842 213.462 136.902 213.403 136.962 213.343C137.022 213.284 137.082 213.225 137.141 213.165C137.306 213.002 137.336 212.972 137.5 212.809C137.56 212.749 137.62 212.69 137.68 212.63C137.74 212.571 137.8 212.512 137.859 212.452C137.919 212.393 137.979 212.333 138.039 212.274C138.099 212.215 138.159 212.155 138.218 212.096C138.278 212.036 138.338 211.977 138.398 211.918C138.458 211.858 138.518 211.799 138.577 211.739C138.637 211.68 138.697 211.621 138.757 211.561C138.817 211.502 138.877 211.442 138.936 211.383C138.996 211.323 139.056 211.264 139.116 211.205C139.176 211.145 139.236 211.086 139.295 211.026C139.355 210.967 139.415 210.908 139.475 210.848C139.535 210.789 139.595 210.729 139.654 210.67C139.714 210.611 139.774 210.551 139.834 210.492C139.894 210.432 139.954 210.373 140.013 210.314C140.073 210.254 140.133 210.195 140.193 210.135C140.253 210.076 140.313 210.017 140.372 209.957C140.452 209.878 140.652 209.68 140.731 209.601C140.791 209.541 140.851 209.482 140.911 209.422C140.971 209.363 141.031 209.304 141.09 209.244C141.15 209.185 141.21 209.125 141.27 209.066C141.33 209.007 141.39 208.947 141.449 208.888C141.509 208.828 141.569 208.769 141.629 208.71C141.689 208.65 141.749 208.591 141.808 208.531C141.868 208.472 141.928 208.413 141.988 208.353C142.048 208.294 142.108 208.234 142.167 208.175C142.227 208.115 142.287 208.056 142.347 207.997C142.407 207.937 142.467 207.878 142.526 207.818C142.586 207.759 142.646 207.7 142.706 207.64C142.766 207.581 142.826 207.521 142.885 207.462C142.945 207.403 143.005 207.343 143.065 207.284C143.125 207.224 143.185 207.165 143.245 207.106C143.304 207.046 143.364 206.987 143.424 206.927C143.484 206.868 143.544 206.809 143.604 206.749C143.663 206.69 143.723 206.63 143.783 206.571C143.843 206.511 143.903 206.452 143.963 206.393C144.022 206.333 144.082 206.274 144.142 206.214C144.202 206.155 144.262 206.096 144.322 206.036C144.397 205.961 144.605 205.755 144.681 205.68C144.869 205.492 145.21 205.154 145.399 204.967C145.458 204.907 145.518 204.848 145.578 204.789C145.638 204.729 145.698 204.67 145.758 204.61C145.817 204.551 145.877 204.492 145.937 204.432C145.997 204.373 146.057 204.313 146.117 204.254C146.176 204.195 146.236 204.135 146.296 204.076C146.356 204.016 146.416 203.957 146.476 203.898C146.535 203.838 146.595 203.779 146.655 203.719C146.715 203.66 146.775 203.601 146.835 203.541C146.917 203.459 147.111 203.267 147.194 203.185C147.253 203.125 147.313 203.066 147.373 203.006C147.433 202.947 147.493 202.888 147.553 202.828C147.612 202.769 147.672 202.709 147.732 202.65C147.792 202.591 147.852 202.531 147.912 202.472C147.971 202.412 148.031 202.353 148.091 202.294C148.151 202.234 148.211 202.175 148.271 202.115L149.68 203.535ZM57.7742 294.784C39.4783 312.95 21.1143 331.111 2.82111 349.345L1.40918 347.929C19.7039 329.692 38.0731 311.526 56.3651 293.365L57.7742 294.784ZM2.8197 349.347C2.11371 350.048 1.63788 350.522 1.32666 350.904C1.00909 351.295 1.00049 351.43 1.00006 351.442C1 351.443 0.997314 351.468 1.02698 351.537C1.06049 351.615 1.12842 351.733 1.26306 351.908C1.54236 352.27 1.98914 352.725 2.67456 353.405L1.26538 354.824C0.607788 354.172 0.0563965 353.618 -0.319946 353.13C-0.696533 352.642 -1.02588 352.063 -0.998413 351.364C-0.97168 350.682 -0.612793 350.119 -0.224792 349.642C0.169556 349.158 0.737244 348.596 1.41058 347.927L2.8197 349.347ZM2.67456 353.405C14.6497 365.295 26.7044 377.192 38.6113 389.086L37.1978 390.5C25.2935 378.609 13.2466 366.72 1.26538 354.824L2.67456 353.405ZM38.6234 389.098C39.4781 389.982 39.9341 390.168 40.213 390.172C40.4832 390.175 40.9498 390.009 41.8323 389.097L43.269 390.489C42.3366 391.451 41.3513 392.186 40.1878 392.171C39.0329 392.157 38.0732 391.406 37.1856 390.488L38.6234 389.098ZM41.8433 389.086C60.2115 370.705 78.7284 352.464 97.1636 334.161L98.5727 335.58C80.1296 353.891 61.623 372.122 43.258 390.5L41.8433 389.086ZM97.1636 334.161C98.284 333.048 99.4986 332.066 100.624 331.088L101.936 332.598C100.739 333.638 99.6302 334.53 98.5727 335.58L97.1636 334.161ZM101.443 330.856C101.709 330.9 101.964 330.964 102.175 331.019C102.403 331.078 102.564 331.122 102.709 331.15L102.319 333.112C102.102 333.069 101.863 333.004 101.674 332.955C101.467 332.902 101.287 332.858 101.117 332.83L101.443 330.856ZM408.575 208.961C432.42 208.961 451.855 189.512 451.713 165.928L453.713 165.915C453.862 190.623 433.515 210.961 408.575 210.961V208.961ZM451.713 165.927C451.572 141.994 432.296 123.244 407.635 123.315L407.629 121.315C433.348 121.241 453.565 140.836 453.713 165.916L451.713 165.927ZM407.632 123.315C384.745 123.315 365.363 142.824 365.292 165.997L363.292 165.991C363.367 141.736 383.622 121.315 407.632 121.315V123.315ZM365.292 166C365.151 189.433 384.87 208.961 408.575 208.961V210.961C383.788 210.961 363.144 190.557 363.292 165.988L365.292 166ZM64.1677 166.066C64.1677 189.733 83.3225 208.961 107.015 208.961V210.961C82.2142 210.961 62.1677 190.834 62.1677 166.066H64.1677ZM107.015 208.961C130.722 208.961 150.227 189.934 150.298 166.135L152.298 166.141C152.224 191.065 131.802 210.961 107.015 210.961V208.961ZM150.298 166.138C150.298 142.272 131.16 123.385 106.794 123.315L106.8 121.315C132.234 121.388 152.298 141.136 152.298 166.138H150.298ZM106.797 123.315C83.3252 123.315 64.2386 142.468 64.1677 166.069L62.1677 166.063C62.2419 141.372 82.2115 121.315 106.797 121.315V123.315ZM214.585 43.7508C214.585 67.4183 233.74 86.6458 257.432 86.6458V88.6458C232.631 88.6458 212.585 68.5192 212.585 43.7508H214.585ZM257.432 86.6458C281.139 86.6458 300.644 67.6195 300.715 43.8199L302.715 43.8259C302.641 68.7504 282.219 88.6458 257.432 88.6458V86.6458ZM300.715 43.8229C300.715 19.9531 281.647 1 257.215 1V-1C282.727 -1 302.715 18.8244 302.715 43.8229H300.715ZM257.215 1C232.813 1 214.656 20.139 214.585 43.7538L212.585 43.7478C212.659 19.0709 231.671 -1 257.215 -1V1Z" fill="url(#paint0_linear_2_3031)" mask="url(#path-1-inside-1_2_3031)"/>
</g>
<defs>
<linearGradient id="paint0_linear_2_3031" x1="422.5" y1="-57.5" x2="87" y2="568" gradientUnits="userSpaceOnUse">
<stop stop-color="white"/>
<stop offset="1" stop-color="white" stop-opacity="0"/>
<stop offset="1" stop-color="white" stop-opacity="0"/>
</linearGradient>
</defs>
</svg>
