<svg width="14" height="11" viewBox="0 0 14 11" fill="none" xmlns="http://www.w3.org/2000/svg">
<path fill-rule="evenodd" clip-rule="evenodd" d="M12.8834 0.866177C13.1175 1.10055 13.249 1.41826 13.249 1.74951C13.249 2.08076 13.1175 2.39847 12.8834 2.63284L5.3834 10.1328C5.14903 10.3669 4.83132 10.4984 4.50007 10.4984C4.16882 10.4984 3.85111 10.3669 3.61674 10.1328L1.11674 7.63284C0.895936 7.39589 0.775731 7.08247 0.781445 6.75864C0.787158 6.4348 0.918345 6.12583 1.14737 5.89681C1.37639 5.66779 1.68536 5.5366 2.0092 5.53089C2.33303 5.52517 2.64644 5.64538 2.8834 5.86618L4.50007 7.48284L11.1167 0.866177C11.3511 0.632093 11.6688 0.50061 12.0001 0.50061C12.3313 0.50061 12.649 0.632093 12.8834 0.866177Z" fill="#10B981"/>
</svg>
