<svg width="40" height="40" viewBox="0 0 40 40" fill="none" xmlns="http://www.w3.org/2000/svg">
<rect x="1" y="1" width="38.0948" height="38.0948" rx="19.0474" stroke="white" stroke-opacity="0.3" stroke-width="1.5"/>
<path d="M29.2403 29.5713H25.543V23.7711C25.543 22.388 25.5183 20.6075 23.6201 20.6075C21.6944 20.6075 21.3997 22.1145 21.3997 23.6704V29.5709H17.7026V17.6434H21.2519V19.2734H21.3016C21.6568 18.665 22.1701 18.1645 22.7868 17.8252C23.4035 17.4859 24.1005 17.3205 24.8036 17.3466C28.5509 17.3466 29.2418 19.8158 29.2418 23.028L29.2403 29.5713ZM13.5307 16.013C12.3458 16.0132 11.385 15.0511 11.3848 13.864C11.3846 12.677 12.345 11.7146 13.53 11.7144C14.7149 11.7141 15.6757 12.6762 15.6759 13.8633C15.676 14.4333 15.4501 14.98 15.0478 15.3832C14.6455 15.7863 14.0998 16.0129 13.5307 16.013ZM15.3794 29.5714H11.6783V17.6434H15.3793L15.3794 29.5714Z" fill="white"/>
</svg>
