<svg width="24" height="25" viewBox="0 0 24 25" fill="none" xmlns="http://www.w3.org/2000/svg">
<path d="M12.0527 8.71814V13.174L15.5552 15.3089" stroke="#E60523" stroke-width="1.5" stroke-linecap="round" stroke-linejoin="round"/>
<path d="M4.20703 9.69052C5.5841 5.79691 9.53044 3.42818 13.6142 4.04398C17.698 4.65979 20.7704 8.08689 20.9381 12.2134C21.1057 16.34 18.3216 20.0051 14.3012 20.9502" stroke="#E60523" stroke-width="1.5" stroke-linecap="round" stroke-linejoin="round"/>
<path fill-rule="evenodd" clip-rule="evenodd" d="M9.99901 21.9507H3.4963C3.22004 21.9507 2.99609 21.7267 2.99609 21.4504V21.0443C2.99939 19.8887 3.93537 18.9527 5.09097 18.9494H8.40435C9.55994 18.9527 10.4959 19.8887 10.4992 21.0443V21.4504C10.4992 21.7267 10.2753 21.9507 9.99901 21.9507Z" stroke="#E60523" stroke-width="1.5" stroke-linecap="round" stroke-linejoin="round"/>
<path fill-rule="evenodd" clip-rule="evenodd" d="M6.74789 16.4483C5.6439 16.4483 4.74854 15.5541 4.74707 14.4502C4.74561 13.3462 5.63859 12.4496 6.74258 12.4467C7.84656 12.4437 8.74431 13.3355 8.74874 14.4395C8.75085 14.9715 8.54099 15.4825 8.16553 15.8595C7.79007 16.2364 7.27993 16.4483 6.74789 16.4483Z" stroke="#E60523" stroke-width="1.5" stroke-linecap="round" stroke-linejoin="round"/>
</svg>
