<svg width="24" height="25" viewBox="0 0 24 25" fill="none" xmlns="http://www.w3.org/2000/svg">
<path d="M12.3548 7.71571C12.5499 7.9108 12.5499 8.22793 12.3548 8.42301C12.1598 8.61809 11.8426 8.61809 11.6475 8.42301C11.4525 8.22793 11.4525 7.9108 11.6475 7.71571C11.8426 7.52063 12.1588 7.52063 12.3548 7.71571" stroke="#E60523" stroke-width="1.5" stroke-linecap="round" stroke-linejoin="round"/>
<path d="M16.312 8.17188V8.17188C16.312 9.34336 15.7918 10.4528 14.8925 11.2031L13.4789 12.3816C12.9156 12.8518 12.4945 13.4691 12.2624 14.1654L12.0002 14.9477L11.7391 14.1644C11.507 13.4691 11.0859 12.8508 10.5226 12.3806L9.10905 11.2021C8.20867 10.4518 7.68945 9.34236 7.68945 8.17088V8.17088V8.19289C7.68845 5.50377 9.91638 3.94312 12.0002 3.94312C14.0841 3.94312 16.312 5.50377 16.312 8.19389" stroke="#E60523" stroke-width="1.5" stroke-linecap="round" stroke-linejoin="round"/>
<path d="M5.99897 12.9468C5.04557 12.9468 4.22423 13.6201 4.03715 14.5555L3.03673 19.5576C2.78863 20.7951 3.73602 21.9506 4.99855 21.9506H19.0034C20.2659 21.9506 21.2133 20.7951 20.9652 19.5576L19.9648 14.5555C19.7777 13.6201 18.9564 12.9468 18.003 12.9468" stroke="#E60523" stroke-width="1.5" stroke-linecap="round" stroke-linejoin="round"/>
</svg>
