<svg width="40" height="40" viewBox="0 0 40 40" fill="none" xmlns="http://www.w3.org/2000/svg">
<rect x="1" y="1" width="38.095" height="38.095" rx="19.0475" stroke="white" stroke-opacity="0.3" stroke-width="1.5"/>
<path d="M20.0413 15.1406C18.7442 15.1406 17.5001 15.6551 16.5829 16.5709C15.6657 17.4867 15.1504 18.7288 15.1504 20.024C15.1504 21.3191 15.6657 22.5612 16.5829 23.477C17.5001 24.3928 18.7442 24.9073 20.0413 24.9073C21.3385 24.9073 22.5825 24.3928 23.4997 23.477C24.4169 22.5612 24.9322 21.3191 24.9322 20.024C24.9322 18.7288 24.4169 17.4867 23.4997 16.5709C22.5825 15.6551 21.3385 15.1406 20.0413 15.1406ZM20.0413 23.1954C19.1986 23.1954 18.3904 22.8611 17.7945 22.2662C17.1987 21.6712 16.8639 20.8643 16.8639 20.0229C16.8639 19.1815 17.1987 18.3746 17.7945 17.7796C18.3904 17.1847 19.1986 16.8504 20.0413 16.8504C20.884 16.8504 21.6922 17.1847 22.2881 17.7796C22.884 18.3746 23.2187 19.1815 23.2187 20.0229C23.2187 20.8643 22.884 21.6712 22.2881 22.2662C21.6922 22.8611 20.884 23.1954 20.0413 23.1954Z" fill="white"/>
<path d="M25.1246 16.0992C25.7543 16.0992 26.2648 15.5895 26.2648 14.9607C26.2648 14.332 25.7543 13.8223 25.1246 13.8223C24.4949 13.8223 23.9844 14.332 23.9844 14.9607C23.9844 15.5895 24.4949 16.0992 25.1246 16.0992Z" fill="white"/>
<path d="M29.0664 13.8041C28.8216 13.1728 28.4474 12.5994 27.9678 12.1208C27.4882 11.6421 26.9139 11.2688 26.2814 11.0245C25.5414 10.7471 24.7596 10.5972 23.9692 10.581C22.9507 10.5366 22.628 10.5239 20.0451 10.5239C17.4621 10.5239 17.131 10.5239 16.1209 10.581C15.3312 10.5963 14.5499 10.7463 13.8108 11.0245C13.1783 11.2685 12.6037 11.6418 12.1241 12.1204C11.6445 12.5991 11.2704 13.1726 11.0259 13.8041C10.748 14.543 10.5981 15.3237 10.5827 16.1127C10.5372 17.1287 10.5234 17.4508 10.5234 20.0308C10.5234 22.6097 10.5234 22.9382 10.5827 23.9489C10.5985 24.7388 10.7477 25.5182 11.0259 26.2585C11.2711 26.8898 11.6456 27.4631 12.1253 27.9417C12.605 28.4203 13.1795 28.7937 13.8119 29.0381C14.5496 29.3266 15.3312 29.4874 16.123 29.5134C17.1416 29.5577 17.4642 29.5714 20.0472 29.5714C22.6302 29.5714 22.9612 29.5714 23.9714 29.5134C24.7616 29.4973 25.5434 29.3477 26.2835 29.0709C26.9158 28.8261 27.49 28.4523 27.9695 27.9736C28.449 27.4948 28.8233 26.9215 29.0685 26.2902C29.3467 25.5509 29.4959 24.7715 29.5117 23.9816C29.5572 22.9656 29.571 22.6435 29.571 20.0635C29.571 17.4835 29.571 17.1561 29.5117 16.1455C29.4994 15.3452 29.3488 14.5531 29.0664 13.8041ZM27.7781 23.8707C27.7713 24.4793 27.66 25.0823 27.4492 25.6534C27.2903 26.0641 27.0471 26.437 26.7353 26.7482C26.4234 27.0594 26.0497 27.302 25.6383 27.4603C25.0727 27.6699 24.4752 27.781 23.8719 27.7888C22.8671 27.8352 22.5836 27.8469 20.007 27.8469C17.4283 27.8469 17.1649 27.8469 16.141 27.7888C15.538 27.7814 14.9408 27.6703 14.3757 27.4603C13.9628 27.303 13.5877 27.0608 13.2745 26.7495C12.9613 26.4383 12.717 26.0648 12.5574 25.6534C12.3495 25.0884 12.2383 24.4926 12.2285 23.8908C12.183 22.8875 12.1724 22.6045 12.1724 20.0318C12.1724 17.4582 12.1724 17.1952 12.2285 16.1719C12.2353 15.5636 12.3466 14.961 12.5574 14.3902C12.8801 13.557 13.5411 12.9012 14.3757 12.5822C14.9411 12.3733 15.5381 12.2622 16.141 12.2538C17.1469 12.2084 17.4293 12.1957 20.007 12.1957C22.5847 12.1957 22.8491 12.1957 23.8719 12.2538C24.4753 12.261 25.0728 12.3721 25.6383 12.5822C26.0497 12.7409 26.4233 12.9838 26.7352 13.2951C27.047 13.6065 27.2902 13.9795 27.4492 14.3902C27.6571 14.9552 27.7683 15.5511 27.7781 16.1529C27.8236 17.1572 27.8352 17.4392 27.8352 20.0128C27.8352 22.5855 27.8352 22.8622 27.7897 23.8718H27.7781V23.8707Z" fill="white"/>
</svg>
