<svg width="19" height="21" viewBox="0 0 19 21" fill="none" xmlns="http://www.w3.org/2000/svg">
<path d="M17.3125 1.625H14.9688V0.84375C14.9688 0.63655 14.8864 0.437836 14.7399 0.291323C14.5934 0.14481 14.3947 0.0625 14.1875 0.0625C13.9803 0.0625 13.7816 0.14481 13.6351 0.291323C13.4886 0.437836 13.4062 0.63655 13.4062 0.84375V1.625H5.59375V0.84375C5.59375 0.63655 5.51144 0.437836 5.36493 0.291323C5.21841 0.14481 5.0197 0.0625 4.8125 0.0625C4.6053 0.0625 4.40659 0.14481 4.26007 0.291323C4.11356 0.437836 4.03125 0.63655 4.03125 0.84375V1.625H1.6875C1.2731 1.625 0.875671 1.78962 0.582646 2.08265C0.28962 2.37567 0.125 2.7731 0.125 3.1875V18.8125C0.125 19.2269 0.28962 19.6243 0.582646 19.9174C0.875671 20.2104 1.2731 20.375 1.6875 20.375H17.3125C17.7269 20.375 18.1243 20.2104 18.4174 19.9174C18.7104 19.6243 18.875 19.2269 18.875 18.8125V3.1875C18.875 2.7731 18.7104 2.37567 18.4174 2.08265C18.1243 1.78962 17.7269 1.625 17.3125 1.625ZM4.03125 3.1875V3.96875C4.03125 4.17595 4.11356 4.37466 4.26007 4.52118C4.40659 4.66769 4.6053 4.75 4.8125 4.75C5.0197 4.75 5.21841 4.66769 5.36493 4.52118C5.51144 4.37466 5.59375 4.17595 5.59375 3.96875V3.1875H13.4062V3.96875C13.4062 4.17595 13.4886 4.37466 13.6351 4.52118C13.7816 4.66769 13.9803 4.75 14.1875 4.75C14.3947 4.75 14.5934 4.66769 14.7399 4.52118C14.8864 4.37466 14.9688 4.17595 14.9688 3.96875V3.1875H17.3125V6.3125H1.6875V3.1875H4.03125ZM17.3125 18.8125H1.6875V7.875H17.3125V18.8125Z" fill="#CB1022"/>
</svg>
