<svg width="43" height="43" viewBox="0 0 43 43" fill="none" xmlns="http://www.w3.org/2000/svg">
<path d="M3.58398 14.3334H7.16732L19.6821 19.8086C20.6886 20.249 21.1515 21.4189 20.7187 22.4287L19.601 25.0368C19.1659 26.052 17.9901 26.5223 16.9749 26.0872L12.5423 24.1875" stroke="#E60523" stroke-width="1.5" stroke-linecap="round" stroke-linejoin="round"/>
<path d="M3.91939 29.7876C3.54891 29.6023 3.09841 29.7525 2.91316 30.123C2.72792 30.4934 2.87809 30.944 3.24857 31.1292L3.91939 29.7876ZM20.0444 24.4126L19.3736 24.0771L18.7028 25.4188L19.3736 25.7542L20.0444 24.4126ZM28.2921 29.4167H33.834V27.9167H28.2921V29.4167ZM35.084 30.6667V33.8334H36.584V30.6667H35.084ZM33.834 35.0834H16.2225V36.5834H33.834V35.0834ZM12.9802 34.318L3.91939 29.7876L3.24857 31.1292L12.3094 35.6596L12.9802 34.318ZM25.9442 27.3624L20.0444 24.4126L19.3736 25.7542L25.2734 28.7041L25.9442 27.3624ZM16.2225 35.0834C15.097 35.0834 13.9869 34.8213 12.9802 34.318L12.3094 35.6596C13.5244 36.2671 14.8641 36.5834 16.2225 36.5834V35.0834ZM35.084 33.8334C35.084 34.5237 34.5243 35.0834 33.834 35.0834V36.5834C35.3528 36.5834 36.584 35.3522 36.584 33.8334H35.084ZM33.834 29.4167C34.5243 29.4167 35.084 29.9764 35.084 30.6667H36.584C36.584 29.1479 35.3528 27.9167 33.834 27.9167V29.4167ZM28.2921 27.9167C27.477 27.9167 26.6732 27.7269 25.9442 27.3624L25.2734 28.7041C26.2106 29.1727 27.2442 29.4167 28.2921 29.4167V27.9167Z" fill="#E60523"/>
<circle opacity="0.5" cx="32.2507" cy="14.3333" r="7.16667" stroke="#E60523" stroke-width="1.5"/>
</svg>
