<svg width="44" height="44" viewBox="0 0 44 44" fill="none" xmlns="http://www.w3.org/2000/svg">
<path d="M38.1185 17.4597C39.5669 18.9081 39.5669 21.2564 38.1185 22.7048C36.6701 24.1532 34.3218 24.1532 32.8734 22.7048C31.425 21.2564 31.425 18.9081 32.8734 17.4597C34.3218 16.0113 36.6701 16.0113 38.1185 17.4597" stroke="#E60523" stroke-width="1.5" stroke-linecap="round" stroke-linejoin="round"/>
<path d="M26.0381 10.8393C28.2683 13.0695 28.2683 16.6854 26.0381 18.9156C23.8079 21.1458 20.192 21.1458 17.9617 18.9156C15.7315 16.6854 15.7315 13.0695 17.9617 10.8393C20.1919 8.60907 23.8078 8.60907 26.0381 10.8393" stroke="#E60523" stroke-width="1.5" stroke-linecap="round" stroke-linejoin="round"/>
<path d="M11.1243 17.4597C12.5727 18.9081 12.5727 21.2564 11.1243 22.7048C9.67595 24.1532 7.32765 24.1532 5.87926 22.7048C4.43087 21.2564 4.43087 18.9081 5.87926 17.4597C7.32765 16.0113 9.67595 16.0113 11.1243 17.4597" stroke="#E60523" stroke-width="1.5" stroke-linecap="round" stroke-linejoin="round"/>
<path d="M42.1651 34.8333V32.8239C42.1651 30.2921 40.1136 28.2406 37.5818 28.2406H36.1133" stroke="#E60523" stroke-width="1.5" stroke-linecap="round" stroke-linejoin="round"/>
<path d="M1.83203 34.8333V32.8239C1.83203 30.2921 3.88353 28.2406 6.41536 28.2406H7.88386" stroke="#E60523" stroke-width="1.5" stroke-linecap="round" stroke-linejoin="round"/>
<path d="M31.7872 34.8333V31.8981C31.7872 28.3543 28.9143 25.4814 25.3705 25.4814H18.6257C15.0818 25.4814 12.209 28.3543 12.209 31.8981V34.8333" stroke="#E60523" stroke-width="1.5" stroke-linecap="round" stroke-linejoin="round"/>
</svg>
