<svg width="40" height="40" viewBox="0 0 40 40" fill="none" xmlns="http://www.w3.org/2000/svg">
<rect x="1" y="1" width="38.095" height="38.095" rx="19.0475" stroke="white" stroke-opacity="0.3" stroke-width="1.5"/>
<path fill-rule="evenodd" clip-rule="evenodd" d="M19.8522 13.7977C17.1967 13.7977 14.967 13.8991 13.3157 14.011C12.4494 14.0698 11.7531 14.7531 11.6927 15.6813C11.5994 17.1161 11.5189 18.7407 11.5189 20.0476C11.5189 21.3546 11.5994 22.9792 11.6927 24.414C11.7531 25.3422 12.4494 26.0255 13.3157 26.0842C14.967 26.1962 17.1967 26.2976 19.8522 26.2976C22.5076 26.2976 24.7373 26.1962 26.3886 26.0842C27.255 26.0255 27.9513 25.3422 28.0116 24.414C28.1049 22.9792 28.1855 21.3546 28.1855 20.0476C28.1855 18.7407 28.1049 17.1161 28.0116 15.6813C27.9513 14.7531 27.255 14.0698 26.3886 14.011C24.7373 13.8991 22.5076 13.7977 19.8522 13.7977ZM13.1748 11.9325C11.236 12.0639 9.73987 13.607 9.61378 15.5461C9.51963 16.994 9.43555 18.6722 9.43555 20.0476C9.43555 21.4231 9.51963 23.1013 9.61378 24.5492C9.73987 26.4883 11.236 28.0314 13.1748 28.1628C14.8671 28.2775 17.1441 28.3809 19.8522 28.3809C22.5602 28.3809 24.8372 28.2775 26.5295 28.1628C28.4683 28.0314 29.9645 26.4883 30.0905 24.5492C30.1847 23.1013 30.2688 21.4231 30.2688 20.0476C30.2688 18.6722 30.1847 16.994 30.0905 15.5461C29.9645 13.607 28.4683 12.0639 26.5295 11.9325C24.8372 11.8178 22.5602 11.7144 19.8522 11.7144C17.1441 11.7144 14.8671 11.8178 13.1748 11.9325Z" fill="white"/>
<path d="M17.7695 17.9658C17.7695 17.1353 18.6938 16.6387 19.3863 17.0972L22.5044 19.1618C23.1389 19.582 23.1389 20.5135 22.5043 20.9336L19.3862 22.9979C18.6938 23.4564 17.7695 22.9598 17.7695 22.1294V17.9658Z" fill="white"/>
</svg>
