<svg width="20" height="20" viewBox="0 0 20 20" fill="none" xmlns="http://www.w3.org/2000/svg">
<path d="M13.3327 1.66666V5" stroke="#E40521" stroke-width="1.5" stroke-linecap="round" stroke-linejoin="round"/>
<path d="M6.66667 1.66666V5" stroke="#E40521" stroke-width="1.5" stroke-linecap="round" stroke-linejoin="round"/>
<path d="M2.5 7.49999H17.5" stroke="#E40521" stroke-width="1.5" stroke-linecap="round" stroke-linejoin="round"/>
<path fill-rule="evenodd" clip-rule="evenodd" d="M15.8333 3.33333H4.16667C3.24583 3.33333 2.5 4.07916 2.5 4.99999V15.8333C2.5 16.7542 3.24583 17.5 4.16667 17.5H15.8333C16.7542 17.5 17.5 16.7542 17.5 15.8333V4.99999C17.5 4.07916 16.7542 3.33333 15.8333 3.33333Z" stroke="#E40521" stroke-width="1.5" stroke-linecap="round" stroke-linejoin="round"/>
<path d="M5.84357 10.6075C5.72857 10.6075 5.63524 10.7008 5.63607 10.8158C5.63607 10.9308 5.7294 11.0242 5.8444 11.0242C5.9594 11.0242 6.05274 10.9308 6.05274 10.8158C6.05274 10.7008 5.9594 10.6075 5.84357 10.6075" stroke="#E40521" stroke-width="1.5" stroke-linecap="round" stroke-linejoin="round"/>
<path d="M10.0115 10.6075C9.89654 10.6075 9.80321 10.7008 9.80404 10.8158C9.80404 10.9308 9.89737 11.0242 10.0124 11.0242C10.1274 11.0242 10.2207 10.9308 10.2207 10.8158C10.2207 10.7008 10.1274 10.6075 10.0115 10.6075" stroke="#E40521" stroke-width="1.5" stroke-linecap="round" stroke-linejoin="round"/>
<path d="M14.1776 10.6075C14.0626 10.6075 13.9692 10.7008 13.9701 10.8158C13.9701 10.9308 14.0634 11.0242 14.1784 11.0242C14.2934 11.0242 14.3867 10.9308 14.3867 10.8158C14.3867 10.7008 14.2934 10.6075 14.1776 10.6075" stroke="#E40521" stroke-width="1.5" stroke-linecap="round" stroke-linejoin="round"/>
<path d="M5.84357 13.9408C5.72857 13.9408 5.63524 14.0342 5.63607 14.1492C5.63607 14.2642 5.7294 14.3575 5.8444 14.3575C5.9594 14.3575 6.05274 14.2642 6.05274 14.1492C6.05274 14.0342 5.9594 13.9408 5.84357 13.9408" stroke="#E40521" stroke-width="1.5" stroke-linecap="round" stroke-linejoin="round"/>
<path d="M10.0115 13.9408C9.89654 13.9408 9.80321 14.0342 9.80404 14.1492C9.80404 14.2642 9.89737 14.3575 10.0124 14.3575C10.1274 14.3575 10.2207 14.2642 10.2207 14.1492C10.2207 14.0342 10.1274 13.9408 10.0115 13.9408" stroke="#E40521" stroke-width="1.5" stroke-linecap="round" stroke-linejoin="round"/>
</svg>
