<svg width="169" height="59" viewBox="0 0 169 59" fill="none" xmlns="http://www.w3.org/2000/svg">
<path d="M34.0194 4.961C34.0194 7.71353 31.811 9.94329 29.0691 9.94329C26.2953 9.94329 24.0762 7.73487 24.0762 4.97167C24.0762 2.1978 26.2846 3.8126e-05 29.1011 3.8126e-05C31.811 -0.0106306 34.0194 2.21913 34.0194 4.961Z" fill="white"/>
<path d="M166.087 39.3569C166.087 41.1492 164.903 42.5682 163.078 42.5682C161.233 42.5682 160.048 41.1599 160.048 39.3569C160.048 37.5432 161.233 36.1456 163.078 36.1456C164.913 36.1456 166.087 37.5432 166.087 39.3569ZM157.146 39.3569C157.146 42.7282 159.686 45.0967 163.078 45.0967C166.471 45.0967 168.999 42.7389 168.999 39.3569C168.999 35.9856 166.471 33.6171 163.078 33.6171C159.686 33.6171 157.146 35.9856 157.146 39.3569ZM151.225 45.086C153.988 45.086 155.429 43.539 156.144 42.1094L153.679 40.9465C153.316 41.832 152.367 42.5575 151.215 42.5575C149.486 42.5575 148.206 41.1599 148.206 39.3462C148.206 37.5325 149.486 36.1349 151.215 36.1349C152.356 36.1349 153.306 36.8711 153.679 37.7459L156.144 36.583C155.407 35.1214 153.978 33.6064 151.225 33.6064C147.897 33.6064 145.304 35.9216 145.304 39.3462C145.315 42.7602 147.907 45.086 151.225 45.086ZM134.667 43.3257C135.777 44.3925 137.345 45.086 139.586 45.086C142.562 45.086 144.205 43.603 144.205 41.3839C144.205 38.8768 141.677 38.3434 139.852 37.9593C138.625 37.7246 137.943 37.5219 137.943 36.9458C137.943 36.4657 138.305 36.0816 139.255 36.0816C140.236 36.0816 141.453 36.4657 142.381 37.2338L143.939 35.1854C142.754 34.1719 141.207 33.6385 139.436 33.6385C136.598 33.6385 135.019 35.2494 135.019 37.1165C135.019 39.741 137.58 40.2104 139.404 40.5731C140.589 40.8185 141.303 41.0746 141.303 41.704C141.303 42.2374 140.706 42.6535 139.724 42.6535C138.209 42.6535 136.982 41.9921 136.182 41.1919L134.667 43.3257ZM130.784 39.3569C130.784 41.1492 129.6 42.5682 127.775 42.5682C125.93 42.5682 124.745 41.1599 124.745 39.3569C124.745 37.5432 125.93 36.1456 127.775 36.1456C129.6 36.1456 130.784 37.5432 130.784 39.3569ZM121.833 39.3569C121.833 42.7282 124.372 45.0967 127.765 45.0967C131.157 45.0967 133.686 42.7389 133.686 39.3569C133.686 35.9856 131.157 33.6171 127.765 33.6171C124.383 33.6171 121.833 35.9856 121.833 39.3569ZM113.629 40.4558H116.509C117.203 40.4558 117.608 40.9359 117.608 41.5013C117.608 42.0988 117.192 42.5148 116.509 42.5148H113.629V40.4558ZM113.629 36.1776H116.403C116.989 36.1776 117.384 36.5724 117.384 37.1271C117.384 37.6819 116.989 38.0873 116.403 38.0873H113.629V36.1776ZM117.245 44.894C119.422 44.894 120.499 43.4964 120.499 41.8854C120.499 40.4878 119.571 39.3569 118.387 39.1755C119.432 38.9408 120.286 38.0126 120.286 36.6364C120.286 35.2388 119.24 33.8091 117.043 33.8091H110.759V44.894H117.245ZM103.856 44.894V33.7985H100.976V40.1784L96.484 33.7985H93.5394V44.8833H96.3986V38.1833L101.082 44.8833H103.856V44.894ZM88.8559 39.3569C88.8559 41.1492 87.6716 42.5682 85.8473 42.5682C84.0016 42.5682 82.8174 41.1599 82.8174 39.3569C82.8174 37.5432 84.0016 36.1456 85.8473 36.1456C87.6716 36.1456 88.8559 37.5432 88.8559 39.3569ZM79.9155 39.3569C79.9155 42.7282 82.4546 45.0967 85.8473 45.0967C89.2399 45.0967 91.7684 42.7389 91.7684 39.3569C91.7684 35.9856 89.2399 33.6171 85.8473 33.6171C82.4546 33.6171 79.9155 35.9856 79.9155 39.3569ZM70.9217 36.295H72.7354C74.7625 36.295 75.7973 37.6286 75.7973 39.3356C75.7973 40.9785 74.6664 42.3975 72.7247 42.3975H70.9324V36.295H70.9217ZM72.7354 44.894C76.2134 44.894 78.7206 42.7816 78.7206 39.3462C78.7206 35.9002 76.2134 33.8091 72.7141 33.8091H68.0625V44.894H72.7354Z" fill="white"/>
<path d="M46.5557 37.7138V38.3752C46.5557 44.4458 46.5557 50.5269 46.5557 56.5974C46.5557 57.1415 46.545 57.6963 46.5663 58.2404C46.577 58.5071 46.481 58.5818 46.2249 58.5818C44.1232 58.5712 42.0321 58.5712 39.9304 58.5818C39.5783 58.5818 39.5677 58.4111 39.5677 58.1551C39.5677 54.389 39.5677 50.623 39.5677 46.8569C39.5677 41.5759 39.5677 36.2948 39.5677 31.0032C39.5677 30.6404 39.4503 30.395 39.1942 30.139C37.1352 28.0906 35.0868 26.0209 33.0277 23.9725C32.9104 23.8551 32.793 23.7591 32.601 23.5777C32.5796 23.8338 32.5476 23.9938 32.5476 24.1645C32.5476 28.5814 32.5476 32.9982 32.5476 37.4151C32.5476 44.3391 32.5476 51.2524 32.5583 58.1764C32.5583 58.4751 32.4943 58.6032 32.1529 58.6032C30.0938 58.5925 28.0241 58.5925 25.9544 58.6032C25.6343 58.6032 25.5169 58.5071 25.5383 58.1978C25.5596 57.8563 25.5383 57.515 25.5383 57.1736C25.5383 46.1634 25.5383 35.164 25.5383 24.1538C25.5383 24.0045 25.5169 23.8551 25.5063 23.6204C25.3462 23.7378 25.2502 23.8018 25.1649 23.8871C23.0418 26.0102 20.9294 28.1333 18.8063 30.2457C18.6036 30.4484 18.5289 30.6618 18.5289 30.9498C18.5289 34.6092 18.5289 38.2686 18.5289 41.9173C18.5289 47.337 18.5289 52.746 18.5289 58.1657C18.5289 58.6032 18.5289 58.6032 18.0915 58.6032C16.0431 58.6032 14.0054 58.5925 11.9676 58.6138C11.6262 58.6138 11.5409 58.5071 11.5409 58.1871C11.5516 51.5405 11.5516 44.8938 11.5516 38.2472C11.5516 38.0765 11.5302 37.9058 11.5302 37.7458L11.4342 37.7031C11.2955 37.8311 11.1462 37.9485 11.0181 38.0765C8.9804 40.1143 6.93201 42.1627 4.89428 44.2004C4.54221 44.5524 4.54221 44.5524 4.19014 44.2004C2.86722 42.8775 1.55497 41.5652 0.232045 40.2423C-0.0773483 39.9329 -0.0773483 39.9329 0.232045 39.6235C2.00305 37.8525 3.77406 36.0815 5.54507 34.3211C9.07642 30.7898 12.6078 27.2584 16.1391 23.7271C18.6249 21.2413 21.1107 18.7555 23.5966 16.2803C25.3142 14.5626 27.0319 12.845 28.7389 11.138C29.0803 10.7966 29.0803 10.8073 29.4217 11.1487C33.3905 15.1281 37.3699 19.0969 41.3387 23.0763C44.7953 26.533 48.2413 29.9896 51.698 33.4463C53.7571 35.516 55.8268 37.5751 57.8965 39.6342C58.2059 39.9436 58.2166 39.9542 57.9072 40.2529C56.5523 41.6079 55.1973 42.9521 53.8531 44.3071C53.6504 44.5098 53.533 44.5204 53.3303 44.3071C51.2606 42.2267 49.1695 40.1463 47.0891 38.0659C46.9717 37.9485 46.8331 37.8311 46.705 37.7245C46.6517 37.6924 46.5983 37.7031 46.5557 37.7138Z" fill="white"/>
<path d="M12.0429 23.8338C9.29035 23.8338 7.04992 21.5721 7.06058 18.8302C7.08192 16.0457 9.30102 13.8693 12.1496 13.8799C14.7954 13.8799 17.0252 16.1524 17.0358 18.8409C17.0572 21.5614 14.7847 23.8338 12.0429 23.8338Z" fill="white"/>
<path d="M50.9921 18.8516C50.9921 21.6042 48.7837 23.8339 46.0418 23.8339C43.2679 23.8339 41.0488 21.6255 41.0488 18.8623C41.0488 16.0884 43.2573 13.8907 46.0738 13.8907C48.7837 13.88 50.9814 16.1098 50.9921 18.8516Z" fill="white"/>
<path d="M72.2248 54.2289H68.7147L68.0533 55.8505H67.4238L70.123 49.2466H70.8272L73.5263 55.8505H72.8969L72.2248 54.2289ZM68.8854 53.7168H72.0434L70.4644 49.812L68.8854 53.7168Z" fill="white"/>
<path d="M74.9336 57.6748V51.0709H75.4457V51.8284C75.7871 51.3376 76.3952 50.9429 77.11 50.9429C78.3903 50.9429 79.2438 51.9137 79.2438 53.45C79.2438 54.9756 78.3796 55.9678 77.11 55.9678C76.4379 55.9678 75.8298 55.6264 75.4457 55.0823V57.6748H74.9336ZM77.0247 51.423C76.3632 51.423 75.7231 51.8177 75.4457 52.2871V54.6449C75.7231 55.1037 76.3525 55.5198 77.0247 55.5198C78.0915 55.5198 78.6997 54.6343 78.6997 53.4714C78.6997 52.3085 78.0915 51.423 77.0247 51.423Z" fill="white"/>
<path d="M83.074 50.9536C84.5249 50.9536 85.3357 52.1058 85.3357 53.4928V53.6315H81.335C81.3883 54.6663 82.0818 55.5305 83.1913 55.5305C83.8101 55.5305 84.3542 55.3065 84.7703 54.869L85.037 55.2104C84.5569 55.7012 83.9595 55.9786 83.17 55.9786C81.7724 55.9786 80.7695 54.9437 80.7695 53.4608C80.7695 52.0738 81.7511 50.9536 83.074 50.9536ZM81.335 53.2261H84.813C84.8023 52.4152 84.2689 51.4017 83.074 51.4017C81.9324 51.4017 81.367 52.3939 81.335 53.2261Z" fill="white"/>
<path d="M87.1289 49.2573H87.641V55.8613H87.1289V49.2573Z" fill="white"/>
<path d="M93.2317 55.093C92.8903 55.5838 92.2821 55.9785 91.5673 55.9785C90.2978 55.9785 89.4336 55.0077 89.4336 53.4714C89.4336 51.9564 90.3084 50.9536 91.5673 50.9536C92.2395 50.9536 92.8476 51.295 93.2317 51.8391V49.2466H93.7544V55.8505H93.2317V55.093ZM93.2317 52.2978C92.9543 51.8284 92.3355 51.423 91.6527 51.423C90.5965 51.423 89.9777 52.3085 89.9777 53.4714C89.9777 54.6236 90.5965 55.5091 91.6527 55.5091C92.3248 55.5091 92.9543 55.1144 93.2317 54.6556V52.2978Z" fill="white"/>
<path d="M95.5469 53.4608C95.5469 52.0632 96.443 50.9536 97.8407 50.9536C99.2596 50.9536 100.145 52.0632 100.145 53.4608C100.145 54.8584 99.2596 55.9786 97.8407 55.9786C96.4537 55.9786 95.5469 54.8584 95.5469 53.4608ZM99.601 53.4608C99.601 52.4046 98.9822 51.423 97.8513 51.423C96.7418 51.423 96.1123 52.4046 96.1123 53.4608C96.1123 54.5276 96.7418 55.5092 97.8513 55.5092C98.9715 55.5092 99.601 54.5276 99.601 53.4608Z" fill="white"/>
<path d="M101.67 53.4608C101.67 52.0632 102.566 50.9536 103.964 50.9536C105.383 50.9536 106.268 52.0632 106.268 53.4608C106.268 54.8584 105.383 55.9786 103.964 55.9786C102.566 55.9786 101.67 54.8584 101.67 53.4608ZM105.713 53.4608C105.713 52.4046 105.095 51.423 103.964 51.423C102.854 51.423 102.225 52.4046 102.225 53.4608C102.225 54.5276 102.854 55.5092 103.964 55.5092C105.095 55.5092 105.713 54.5276 105.713 53.4608Z" fill="white"/>
<path d="M108.061 51.0711H108.573V51.8926C108.978 51.3592 109.522 50.9751 110.184 50.9751V51.5405C110.098 51.5299 110.024 51.5192 109.928 51.5192C109.447 51.5192 108.786 51.9566 108.573 52.3727V55.8614H108.061V51.0711Z" fill="white"/>
<path d="M114.891 52.6287C114.891 51.7005 114.421 51.4231 113.728 51.4231C113.109 51.4231 112.48 51.8179 112.17 52.2446V55.8613H111.658V51.0817H112.17V51.8072C112.512 51.3911 113.194 50.9644 113.888 50.9644C114.859 50.9644 115.392 51.4444 115.392 52.522V55.872H114.88V52.6287H114.891Z" fill="white"/>
</svg>
