<svg width="80" height="22" viewBox="0 0 80 22" fill="none" xmlns="http://www.w3.org/2000/svg">
<path fill-rule="evenodd" clip-rule="evenodd" d="M33.0832 18.158H33.0477C33.0636 18.158 33.0743 18.1757 33.0903 18.1774H33.1009L33.0832 18.1597V18.158ZM33.0903 18.1774C32.9252 18.1792 32.5097 18.266 32.0711 18.266C30.6861 18.266 30.2067 17.6284 30.2067 16.7959V11.2503H33.0299C33.1897 11.2503 33.314 11.1086 33.314 10.9138V7.90278C33.314 7.74338 33.172 7.60168 33.0299 7.60168H30.2067V3.86447C30.2067 3.72278 30.118 3.63422 29.9582 3.63422H26.1229C25.9631 3.63422 25.8743 3.72278 25.8743 3.86447V7.70795C25.8743 7.70795 23.9389 8.18617 23.8146 8.20388C23.6726 8.23931 23.5838 8.36329 23.5838 8.50499V10.9138C23.5838 11.1086 23.7259 11.2503 23.8857 11.2503H25.8566V17.0598C25.8566 21.3815 28.875 21.8243 30.9347 21.8243C31.8758 21.8243 33.0122 21.5232 33.1897 21.4347C33.2962 21.3992 33.3495 21.2753 33.3495 21.1513V18.4945C33.352 18.4191 33.3271 18.3454 33.2795 18.2869C33.2319 18.2283 33.1647 18.1888 33.0903 18.1757V18.1774ZM75.1645 14.2791C75.1645 11.0732 73.8683 10.6481 72.5011 10.7898C71.4357 10.8607 70.5835 11.392 70.5835 11.392V17.6266C70.5835 17.6266 71.4535 18.2288 72.7497 18.2642C74.5785 18.3174 75.1645 17.662 75.1645 14.2791ZM79.4791 13.9957C79.4791 20.0708 77.5082 21.8066 74.0636 21.8066C71.1517 21.8066 69.5891 20.3365 69.5891 20.3365C69.5891 20.3365 69.5181 21.1513 69.4293 21.2575C69.3761 21.3638 69.2873 21.3992 69.1808 21.3992H66.5529C66.3753 21.3992 66.2155 21.2575 66.2155 21.0981L66.251 1.42023C66.251 1.26083 66.3931 1.11913 66.5529 1.11913H70.3349C70.4947 1.11913 70.6367 1.26083 70.6367 1.42023V8.09761C70.6367 8.09761 72.0927 7.15888 74.2234 7.15888L74.2057 7.12346C76.3364 7.12346 79.4791 7.9205 79.4791 13.9957ZM63.9961 7.60168H60.2673C60.072 7.60168 59.9655 7.74338 59.9655 7.93821V17.5735C59.9655 17.5735 58.9889 18.2642 57.6572 18.2642C56.3255 18.2642 55.9349 17.662 55.9349 16.3336V7.92049C55.9349 7.76109 55.7929 7.61939 55.6331 7.61939H51.8333C51.6735 7.61939 51.5315 7.76109 51.5315 7.92049V16.9713C51.5315 20.8679 53.7154 21.842 56.7162 21.842C59.1842 21.842 61.1906 20.4782 61.1906 20.4782C61.1906 20.4782 61.2794 21.169 61.3327 21.2753C61.3682 21.3638 61.4925 21.4347 61.6168 21.4347H63.9961C64.1914 21.4347 64.2979 21.293 64.2979 21.1336L64.3334 7.90278C64.3334 7.74338 64.1914 7.60168 63.9961 7.60168ZM21.9148 7.58397H18.1328C17.973 7.58397 17.8309 7.74338 17.8309 7.93821V20.9387C17.8309 21.293 18.0618 21.4169 18.3636 21.4169H21.7727C22.1278 21.4169 22.2166 21.2575 22.2166 20.9387V7.88507C22.2166 7.72566 22.0746 7.58397 21.9148 7.58397ZM20.0504 1.59735C18.6832 1.59735 17.6001 2.67778 17.6001 4.04159C17.6001 5.40541 18.6832 6.48583 20.0504 6.48583C21.3821 6.48583 22.4652 5.40541 22.4652 4.04159C22.4652 2.67778 21.3821 1.59735 20.0504 1.59735ZM49.3298 1.15456H45.5833C45.4235 1.15456 45.2814 1.29625 45.2814 1.45566V8.69982H39.4042V1.45566C39.4042 1.29625 39.2622 1.15456 39.1024 1.15456H35.3204C35.1606 1.15456 35.0186 1.29625 35.0186 1.45566V21.1336C35.0186 21.293 35.1784 21.4347 35.3204 21.4347H39.1024C39.2622 21.4347 39.4042 21.293 39.4042 21.1336V12.7204H45.2814L45.2459 21.1336C45.2459 21.293 45.388 21.4347 45.5478 21.4347H49.3298C49.4896 21.4347 49.6316 21.293 49.6316 21.1336V1.45566C49.6316 1.29625 49.4896 1.15456 49.3298 1.15456ZM15.8245 9.8688V20.0354C15.8245 20.1063 15.8068 20.2303 15.718 20.2657C15.718 20.2657 13.4985 21.842 9.84081 21.842C5.41961 21.842 0.181641 20.4605 0.181641 11.3566C0.181641 2.25269 4.76264 0.375234 9.23711 0.392946C13.1079 0.392946 14.6704 1.26083 14.919 1.42023C14.99 1.50879 15.0255 1.57964 15.0255 1.6682L14.2798 4.82092C14.2798 4.98032 14.12 5.17515 13.9246 5.12202C13.2854 4.92719 12.3266 4.53753 10.0716 4.53753C7.46153 4.53753 4.65611 5.28142 4.65611 11.1441C4.65611 17.0067 7.31948 17.6975 9.23711 17.6975C10.8706 17.6975 11.4566 17.5026 11.4566 17.5026V13.4289H8.84648C8.65117 13.4289 8.50912 13.2872 8.50912 13.1278V9.8688C8.50912 9.70939 8.65117 9.5677 8.84648 9.5677H15.4872C15.6825 9.5677 15.8245 9.70939 15.8245 9.8688Z" fill="white"/>
</svg>
