<svg width="51" height="31" viewBox="0 0 51 31" fill="none" xmlns="http://www.w3.org/2000/svg">
<path d="M8.47253 0.139648V7.12929H0.484375V24.0328H13.4651V0.139648H8.47253ZM8.47253 20.11H5.47697V11.1947H8.47253V20.11ZM15.4622 7.12929H20.4548V24.1041H15.4622V7.12929ZM15.4622 0.139648H20.4548V5.13225H15.4622V0.139648ZM22.4518 7.12929V24.0328H30.44V26.0298H22.4518V30.0952H35.4326V7.12929H22.4518ZM30.44 20.11H27.4444V11.1947H30.44V20.11ZM37.4296 7.12929V24.0328H45.4177V26.0298H37.4296V30.0952H50.4103V7.12929H37.4296ZM45.4177 20.11H42.4222V11.1947H45.4177V20.11Z" fill="white"/>
</svg>
