<svg width="142" height="31" viewBox="0 0 142 31" fill="none" xmlns="http://www.w3.org/2000/svg">
<path d="M141.484 13.6875V11.2139H138.404V7.3685L138.301 7.40037L135.408 8.28299L135.351 8.30031V11.2142H130.786V9.59126C130.786 8.83559 130.956 8.25689 131.29 7.87109C131.621 7.48996 132.095 7.29623 132.7 7.29623C133.135 7.29623 133.585 7.39845 134.039 7.60015L134.152 7.65043V5.04544L134.099 5.02593C133.676 4.87424 133.101 4.79785 132.388 4.79785C131.49 4.79785 130.674 4.99295 129.962 5.3793C129.25 5.76621 128.69 6.31853 128.297 7.02117C127.906 7.7227 127.708 8.53305 127.708 9.42969V11.2142H125.564V13.6878H127.708V24.1086H130.786V13.6875H135.351V20.3099C135.351 23.0375 136.641 24.42 139.185 24.42C139.603 24.42 140.042 24.3708 140.492 24.2751C140.949 24.177 141.26 24.0789 141.443 23.974L141.484 23.9503V21.4536L141.359 21.536C141.192 21.6476 140.984 21.738 140.74 21.8053C140.494 21.874 140.29 21.9087 140.132 21.9087C139.536 21.9087 139.095 21.7485 138.821 21.4325C138.545 21.1137 138.404 20.5559 138.404 19.7755V13.6875H141.484ZM118.689 21.9092C117.572 21.9092 116.691 21.5393 116.07 20.8114C115.446 20.0797 115.129 19.0366 115.129 17.7113C115.129 16.3442 115.446 15.2739 116.071 14.5292C116.692 13.7895 117.564 13.4141 118.664 13.4141C119.732 13.4141 120.582 13.7727 121.19 14.4803C121.802 15.192 122.112 16.2535 122.112 17.6368C122.112 19.0368 121.82 20.1126 121.244 20.832C120.673 21.5462 119.813 21.9092 118.689 21.9092ZM118.827 10.9034C116.695 10.9034 115.002 11.5263 113.795 12.7552C112.588 13.9843 111.977 15.6847 111.977 17.8105C111.977 19.8293 112.574 21.4533 113.752 22.6363C114.929 23.8201 116.532 24.4197 118.514 24.4197C120.581 24.4197 122.24 23.7877 123.447 22.542C124.654 21.2973 125.265 19.6128 125.265 17.5368C125.265 15.4863 124.691 13.8502 123.559 12.6749C122.427 11.4994 120.834 10.9034 118.827 10.9034ZM107.014 10.9034C105.563 10.9034 104.364 11.2732 103.448 12.0025C102.526 12.7362 102.059 13.6988 102.059 14.8634C102.059 15.4687 102.16 16.0065 102.358 16.4626C102.558 16.9201 102.867 17.323 103.278 17.6613C103.686 17.9965 104.315 18.3479 105.149 18.7055C105.85 18.9932 106.373 19.2366 106.705 19.4284C107.03 19.6164 107.26 19.8054 107.391 19.9895C107.517 20.1695 107.581 20.416 107.581 20.7205C107.581 21.5869 106.931 22.0081 105.592 22.0081C105.096 22.0081 104.53 21.9051 103.91 21.7012C103.294 21.5003 102.713 21.2062 102.186 20.8293L102.059 20.7381V23.6942L102.105 23.7162C102.541 23.9168 103.09 24.0855 103.737 24.2188C104.384 24.3521 104.97 24.42 105.48 24.42C107.054 24.42 108.321 24.0482 109.245 23.3142C110.176 22.5756 110.648 21.5905 110.648 20.3852C110.648 19.5161 110.394 18.7709 109.893 18.1696C109.396 17.5733 108.534 17.0259 107.331 16.542C106.372 16.1584 105.758 15.84 105.505 15.5954C105.261 15.3591 105.137 15.0252 105.137 14.6023C105.137 14.2272 105.29 13.9269 105.604 13.6834C105.921 13.4389 106.361 13.3144 106.914 13.3144C107.427 13.3144 107.952 13.3952 108.474 13.5534C108.995 13.712 109.453 13.9241 109.835 14.1835L109.961 14.2693V11.465L109.913 11.4442C109.56 11.2933 109.095 11.1644 108.53 11.0595C107.967 10.9559 107.457 10.9034 107.014 10.9034ZM94.0336 21.9089C92.9169 21.9089 92.0357 21.5393 91.415 20.8114C90.7903 20.0797 90.4743 19.0368 90.4743 17.7113C90.4743 16.3442 90.7905 15.2739 91.4156 14.5292C92.0362 13.7895 92.9086 13.4141 94.0091 13.4141C95.076 13.4141 95.9256 13.7727 96.5344 14.4803C97.1459 15.192 97.4564 16.2535 97.4564 17.6368C97.4564 19.0368 97.1644 20.1126 96.5886 20.832C96.0173 21.5462 95.1581 21.9092 94.0336 21.9092V21.9089ZM94.1714 10.9034C92.0392 10.9034 90.3459 11.5263 89.1394 12.7552C87.9331 13.9843 87.3213 15.6847 87.3213 17.8105C87.3213 19.8302 87.9185 21.4533 89.0961 22.6363C90.2738 23.8201 91.8764 24.4197 93.8593 24.4197C95.9253 24.4197 97.585 23.7877 98.7916 22.542C99.9979 21.2973 100.61 19.6128 100.61 17.5368C100.61 15.4863 100.036 13.8502 98.9037 12.6749C97.771 11.4994 96.1787 10.9034 94.1711 10.9034H94.1714ZM82.6485 13.4471V11.2139H79.6075V24.1086H82.6482V17.5126C82.6482 16.3909 82.9033 15.4695 83.4063 14.7735C83.9029 14.0857 84.5646 13.7375 85.3729 13.7375C85.6467 13.7375 85.9541 13.7823 86.2871 13.8716C86.6166 13.9601 86.8554 14.0563 86.9962 14.1574L87.1237 14.2498V11.1919L87.0747 11.1707C86.7912 11.0507 86.391 10.9902 85.8839 10.9902C85.12 10.9902 84.436 11.235 83.8503 11.7173C83.3363 12.141 82.9647 12.7222 82.6804 13.4471H82.6482H82.6485ZM74.1623 10.9034C72.7673 10.9034 71.523 11.2018 70.4644 11.7898C69.4038 12.3793 68.5838 13.2212 68.0259 14.2915C67.4703 15.3593 67.1885 16.6063 67.1885 17.9973C67.1885 19.2155 67.4618 20.3336 68.0022 21.319C68.543 22.306 69.3088 23.0782 70.2776 23.6134C71.2454 24.1485 72.3635 24.42 73.6017 24.42C75.0468 24.42 76.2807 24.1314 77.2699 23.5634L77.3098 23.5404V20.7614L77.182 20.8546C76.7269 21.1837 76.2257 21.444 75.6945 21.6273C75.157 21.8141 74.667 21.9089 74.2372 21.9089C73.0445 21.9089 72.0866 21.5363 71.3911 20.8024C70.6941 20.067 70.341 19.0349 70.341 17.7357C70.341 16.4286 70.7096 15.3698 71.4357 14.5883C72.1594 13.8095 73.1188 13.4144 74.2877 13.4144C75.2871 13.4144 76.2609 13.7518 77.1823 14.4187L77.3098 14.5111V11.5832L77.2685 11.5598C76.922 11.3664 76.449 11.2065 75.8617 11.0853C75.2774 10.9644 74.7055 10.9034 74.162 10.9034H74.1623ZM65.0938 11.2139H62.0532V24.1086H65.0941V11.2142L65.0938 11.2139ZM63.6046 5.72087C63.1044 5.72087 62.668 5.89069 62.3091 6.22758C61.9491 6.56557 61.7664 6.99066 61.7664 7.49243C61.7664 7.98622 61.9469 8.40363 62.3036 8.73227C62.6579 9.0601 63.0956 9.22634 63.6046 9.22634C64.1137 9.22634 64.5531 9.0601 64.9117 8.73282C65.2726 8.40363 65.4558 7.98622 65.4558 7.49243C65.4558 7.00798 65.2776 6.587 64.9266 6.24104C64.576 5.89591 64.1313 5.72087 63.6046 5.72087ZM56.0182 10.2626V24.1086H59.1211V6.11574H54.8265L49.3672 19.4801L44.0694 6.11574H39.5996V24.1086H42.5157V10.2612H42.616L48.2103 24.1083H50.411L55.9176 10.2626H56.0179H56.0182Z" fill="white"/>
<path d="M14.7829 14.372H0.478516V0.103027H14.7829V14.372Z" fill="white"/>
<path d="M30.5756 14.372H16.2715V0.103027H30.5756V14.372Z" fill="white"/>
<path d="M14.7823 30.132H0.478516V15.8633H14.7823V30.132Z" fill="white"/>
<path d="M30.5756 30.132H16.2715V15.8633H30.5756V30.132Z" fill="white"/>
</svg>
