<svg width="92" height="31" viewBox="0 0 92 31" fill="none" xmlns="http://www.w3.org/2000/svg">
<path d="M88.9132 18.4335L91.463 20.125C90.6354 21.3378 88.6562 23.4188 85.2342 23.4188C80.9849 23.4188 77.8203 20.1473 77.8203 15.9855C77.8203 11.5568 81.0184 8.55225 84.8764 8.55225C88.7567 8.55225 90.6577 11.6234 91.2728 13.2814L91.6084 14.1272L81.6112 18.2444C82.3716 19.7355 83.557 20.4922 85.2342 20.4922C86.9117 20.4922 88.0745 19.6687 88.9132 18.4335ZM81.0744 15.752L87.7504 12.9922C87.3813 12.0687 86.2856 11.4122 84.977 11.4122C83.3109 11.4122 80.9962 12.8811 81.0744 15.752Z" fill="white"/>
<path d="M73 0.9743H76.2204V22.74H73V0.974121V0.9743Z" fill="white"/>
<path d="M67.9238 9.13091H71.0326V22.3506C71.0326 27.8364 67.7784 30.0953 63.9316 30.0953C60.3086 30.0953 58.1281 27.6695 57.3117 25.7L60.1632 24.5203C60.6774 25.7332 61.9187 27.1688 63.9316 27.1688C66.4029 27.1688 67.9238 25.6443 67.9238 22.7957V21.7275H67.812C67.0739 22.6176 65.6649 23.4187 63.8757 23.4187C60.1407 23.4187 56.7188 20.1806 56.7188 16.0079C56.7188 11.8126 60.1407 8.54126 63.8757 8.54126C65.6538 8.54126 67.0739 9.33133 67.812 10.1993H67.9238V9.13109V9.13091ZM68.1473 16.0079C68.1473 13.3817 66.3917 11.4677 64.1552 11.4677C61.8963 11.4677 59.9953 13.3817 59.9953 16.0079C59.9953 18.6005 61.8963 20.481 64.1552 20.481C66.3919 20.4923 68.1475 18.6005 68.1475 16.0079H68.1473Z" fill="white"/>
<path d="M39.0374 15.9521C39.0374 20.2363 35.6828 23.3853 31.5675 23.3853C27.4525 23.3853 24.0977 20.2252 24.0977 15.9521C24.0977 11.6458 27.4525 8.50781 31.5675 8.50781C35.6828 8.50781 39.0374 11.6458 39.0374 15.9521ZM35.7722 15.9521C35.7722 13.2816 33.8263 11.4453 31.5675 11.4453C29.3088 11.4453 27.3629 13.2816 27.3629 15.9521C27.3629 18.6004 29.3088 20.4589 31.5675 20.4589C33.8265 20.4589 35.7722 18.6004 35.7722 15.9521Z" fill="white"/>
<path d="M55.3538 15.9855C55.3538 20.2696 51.999 23.4187 47.8839 23.4187C43.7687 23.4187 40.4141 20.2695 40.4141 15.9855C40.4141 11.6791 43.7687 8.55225 47.8839 8.55225C51.999 8.55225 55.3538 11.668 55.3538 15.9855ZM52.0773 15.9855C52.0773 13.315 50.1316 11.4787 47.8726 11.4787C45.6139 11.4787 43.668 13.315 43.668 15.9855C43.668 18.6338 45.6139 20.4922 47.8726 20.4922C50.1427 20.4922 52.0773 18.6227 52.0773 15.9855Z" fill="white"/>
<path d="M11.8199 20.1584C7.13438 20.1584 3.46667 16.3972 3.46667 11.7347C3.46667 7.07234 7.13438 3.31117 11.8199 3.31117C14.3472 3.31117 16.1922 4.30148 17.5565 5.57009L19.8043 3.3335C17.9033 1.51972 15.3648 0.139648 11.8199 0.139648C5.40123 0.139827 0 5.3477 0 11.7347C0 18.122 5.40123 23.3297 11.8199 23.3297C15.2866 23.3297 17.9033 22.1947 19.9497 20.0805C22.0519 17.9884 22.7005 15.0507 22.7005 12.6694C22.7005 11.9239 22.6111 11.1561 22.5104 10.5886H11.8199V13.6821H19.4352C19.2115 15.6184 18.5965 16.9426 17.6907 17.8437C16.5948 18.9455 14.8617 20.1584 11.8199 20.1584Z" fill="white"/>
</svg>
