<svg width="129" height="20" viewBox="0 0 129 20" fill="none" xmlns="http://www.w3.org/2000/svg">
<path d="M67.6623 0.58252C71.719 0.58252 75.2669 2.48858 76.543 6.05967L72.2243 7.31158C71.1633 5.23968 69.416 4.69501 67.6623 4.69501C64.7009 4.69501 62.448 7.03955 62.448 10.1158C62.448 13.1926 64.7537 15.5649 67.7963 15.5649C70.1867 15.5649 71.9246 14.313 72.605 12.2975H67.035V8.48236H77.0578C77.1288 9.0333 77.1652 9.58841 77.1673 10.1438C77.1673 15.6744 73.229 19.6523 67.7435 19.6523C62.2577 19.6523 57.9388 15.4742 57.9388 10.1161C57.9388 4.75765 62.2013 0.582818 67.6623 0.582818V0.58252ZM39.5687 5.07383C42.9483 5.07383 45.1855 6.61986 45.7316 8.97991L41.7844 9.7653C41.6502 8.92353 40.8481 8.16618 39.5127 8.16618C38.3517 8.16618 37.7683 8.65417 37.6621 9.2239C37.5905 9.59646 37.7683 9.90609 39.0008 10.1629C39.3223 10.2324 39.904 10.352 40.4839 10.4699L40.6491 10.5033C41.4456 10.6649 42.1901 10.8138 42.1901 10.8138C44.7583 11.3555 45.9345 12.9015 45.9345 14.9078C45.9345 17.9184 43.3382 19.4927 39.7686 19.4927C36.5793 19.4927 33.8395 18.3252 33.3873 15.5336L37.6215 14.673C37.8088 15.8402 38.8698 16.2754 40.0275 16.2754C41.1852 16.2754 42.0714 15.7838 42.0964 15.1894C42.137 14.2879 41.4318 13.7528 40.4332 13.5586C39.7435 13.4274 37.6746 13.0172 37.6746 13.0172C35.1597 12.5573 33.7274 11.828 33.7274 9.68416C33.7274 6.89219 36.1331 5.07383 39.5687 5.07383ZM84.6656 4.84236C88.4974 4.84833 90.9127 6.78272 90.9127 10.2694V18.9323H86.7313V17.9244C85.5947 18.8842 84.143 19.3892 82.6561 19.3421C79.6165 19.3421 77.5792 17.5709 77.5792 14.8729C77.5792 12.1752 79.6165 10.4663 83.2458 10.4663H86.722V10.1939C86.7361 9.93813 86.6961 9.68223 86.6048 9.4429C86.5134 9.20356 86.3726 8.98615 86.1917 8.80481C86.0111 8.62387 85.7943 8.48315 85.5555 8.3919C85.3167 8.30065 85.0613 8.26093 84.8061 8.27535C83.5017 8.27535 82.7402 8.79169 82.5248 9.9905L78.4246 9.14546C79.0205 6.50382 81.411 4.84206 84.6656 4.84206V4.84236ZM53.2676 0.679761V5.25847H57.2867V8.7013H53.2897V13.4584C53.2897 14.8732 53.9668 15.4459 55.1086 15.4459C55.8024 15.4217 56.4807 15.235 57.0901 14.9015L58.0793 18.3348C56.9501 18.9933 55.6667 19.3409 54.3596 19.3424C50.9648 19.3424 48.9209 17.4897 48.9209 13.9091V8.71682H46.4556V5.27428H48.9209V1.61847L53.2676 0.679761ZM98.3862 0.679761V5.25847H102.405V8.7013H98.38V13.4584C98.38 14.8732 99.0601 15.4459 100.199 15.4459C100.894 15.422 101.573 15.2356 102.184 14.9015L103.189 18.3348C102.06 18.9922 100.778 19.3398 99.472 19.3424C96.0772 19.3424 94.0426 17.4897 94.0426 13.8936V8.71682H91.5713V5.27428H94.0426V1.61847L98.3862 0.679761ZM25.667 4.89546C29.7145 4.9047 33.1377 7.79063 33.1377 12.094C33.1377 16.4255 29.705 19.3144 25.667 19.3144C21.5387 19.3144 18.1156 16.4255 18.1156 12.094C18.1156 7.7623 21.5483 4.89546 25.667 4.89546ZM110.06 4.89546C114.107 4.9047 117.527 7.79063 117.527 12.094C117.527 16.4255 114.095 19.3144 110.06 19.3144C105.931 19.3144 102.508 16.4255 102.508 12.094C102.508 7.7623 105.941 4.89546 110.06 4.89546ZM4.89133 0.679761V7.79063H12.5519V0.679463H17.0048V18.9326H12.5519V11.7185H4.89133V18.9323H0.410156V0.679761H4.89133ZM127.656 5.05504C127.987 5.05084 128.316 5.09199 128.636 5.17734L128.446 9.52756H127.656C124.616 9.52756 122.96 11.0924 122.96 14.6509V18.9326H118.613V6.19748L122.96 5.25847V7.87177C123.936 6.23805 125.431 5.05504 127.656 5.05504ZM86.7313 13.2269H83.7418C82.6561 13.2269 81.9789 13.7996 81.9789 14.6447C81.9789 15.4897 82.7372 16.0595 83.879 16.0595C85.374 16.072 86.7313 15.0641 86.7313 13.5398V13.2269ZM25.6641 8.55425C25.2095 8.55948 24.7605 8.65584 24.3439 8.83762C23.9272 9.0194 23.5512 9.28292 23.2381 9.61257C22.9244 9.9429 22.6799 10.3326 22.5188 10.7587C22.3578 11.1848 22.2835 11.6388 22.3003 12.094C22.3003 14.2474 23.9009 15.6368 25.667 15.6368C27.3524 15.6368 28.95 14.2474 28.95 12.094C28.95 9.96873 27.3491 8.55425 25.6641 8.55425ZM110.06 8.55425C109.605 8.55868 109.155 8.65443 108.738 8.83581C108.32 9.01719 107.943 9.28052 107.63 9.61019C107.315 9.94065 107.07 10.3306 106.909 10.7572C106.748 11.1838 106.673 11.6383 106.69 12.094C106.69 14.2474 108.294 15.6368 110.06 15.6368C111.742 15.6368 113.346 14.2474 113.346 12.094C113.346 9.96873 111.742 8.55425 110.06 8.55425Z" fill="white"/>
</svg>
