<svg width="14" height="13" viewBox="0 0 14 13" fill="none" xmlns="http://www.w3.org/2000/svg">
<path d="M1.1639 11.3291C0.84749 11.6456 0.832423 12.2106 1.17143 12.542C1.5029 12.8735 2.06791 12.866 2.38432 12.5496L6.99481 7.93154L11.6128 12.5496C11.9368 12.8735 12.4943 12.8735 12.8257 12.542C13.1497 12.203 13.1572 11.6531 12.8257 11.3291L8.21524 6.71112L12.8257 2.10063C13.1572 1.77669 13.1572 1.21921 12.8257 0.887738C12.4867 0.563799 11.9368 0.556265 11.6128 0.880205L6.99481 5.49823L2.38432 0.880205C2.06791 0.563799 1.49537 0.548732 1.17143 0.887738C0.839956 1.21921 0.84749 1.78422 1.1639 2.10063L5.78192 6.71112L1.1639 11.3291Z" fill="#E60523"/>
</svg>
