<?xml version="1.0" encoding="utf-8"?>
<!-- Generator: Adobe Illustrator 23.0.2, SVG Export Plug-In . SVG Version: 6.00 Build 0)  -->
<svg version="1.1" id="Layer_1" xmlns="http://www.w3.org/2000/svg" xmlns:xlink="http://www.w3.org/1999/xlink" x="0px" y="0px"
	 viewBox="0 0 646.6 650.8" style="enable-background:new 0 0 646.6 650.8;" xml:space="preserve">
<style type="text/css">
	.st0{fill:none;stroke:#E60523;stroke-width:40;stroke-linecap:round;stroke-linejoin:round;}
</style>
<path class="st0" d="M455.8,224.7c-27.2-39.4-69.9-64.8-117.8-64.8c-82.2,0-148.8,74.6-148.8,166.7c0,92,66.6,166.7,148.8,166.7
	c47.9,0,90.6-25.4,117.8-64.8 M155.8,276.6h133.3 M155.8,376.6h133.3 M622.4,326.6c0,165.7-134.3,300-300,300
	c-165.7,0-300-134.3-300-300c0-165.7,134.3-300,300-300C488.1,26.6,622.4,160.9,622.4,326.6z"/>
</svg>
