<?xml version="1.0" encoding="utf-8"?>
<!-- Generator: Adobe Illustrator 23.0.2, SVG Export Plug-In . SVG Version: 6.00 Build 0)  -->
<svg version="1.1" id="Layer_1" xmlns="http://www.w3.org/2000/svg" xmlns:xlink="http://www.w3.org/1999/xlink" x="0px" y="0px"
	 viewBox="0 0 61 61" style="enable-background:new 0 0 61 61;" xml:space="preserve">
<style type="text/css">
	.st0{fill:#E40521;}
</style>
<path class="st0" d="M35.02,5.96c0,2.75-2.21,4.98-4.95,4.98c-2.77,0-4.99-2.21-4.99-4.97C25.08,3.2,27.28,1,30.1,1
	C32.81,0.99,35.02,3.22,35.02,5.96z"/>
<path class="st0" d="M47.56,38.71v0.66c0,6.07,0,12.15,0,18.22c0,0.54-0.01,1.1,0.01,1.64c0.01,0.27-0.09,0.34-0.34,0.34
	c-2.1-0.01-4.19-0.01-6.29,0c-0.35,0-0.36-0.17-0.36-0.43c0-3.77,0-7.53,0-11.3c0-5.28,0-10.56,0-15.85c0-0.36-0.12-0.61-0.37-0.86
	c-2.06-2.05-4.11-4.12-6.17-6.17c-0.12-0.12-0.23-0.21-0.43-0.39c-0.02,0.26-0.05,0.42-0.05,0.59c0,4.42,0,8.83,0,13.25
	c0,6.92,0,13.84,0.01,20.76c0,0.3-0.06,0.43-0.41,0.43c-2.06-0.01-4.13-0.01-6.2,0c-0.32,0-0.44-0.1-0.42-0.41
	c0.02-0.34,0-0.68,0-1.02c0-11.01,0-22.01,0-33.02c0-0.15-0.02-0.3-0.03-0.53c-0.16,0.12-0.26,0.18-0.34,0.27
	c-2.12,2.12-4.24,4.25-6.36,6.36c-0.2,0.2-0.28,0.42-0.28,0.7c0,3.66,0,7.32,0,10.97c0,5.42,0,10.83,0,16.25
	c0,0.44,0,0.44-0.44,0.44c-2.05,0-4.09-0.01-6.12,0.01c-0.34,0-0.43-0.11-0.43-0.43c0.01-6.65,0.01-13.29,0.01-19.94
	c0-0.17-0.02-0.34-0.02-0.5l-0.1-0.04c-0.14,0.13-0.29,0.25-0.42,0.37c-2.04,2.04-4.09,4.09-6.12,6.12c-0.35,0.35-0.35,0.35-0.7,0
	c-1.32-1.32-2.64-2.64-3.96-3.96c-0.31-0.31-0.31-0.31,0-0.62c1.77-1.77,3.54-3.54,5.31-5.3c3.53-3.53,7.06-7.06,10.59-10.59
	c2.49-2.49,4.97-4.97,7.46-7.45c1.72-1.72,3.44-3.44,5.14-5.14c0.34-0.34,0.34-0.33,0.68,0.01c3.97,3.98,7.95,7.95,11.92,11.93
	c3.46,3.46,6.9,6.91,10.36,10.37c2.06,2.07,4.13,4.13,6.2,6.19c0.31,0.31,0.32,0.32,0.01,0.62c-1.35,1.35-2.71,2.7-4.05,4.05
	c-0.2,0.2-0.32,0.21-0.52,0c-2.07-2.08-4.16-4.16-6.24-6.24c-0.12-0.12-0.26-0.23-0.38-0.34C47.65,38.69,47.6,38.7,47.56,38.71z"/>
<path class="st0" d="M13.04,24.83c-2.75,0-4.99-2.26-4.98-5c0.02-2.78,2.24-4.96,5.09-4.95c2.65,0,4.88,2.27,4.89,4.96
	C18.06,22.56,15.78,24.83,13.04,24.83z"/>
<path class="st0" d="M51.99,19.85c0,2.75-2.21,4.98-4.95,4.98c-2.77,0-4.99-2.21-4.99-4.97c0-2.77,2.21-4.97,5.02-4.97
	C49.78,14.88,51.98,17.11,51.99,19.85z"/>
</svg>
