<svg width="40" height="40" viewBox="0 0 40 40" fill="none" xmlns="http://www.w3.org/2000/svg">
<rect x="1" y="1" width="38.095" height="38.095" rx="19.0475" stroke="white" stroke-opacity="0.3" stroke-width="1.5"/>
<path d="M26.0075 14.8496C25.8829 14.7868 25.7616 14.7179 25.6441 14.6433C25.3023 14.423 24.9889 14.1634 24.7107 13.8701C24.0146 13.0935 23.7547 12.3057 23.6589 11.7541H23.6627C23.5827 11.2962 23.6158 11 23.6208 11H20.4504V22.9537C20.4504 23.1141 20.4504 23.2728 20.4434 23.4295C20.4434 23.449 20.4415 23.467 20.4404 23.488C20.4404 23.4966 20.4404 23.5056 20.4384 23.5146C20.4384 23.5169 20.4384 23.5191 20.4384 23.5214C20.405 23.9503 20.264 24.3646 20.0278 24.7279C19.7916 25.0912 19.4675 25.3923 19.084 25.6048C18.6842 25.8265 18.2321 25.9428 17.7722 25.9423C16.295 25.9423 15.0978 24.7678 15.0978 23.3174C15.0978 21.867 16.295 20.6925 17.7722 20.6925C18.0518 20.6923 18.3297 20.7352 18.5955 20.8196L18.5994 17.672C17.7923 17.5704 16.9724 17.6329 16.1913 17.8557C15.4103 18.0785 14.685 18.4567 14.0614 18.9665C13.5149 19.4294 13.0555 19.9818 12.7038 20.5988C12.57 20.8238 12.065 21.7278 12.0039 23.1951C11.9654 24.028 12.2219 24.8908 12.3442 25.2474V25.2549C12.4212 25.4649 12.7192 26.1815 13.2049 26.7856C13.5966 27.2702 14.0593 27.6958 14.5782 28.0489V28.0414L14.5859 28.0489C16.1208 29.0658 17.8225 28.9991 17.8225 28.9991C18.1171 28.9875 19.104 28.9991 20.2246 28.4813C21.4676 27.9072 22.1752 27.0518 22.1752 27.0518C22.6273 26.5408 22.9867 25.9583 23.2382 25.3295C23.5251 24.5942 23.6208 23.7122 23.6208 23.3598V17.0181C23.6593 17.0406 24.1715 17.3709 24.1715 17.3709C24.1715 17.3709 24.9095 17.8322 26.061 18.1325C26.887 18.3463 28 18.3913 28 18.3913V15.3224C27.61 15.3637 26.8182 15.2437 26.0075 14.8496Z" fill="white"/>
</svg>
