<svg width="169" height="59" viewBox="0 0 169 59" fill="none" xmlns="http://www.w3.org/2000/svg">
<path d="M34.0194 4.961C34.0194 7.71353 31.811 9.94329 29.0691 9.94329C26.2953 9.94329 24.0762 7.73487 24.0762 4.97167C24.0762 2.1978 26.2846 3.8126e-05 29.1011 3.8126e-05C31.811 -0.0106306 34.0194 2.21913 34.0194 4.961Z" fill="#E40521"/>
<path d="M166.087 39.3569C166.087 41.1493 164.903 42.5682 163.078 42.5682C161.233 42.5682 160.048 41.1599 160.048 39.3569C160.048 37.5432 161.233 36.1456 163.078 36.1456C164.913 36.1456 166.087 37.5432 166.087 39.3569ZM157.146 39.3569C157.146 42.7282 159.686 45.0967 163.078 45.0967C166.471 45.0967 168.999 42.7389 168.999 39.3569C168.999 35.9856 166.471 33.6171 163.078 33.6171C159.686 33.6171 157.146 35.9856 157.146 39.3569ZM151.225 45.086C153.988 45.086 155.429 43.5391 156.144 42.1095L153.679 40.9466C153.316 41.8321 152.367 42.5575 151.215 42.5575C149.486 42.5575 148.206 41.1599 148.206 39.3463C148.206 37.5326 149.486 36.135 151.215 36.135C152.356 36.135 153.306 36.8711 153.679 37.7459L156.144 36.583C155.407 35.1214 153.978 33.6065 151.225 33.6065C147.897 33.6065 145.304 35.9216 145.304 39.3463C145.315 42.7602 147.907 45.086 151.225 45.086ZM134.667 43.3257C135.777 44.3926 137.345 45.086 139.586 45.086C142.562 45.086 144.205 43.6031 144.205 41.384C144.205 38.8768 141.677 38.3434 139.852 37.9593C138.625 37.7246 137.943 37.5219 137.943 36.9458C137.943 36.4657 138.305 36.0816 139.255 36.0816C140.236 36.0816 141.453 36.4657 142.381 37.2338L143.939 35.1854C142.754 34.1719 141.207 33.6385 139.436 33.6385C136.598 33.6385 135.019 35.2495 135.019 37.1165C135.019 39.741 137.58 40.2104 139.404 40.5732C140.589 40.8185 141.303 41.0746 141.303 41.704C141.303 42.2375 140.706 42.6536 139.724 42.6536C138.209 42.6536 136.982 41.9921 136.182 41.1919L134.667 43.3257ZM130.784 39.3569C130.784 41.1493 129.6 42.5682 127.775 42.5682C125.93 42.5682 124.745 41.1599 124.745 39.3569C124.745 37.5432 125.93 36.1456 127.775 36.1456C129.6 36.1456 130.784 37.5432 130.784 39.3569ZM121.833 39.3569C121.833 42.7282 124.372 45.0967 127.765 45.0967C131.157 45.0967 133.686 42.7389 133.686 39.3569C133.686 35.9856 131.157 33.6171 127.765 33.6171C124.383 33.6171 121.833 35.9856 121.833 39.3569ZM113.629 40.4558H116.509C117.203 40.4558 117.608 40.9359 117.608 41.5013C117.608 42.0988 117.192 42.5149 116.509 42.5149H113.629V40.4558ZM113.629 36.1776H116.403C116.989 36.1776 117.384 36.5724 117.384 37.1272C117.384 37.6819 116.989 38.0873 116.403 38.0873H113.629V36.1776ZM117.245 44.894C119.422 44.894 120.499 43.4964 120.499 41.8854C120.499 40.4878 119.571 39.3569 118.387 39.1756C119.432 38.9408 120.286 38.0127 120.286 36.6364C120.286 35.2388 119.24 33.8092 117.043 33.8092H110.759V44.894H117.245ZM103.856 44.894V33.7985H100.976V40.1784L96.484 33.7985H93.5394V44.8833H96.3986V38.1834L101.082 44.8833H103.856V44.894ZM88.8559 39.3569C88.8559 41.1493 87.6716 42.5682 85.8473 42.5682C84.0016 42.5682 82.8174 41.1599 82.8174 39.3569C82.8174 37.5432 84.0016 36.1456 85.8473 36.1456C87.6716 36.1456 88.8559 37.5432 88.8559 39.3569ZM79.9155 39.3569C79.9155 42.7282 82.4546 45.0967 85.8473 45.0967C89.2399 45.0967 91.7684 42.7389 91.7684 39.3569C91.7684 35.9856 89.2399 33.6171 85.8473 33.6171C82.4546 33.6171 79.9155 35.9856 79.9155 39.3569ZM70.9217 36.295H72.7354C74.7625 36.295 75.7973 37.6286 75.7973 39.3356C75.7973 40.9786 74.6664 42.3975 72.7247 42.3975H70.9324V36.295H70.9217ZM72.7354 44.894C76.2134 44.894 78.7206 42.7816 78.7206 39.3463C78.7206 35.9002 76.2134 33.8092 72.7141 33.8092H68.0625V44.894H72.7354Z" fill="#E40521"/>
<path d="M46.5557 37.714V38.3754C46.5557 44.4459 46.5557 50.5271 46.5557 56.5976C46.5557 57.1417 46.545 57.6965 46.5663 58.2406C46.577 58.5073 46.481 58.582 46.2249 58.582C44.1232 58.5713 42.0321 58.5713 39.9304 58.582C39.5783 58.582 39.5677 58.4113 39.5677 58.1553C39.5677 54.3892 39.5677 50.6231 39.5677 46.8571C39.5677 41.5761 39.5677 36.295 39.5677 31.0033C39.5677 30.6406 39.4503 30.3952 39.1942 30.1392C37.1352 28.0908 35.0868 26.021 33.0277 23.9727C32.9104 23.8553 32.793 23.7593 32.601 23.5779C32.5796 23.834 32.5476 23.994 32.5476 24.1647C32.5476 28.5815 32.5476 32.9984 32.5476 37.4152C32.5476 44.3393 32.5476 51.2526 32.5583 58.1766C32.5583 58.4753 32.4943 58.6033 32.1529 58.6033C30.0938 58.5927 28.0241 58.5927 25.9544 58.6033C25.6343 58.6033 25.5169 58.5073 25.5383 58.1979C25.5596 57.8565 25.5383 57.5151 25.5383 57.1737C25.5383 46.1636 25.5383 35.1641 25.5383 24.154C25.5383 24.0047 25.5169 23.8553 25.5063 23.6206C25.3462 23.7379 25.2502 23.802 25.1649 23.8873C23.0418 26.0104 20.9294 28.1335 18.8063 30.2459C18.6036 30.4486 18.5289 30.6619 18.5289 30.95C18.5289 34.6094 18.5289 38.2687 18.5289 41.9174C18.5289 47.3372 18.5289 52.7462 18.5289 58.1659C18.5289 58.6033 18.5289 58.6033 18.0915 58.6033C16.0431 58.6033 14.0054 58.5927 11.9676 58.614C11.6262 58.614 11.5409 58.5073 11.5409 58.1873C11.5516 51.5406 11.5516 44.894 11.5516 38.2474C11.5516 38.0767 11.5302 37.906 11.5302 37.746L11.4342 37.7033C11.2955 37.8313 11.1462 37.9487 11.0181 38.0767C8.9804 40.1144 6.93201 42.1628 4.89428 44.2006C4.54221 44.5526 4.54221 44.5526 4.19014 44.2006C2.86722 42.8776 1.55497 41.5654 0.232045 40.2425C-0.0773483 39.9331 -0.0773483 39.9331 0.232045 39.6237C2.00305 37.8527 3.77406 36.0817 5.54507 34.3213C9.07642 30.79 12.6078 27.2586 16.1391 23.7273C18.6249 21.2415 21.1107 18.7556 23.5966 16.2805C25.3142 14.5628 27.0319 12.8452 28.7389 11.1382C29.0803 10.7968 29.0803 10.8074 29.4217 11.1488C33.3905 15.1283 37.3699 19.097 41.3387 23.0765C44.7953 26.5331 48.2413 29.9898 51.698 33.4465C53.7571 35.5162 55.8268 37.5753 57.8965 39.6343C58.2059 39.9437 58.2166 39.9544 57.9072 40.2531C56.5523 41.6081 55.1973 42.9523 53.8531 44.3072C53.6504 44.51 53.533 44.5206 53.3303 44.3072C51.2606 42.2268 49.1695 40.1464 47.0891 38.066C46.9717 37.9487 46.8331 37.8313 46.705 37.7246C46.6517 37.6926 46.5983 37.7033 46.5557 37.714Z" fill="#E40521"/>
<path d="M12.0429 23.834C9.29035 23.834 7.04992 21.5722 7.06058 18.8303C7.08192 16.0458 9.30102 13.8694 12.1496 13.88C14.7954 13.88 17.0252 16.1525 17.0358 18.841C17.0572 21.5615 14.7847 23.834 12.0429 23.834Z" fill="#E40521"/>
<path d="M50.9921 18.8516C50.9921 21.6042 48.7837 23.8339 46.0418 23.8339C43.2679 23.8339 41.0488 21.6255 41.0488 18.8623C41.0488 16.0884 43.2573 13.8907 46.0738 13.8907C48.7837 13.88 50.9814 16.1098 50.9921 18.8516Z" fill="#E40521"/>
<path d="M72.2248 54.2291H68.7147L68.0533 55.8508H67.4238L70.123 49.2468H70.8272L73.5263 55.8508H72.8969L72.2248 54.2291ZM68.8854 53.717H72.0434L70.4644 49.8123L68.8854 53.717Z" fill="#E40521"/>
<path d="M74.9336 57.6751V51.0712H75.4457V51.8286C75.7871 51.3379 76.3952 50.9431 77.11 50.9431C78.3903 50.9431 79.2438 51.914 79.2438 53.4503C79.2438 54.9759 78.3796 55.9681 77.11 55.9681C76.4379 55.9681 75.8298 55.6267 75.4457 55.0826V57.6751H74.9336ZM77.0247 51.4232C76.3632 51.4232 75.7231 51.818 75.4457 52.2874V54.6452C75.7231 55.1039 76.3525 55.52 77.0247 55.52C78.0915 55.52 78.6997 54.6345 78.6997 53.4716C78.6997 52.3087 78.0915 51.4232 77.0247 51.4232Z" fill="#E40521"/>
<path d="M83.074 50.9538C84.5249 50.9538 85.3357 52.1061 85.3357 53.493V53.6317H81.335C81.3883 54.6665 82.0818 55.5307 83.1913 55.5307C83.8101 55.5307 84.3542 55.3067 84.7703 54.8693L85.037 55.2107C84.5569 55.7014 83.9595 55.9788 83.17 55.9788C81.7724 55.9788 80.7695 54.9439 80.7695 53.461C80.7695 52.074 81.7511 50.9538 83.074 50.9538ZM81.335 53.2263H84.813C84.8023 52.4154 84.2689 51.4019 83.074 51.4019C81.9324 51.4019 81.367 52.3941 81.335 53.2263Z" fill="#E40521"/>
<path d="M87.1289 49.2575H87.641V55.8614H87.1289V49.2575Z" fill="#E40521"/>
<path d="M93.2317 55.0933C92.8903 55.5841 92.2821 55.9788 91.5673 55.9788C90.2978 55.9788 89.4336 55.0079 89.4336 53.4716C89.4336 51.9567 90.3084 50.9538 91.5673 50.9538C92.2395 50.9538 92.8476 51.2952 93.2317 51.8393V49.2468H93.7544V55.8508H93.2317V55.0933ZM93.2317 52.2981C92.9543 51.8287 92.3355 51.4232 91.6527 51.4232C90.5965 51.4232 89.9777 52.3088 89.9777 53.4716C89.9777 54.6239 90.5965 55.5094 91.6527 55.5094C92.3248 55.5094 92.9543 55.1146 93.2317 54.6559V52.2981Z" fill="#E40521"/>
<path d="M95.5469 53.461C95.5469 52.0634 96.443 50.9538 97.8407 50.9538C99.2596 50.9538 100.145 52.0634 100.145 53.461C100.145 54.8586 99.2596 55.9788 97.8407 55.9788C96.4537 55.9788 95.5469 54.8586 95.5469 53.461ZM99.601 53.461C99.601 52.4048 98.9822 51.4232 97.8513 51.4232C96.7418 51.4232 96.1123 52.4048 96.1123 53.461C96.1123 54.5279 96.7418 55.5094 97.8513 55.5094C98.9715 55.5094 99.601 54.5279 99.601 53.461Z" fill="#E40521"/>
<path d="M101.67 53.461C101.67 52.0634 102.566 50.9538 103.964 50.9538C105.383 50.9538 106.268 52.0634 106.268 53.461C106.268 54.8586 105.383 55.9788 103.964 55.9788C102.566 55.9788 101.67 54.8586 101.67 53.461ZM105.713 53.461C105.713 52.4048 105.095 51.4232 103.964 51.4232C102.854 51.4232 102.225 52.4048 102.225 53.461C102.225 54.5279 102.854 55.5094 103.964 55.5094C105.095 55.5094 105.713 54.5279 105.713 53.461Z" fill="#E40521"/>
<path d="M108.061 51.0712H108.573V51.8927C108.978 51.3592 109.522 50.9752 110.184 50.9752V51.5406C110.098 51.5299 110.024 51.5193 109.928 51.5193C109.447 51.5193 108.786 51.9567 108.573 52.3728V55.8614H108.061V51.0712Z" fill="#E40521"/>
<path d="M114.891 52.6288C114.891 51.7006 114.421 51.4233 113.728 51.4233C113.109 51.4233 112.48 51.818 112.17 52.2448V55.8615H111.658V51.0819H112.17V51.8073C112.512 51.3913 113.194 50.9645 113.888 50.9645C114.859 50.9645 115.392 51.4446 115.392 52.5221V55.8721H114.88V52.6288H114.891Z" fill="#E40521"/>
</svg>
