<svg width="112" height="35" viewBox="0 0 112 35" fill="none" xmlns="http://www.w3.org/2000/svg">
<path d="M17.8116 0C8.31136 0 0.609375 7.66395 0.609375 17.1176C0.609375 26.5716 8.31136 34.235 17.8116 34.235C27.313 34.235 35.0141 26.5716 35.0141 17.1176C35.0141 7.6646 27.313 0.000859597 17.8114 0.000859597L17.8116 0ZM25.7006 24.6885C25.6272 24.8082 25.5308 24.9123 25.4169 24.9949C25.303 25.0775 25.1739 25.1369 25.0369 25.1697C24.8999 25.2026 24.7577 25.2082 24.6185 25.1864C24.4793 25.1645 24.3458 25.1155 24.2256 25.0422C20.1868 22.5872 15.1022 22.0313 9.11429 23.3926C8.83703 23.4554 8.54607 23.406 8.30537 23.2554C8.06466 23.1048 7.89391 22.8652 7.83063 22.5893C7.7991 22.4528 7.79495 22.3113 7.81843 22.1731C7.84191 22.035 7.89255 21.9028 7.96746 21.7841C8.04237 21.6654 8.14006 21.5626 8.25496 21.4816C8.36985 21.4005 8.49969 21.3428 8.63702 21.3118C15.1899 19.8219 20.8107 20.4633 25.3452 23.2209C25.4654 23.294 25.57 23.39 25.6529 23.5034C25.7358 23.6167 25.7955 23.7452 25.8285 23.8815C25.8615 24.0179 25.8672 24.1593 25.8452 24.2978C25.8232 24.4363 25.774 24.5691 25.7004 24.6887L25.7006 24.6885ZM27.8062 20.0275C27.4177 20.6555 26.5921 20.8538 25.9613 20.4674C21.3376 17.6394 14.2889 16.8202 8.81973 18.4723C8.47928 18.5748 8.11186 18.5388 7.79808 18.3721C7.48431 18.2054 7.24981 17.9216 7.14604 17.5831C7.04341 17.2443 7.07992 16.8789 7.24755 16.567C7.41518 16.255 7.70026 16.0218 8.04033 15.9187C14.2878 14.0323 22.0544 14.946 27.3644 18.1929C27.995 18.5793 28.1943 19.4011 27.806 20.0277L27.8062 20.0275ZM27.9868 15.174C22.4429 11.8973 13.2953 11.596 8.00189 13.1948C7.15187 13.4514 6.25305 12.9739 5.99562 12.1281C5.87178 11.7217 5.91516 11.2831 6.11622 10.9085C6.31729 10.534 6.65958 10.2543 7.06786 10.1308C13.1443 8.29511 23.2458 8.64969 29.6289 12.4205C29.8109 12.5276 29.9698 12.6694 30.0965 12.8377C30.2233 13.006 30.3155 13.1975 30.3678 13.4013C30.42 13.6051 30.4314 13.8171 30.4012 14.0253C30.371 14.2335 30.2998 14.4337 30.1917 14.6144C29.7399 15.3752 28.7498 15.626 27.9876 15.1742H27.9868V15.174ZM47.411 15.802C44.4407 15.0971 43.9129 14.6026 43.9129 13.5631C43.9129 12.5811 44.8413 11.9202 46.2237 11.9202C47.5631 11.9202 48.8902 12.4222 50.2829 13.4553C50.3239 13.4864 50.3773 13.4989 50.4287 13.4907C50.4545 13.4871 50.4793 13.4782 50.5016 13.4646C50.5239 13.451 50.5432 13.4331 50.5582 13.4119L52.0084 11.3776C52.0371 11.3373 52.0492 11.2876 52.0423 11.2387C52.0355 11.1898 52.0101 11.1453 51.9715 11.1144C50.3138 9.79124 48.4485 9.14804 46.2669 9.14804C43.0603 9.14804 40.8193 11.063 40.8193 13.8032C40.8193 16.7415 42.7522 17.7821 46.0924 18.5851C48.9333 19.2365 49.4139 19.7821 49.4139 20.7578C49.4139 21.8391 48.4442 22.5116 46.8832 22.5116C45.1495 22.5116 43.7341 21.9292 42.1524 20.5676C42.113 20.5345 42.0623 20.5177 42.0108 20.5207C41.9851 20.5225 41.96 20.5293 41.9371 20.5409C41.9141 20.5524 41.8937 20.5684 41.8771 20.588L40.2503 22.5135C40.2176 22.5521 40.2013 22.6018 40.2047 22.6522C40.2082 22.7025 40.2312 22.7496 40.2688 22.7834C42.1092 24.4188 44.3729 25.2814 46.8174 25.2814C50.2727 25.2814 52.5055 23.4027 52.5055 20.4941C52.5116 18.0397 51.0349 16.6805 47.4173 15.8048L47.411 15.802ZM60.3237 12.8871C58.8262 12.8871 57.5979 13.4742 56.5831 14.6772V13.3233C56.5831 13.2163 56.4967 13.1293 56.39 13.1293H53.7298C53.6784 13.1296 53.6292 13.1501 53.593 13.1865C53.5568 13.2228 53.5366 13.2719 53.5367 13.3231V28.368C53.5367 28.4741 53.6231 28.562 53.7298 28.562H56.39C56.4414 28.5616 56.4906 28.541 56.5268 28.5046C56.5629 28.4683 56.5832 28.4192 56.5831 28.368V23.6194C57.5979 24.7497 58.8262 25.3037 60.3235 25.3037C63.1072 25.3037 65.9255 23.1719 65.9255 19.0962C65.9296 15.0195 63.1111 12.8869 60.3256 12.8869L60.3235 12.8871H60.3237ZM62.8319 19.0962C62.8319 21.1706 61.548 22.6199 59.7074 22.6199C57.8894 22.6199 56.5172 21.1053 56.5172 19.0962C56.5172 17.0869 57.8894 15.5725 59.7074 15.5725C61.5171 15.5725 62.8319 17.0538 62.8319 19.0959V19.0962ZM73.1459 12.8871C69.5614 12.8871 66.7533 15.6335 66.7533 19.1406C66.7533 22.6098 69.5428 25.3263 73.1027 25.3263C76.6995 25.3263 79.5158 22.5893 79.5158 19.0962C79.5158 15.6148 76.7181 12.8877 73.1459 12.8877V12.8871ZM73.1459 22.6403C71.2396 22.6403 69.8017 21.1154 69.8017 19.0951C69.8017 17.0656 71.1904 15.5927 73.1027 15.5927C75.0213 15.5927 76.4673 17.1169 76.4673 19.1394C76.4673 21.1686 75.0705 22.6403 73.1459 22.6403ZM87.1696 13.1293H84.2425V10.1518C84.2425 10.045 84.1561 9.958 84.0494 9.958H81.389C81.3374 9.95811 81.2878 9.97856 81.2513 10.0149C81.2147 10.0512 81.194 10.1004 81.1938 10.1518V13.1293H79.9162C79.8648 13.1296 79.8156 13.1501 79.7794 13.1865C79.7432 13.2228 79.723 13.2719 79.7231 13.3231V15.5976C79.723 15.6488 79.7432 15.698 79.7794 15.7343C79.8156 15.7707 79.8648 15.7913 79.9162 15.7917H81.1938V21.6777C81.1938 24.055 82.3833 25.261 84.7312 25.261C85.6843 25.261 86.4751 25.0646 87.2208 24.6436C87.251 24.6271 87.2761 24.6028 87.2934 24.5733C87.3108 24.5438 87.3198 24.5102 87.3195 24.4759V22.3091C87.3194 22.2763 87.3108 22.2441 87.2946 22.2155C87.2784 22.1869 87.2552 22.1629 87.2271 22.1458C87.1991 22.1279 87.1668 22.1177 87.1336 22.1163C87.1004 22.1148 87.0674 22.1221 87.0379 22.1374C86.5265 22.3931 86.0315 22.5116 85.4767 22.5116C84.6243 22.5116 84.2423 22.1252 84.2423 21.2626V15.7929H87.1694C87.2209 15.7927 87.2701 15.7721 87.3063 15.7357C87.3425 15.6993 87.3627 15.6501 87.3625 15.5989V13.3244C87.3634 13.299 87.3591 13.2737 87.3498 13.2501C87.3406 13.2264 87.3266 13.2048 87.3088 13.1867C87.2909 13.1685 87.2696 13.1542 87.246 13.1445C87.2224 13.1348 87.1971 13.13 87.1716 13.1303L87.1694 13.1293H87.1696ZM97.3666 13.1409V12.7751C97.3666 11.6993 97.7815 11.2197 98.7099 11.2197C99.2649 11.2197 99.7104 11.3293 100.21 11.4947C100.239 11.5045 100.27 11.5072 100.301 11.5025C100.331 11.4979 100.36 11.486 100.385 11.468C100.41 11.4499 100.43 11.4262 100.444 11.3988C100.458 11.3714 100.465 11.341 100.465 11.3104L100.464 9.08035C100.465 9.03869 100.452 8.998 100.427 8.96446C100.402 8.93091 100.367 8.90634 100.327 8.89446C99.8009 8.73845 99.1271 8.57856 98.1164 8.57856C95.6616 8.57856 94.3613 9.95499 94.3613 12.5576V13.1177H93.0837C93.032 13.1178 92.9825 13.1382 92.9459 13.1745C92.9093 13.2109 92.8887 13.2601 92.8885 13.3115V15.5976C92.8885 15.7044 92.977 15.7917 93.0837 15.7917H94.3613V24.8684C94.3613 24.9767 94.4498 25.0626 94.5565 25.0626H97.2146C97.3234 25.0626 97.4098 24.9767 97.4098 24.8684V15.7923H99.8933L103.698 24.8684C103.266 25.821 102.841 26.011 102.262 26.011C101.793 26.011 101.298 25.8721 100.795 25.5962C100.747 25.5722 100.692 25.5671 100.641 25.5818C100.616 25.5903 100.592 25.604 100.572 25.6219C100.553 25.6398 100.537 25.6617 100.526 25.686L99.6242 27.6545C99.6035 27.6992 99.6006 27.7501 99.6163 27.7968C99.6319 27.8436 99.6649 27.8826 99.7085 27.906C100.649 28.4129 101.497 28.6295 102.547 28.6295C104.511 28.6295 105.598 27.7179 106.553 25.2691L111.167 13.4058C111.179 13.3765 111.183 13.3447 111.179 13.3132C111.176 13.2817 111.164 13.2517 111.146 13.2258C111.129 13.1998 111.105 13.1785 111.078 13.1638C111.05 13.1491 111.019 13.1415 110.988 13.1415H108.219C108.178 13.1413 108.139 13.1537 108.105 13.177C108.072 13.2003 108.047 13.2334 108.034 13.2715L105.197 21.3322L102.091 13.2662C102.077 13.2296 102.053 13.1981 102.02 13.1759C101.988 13.1536 101.95 13.1416 101.91 13.1415H97.3666V13.1409ZM91.4547 13.1293H88.7945C88.7429 13.1295 88.6935 13.15 88.657 13.1863C88.6204 13.2226 88.5998 13.2717 88.5995 13.3231V24.8684C88.5995 24.9767 88.6878 25.0626 88.7945 25.0626H91.4547C91.5616 25.0626 91.6499 24.9767 91.6499 24.8684V13.324C91.65 13.2984 91.645 13.2732 91.6352 13.2496C91.6255 13.226 91.6111 13.2045 91.5929 13.1865C91.5748 13.1684 91.5532 13.1542 91.5295 13.1444C91.5058 13.1347 91.4804 13.1298 91.4547 13.1299V13.1293ZM90.1399 7.87197C89.0861 7.87197 88.2317 8.72083 88.2317 9.7691C88.2317 10.0185 88.281 10.2654 88.3769 10.4958C88.4728 10.7262 88.6134 10.9355 88.7906 11.1119C88.9678 11.2882 89.1781 11.4281 89.4097 11.5235C89.6412 11.6189 89.8893 11.668 90.1399 11.668C91.1938 11.668 92.0462 10.8182 92.0462 9.7691C92.0461 9.26603 91.8452 8.78358 91.4878 8.42783C91.1303 8.07208 90.6455 7.87214 90.1399 7.87197Z" fill="white"/>
</svg>
