<svg width="43" height="66" viewBox="0 0 43 66" fill="none" xmlns="http://www.w3.org/2000/svg">
<path d="M29.179 60.261C28.0842 64.3467 23.8658 66.7873 19.8357 65.6814C15.7454 64.5593 13.4265 60.3931 14.5691 56.1769C15.6215 52.2493 19.8487 49.824 23.8163 50.8741C27.8353 51.9249 30.2672 56.1997 29.179 60.261ZM37.3433 0.438844C41.3919 1.52368 43.8017 5.68823 42.7135 9.74957C41.6253 13.8109 37.4759 16.2831 33.3999 15.204C29.3151 14.1094 26.9655 9.96104 28.071 5.78703C29.1495 1.76216 33.3034 -0.630599 37.3433 0.438844ZM10.1442 20.1547C14.1929 21.2396 16.6027 25.4041 15.5145 29.4654C14.4262 33.5268 10.2768 35.999 6.20084 34.9198C2.11604 33.8253 -0.248829 29.6858 0.871987 25.5029C1.9928 21.32 6.10437 19.0853 10.1442 20.1547Z" fill="#E60523"/>
</svg>
